<svg t="1684737214479" class="icon" viewBox="0 0 1024 1024" version="1.1" xmlns="http://www.w3.org/2000/svg" p-id="3892" width="200" height="200"><path d="M706.9 811.4L454.3 558.7c-65.2 24.5-139.6 9-189.3-40.8-53.4-53.4-67.4-135.1-34.8-203.4l13-27.3 111.2 111.1 44-44-111.1-111.1 27.3-13C383 197.6 464.7 211.6 518 265c49.7 49.7 65.3 124.1 40.8 189.3l252.7 252.6-104.6 104.5zM463.7 507.7L706.9 751l44.1-44.1-243.3-243.2 6.5-13.6c24.8-52 14.1-114.2-26.5-154.8-33-33-80.3-46.2-124.8-36.7l95.8 95.8-104.3 104.4-95.9-95.8c-9.5 44.5 3.7 91.7 36.7 124.8 40.6 40.6 102.9 51.2 154.8 26.5l13.7-6.6z" p-id="3893"></path><path d="M668.54 698.763l30.193-30.194 30.193 30.194-30.193 30.193z" p-id="3894"></path></svg>