<?xml version="1.0" standalone="no"?><!DOCTYPE svg PUBLIC "-//W3C//DTD SVG 1.1//EN" "http://www.w3.org/Graphics/SVG/1.1/DTD/svg11.dtd"><svg t="1655964857255" class="icon" viewBox="0 0 1024 1024" version="1.1" xmlns="http://www.w3.org/2000/svg" p-id="4294" width="14" height="14" xmlns:xlink="http://www.w3.org/1999/xlink"><defs><style type="text/css">@font-face { font-family: feedback-iconfont; src: url("//at.alicdn.com/t/font_1031158_u69w8yhxdu.woff2?t=1630033759944") format("woff2"), url("//at.alicdn.com/t/font_1031158_u69w8yhxdu.woff?t=1630033759944") format("woff"), url("//at.alicdn.com/t/font_1031158_u69w8yhxdu.ttf?t=1630033759944") format("truetype"); }
</style></defs><path d="M919.04 256L528 33.28a32 32 0 0 0-32 0L104.96 256a32 32 0 0 0-16 27.52v451.2a32 32 0 0 0 16 27.52l391.04 225.92a32 32 0 0 0 32 0L919.04 768a32 32 0 0 0 16-27.52v-192a32 32 0 0 0-64 0v153.6l-176-103.04V415.36a16 16 0 0 0-7.68-14.08L528 309.76V106.88l343.04 197.76v85.12a32 32 0 0 0 64 0V286.08a32 32 0 0 0-16-30.08z m-423.04 51.2L344.96 396.8 168.96 295.68l327.04-188.8z m-343.04 13.44l176 104.32v174.08l-176 101.76z m16 405.12L344.96 627.2l151.04 87.04v202.88z m512-101.12l175.36 101.12-328.32 191.36v-202.88z m-16-27.52L512 686.72 360.96 599.04V424.96L512 337.28l151.04 87.04z" p-id="4295"></path></svg>