<svg t="1704455772745" class="icon" viewBox="0 0 1024 1024" version="1.1" xmlns="http://www.w3.org/2000/svg" p-id="2704" width="128" height="128"><path d="M698.624 370.432c-2.24-0.512-4.48-0.768-6.848-0.768L240.064 369.664l185.664-185.6c12.864-12.864 12.864-33.6 0-46.464-12.8-12.864-33.6-12.864-46.464 0L137.6 379.264c-0.64 0.64-0.832 1.408-1.344 2.048C134.016 384 131.904 386.752 130.56 390.016 129.088 393.6 128.448 397.376 128.256 401.152 128.256 401.664 128 402.048 128 402.56 128 403.264 128.384 403.84 128.384 404.608c0.192 3.584 0.768 7.04 2.112 10.496 1.6 3.84 3.968 7.232 6.784 10.176C137.408 425.408 137.472 425.664 137.6 425.792l241.728 241.728c6.4 6.4 14.784 9.6 23.232 9.6 8.448 0 16.768-3.264 23.232-9.6 12.864-12.864 12.864-33.6 0-46.528l-185.664-185.6 447.872 0c21.248 5.504 142.272 43.968 142.272 205.248 0 161.152-124.416 187.008-140.864 189.632L593.28 830.272c-18.112 0-32.896 14.72-32.896 32.896S575.104 896 593.28 896l98.496 0c1.344 0 2.688-0.128 3.968-0.256C764.992 887.232 896 823.104 896 640.64 896 460.032 766.848 384.896 698.624 370.432z" p-id="2705"></path></svg>