<svg t="1669708300350" class="icon" viewBox="0 0 1024 1024" version="1.1" xmlns="http://www.w3.org/2000/svg" p-id="11250" width="16" height="16"><path d="M341.75 422.02m-70.11 0a70.11 70.11 0 1 0 140.22 0 70.11 70.11 0 1 0-140.22 0Z" fill="#0839FF" p-id="11251"></path><path d="M341.75 422.02m-50.08 0a50.08 50.08 0 1 0 100.16 0 50.08 50.08 0 1 0-100.16 0Z" fill="#AFC1FF" p-id="11252"></path><path d="M702.3 622.01m-70.11 0a70.11 70.11 0 1 0 140.22 0 70.11 70.11 0 1 0-140.22 0Z" fill="#0839FF" p-id="11253"></path><path d="M82.58 837.53a10 10 0 1 0 17.56 9.63l192-350a90.71 90.71 0 0 1-15.63-13.15zM927.37 203a10 10 0 0 0-13.56 4l-178 331.37a89.94 89.94 0 0 1 17.64 9.48l178-331.38a10 10 0 0 0-4.08-13.47zM629.82 568.65l-203-117.09a89.66 89.66 0 0 1-8.69 18.11L619.74 586a90 90 0 0 1 10.08-17.35z" fill="#0839FF" p-id="11254"></path><path d="M702.3 622.01m-50.08 0a50.08 50.08 0 1 0 100.16 0 50.08 50.08 0 1 0-100.16 0Z" fill="#AFC1FF" p-id="11255"></path><path d="M932.66 842.35H101.38V171.64a10 10 0 0 0-20 0v690.74h851.28a10 10 0 0 0 10-10 10 10 0 0 0-10-10.03z" fill="#979797" p-id="11256"></path></svg>