<?xml version="1.0" standalone="no"?><!DOCTYPE svg PUBLIC "-//W3C//DTD SVG 1.1//EN" "http://www.w3.org/Graphics/SVG/1.1/DTD/svg11.dtd"><svg t="1661226667424" class="icon" viewBox="0 0 1024 1024" version="1.1" xmlns="http://www.w3.org/2000/svg" p-id="1650" xmlns:xlink="http://www.w3.org/1999/xlink" width="300" height="300"><defs><style type="text/css">@font-face { font-family: feedback-iconfont; src: url("//at.alicdn.com/t/font_1031158_u69w8yhxdu.woff2?t=1630033759944") format("woff2"), url("//at.alicdn.com/t/font_1031158_u69w8yhxdu.woff?t=1630033759944") format("woff"), url("//at.alicdn.com/t/font_1031158_u69w8yhxdu.ttf?t=1630033759944") format("truetype"); }
</style></defs><path d="M949.333333 682.666667H874.666667c0-23.466667-19.2-42.666667-42.666667-42.666667h-42.666667v-85.333333h64c46.933333 0 85.333333-38.4 85.333334-85.333334V256c0-46.933333-38.4-85.333333-85.333334-85.333333H640c-46.933333 0-85.333333 38.4-85.333333 85.333333v213.333333c0 46.933333 38.4 85.333333 85.333333 85.333334h85.333333v85.333333h-42.666666c-23.466667 0-42.666667 19.2-42.666667 42.666667H384c0-23.466667-19.2-42.666667-42.666667-42.666667h-42.666666v-85.333333h85.333333c46.933333 0 85.333333-38.4 85.333333-85.333334V256c0-46.933333-38.4-85.333333-85.333333-85.333333H170.666667c-46.933333 0-85.333333 38.4-85.333334 85.333333v213.333333c0 46.933333 38.4 85.333333 85.333334 85.333334h64v85.333333H192c-23.466667 0-42.666667 19.2-42.666667 42.666667H74.666667c-17.066667 0-32 14.933333-32 32S57.6 746.666667 74.666667 746.666667H149.333333c0 23.466667 19.2 42.666667 42.666667 42.666666h42.666667v32c0 17.066667 14.933333 32 32 32s32-14.933333 32-32V789.333333h42.666666c23.466667 0 42.666667-19.2 42.666667-42.666666h256c0 23.466667 19.2 42.666667 42.666667 42.666666h42.666666v32c0 17.066667 14.933333 32 32 32s32-14.933333 32-32V789.333333h42.666667c23.466667 0 42.666667-19.2 42.666667-42.666666h74.666666c17.066667 0 32-14.933333 32-32s-14.933333-32-32-32z m-654.933333-204.8c-4.266667-4.266667-14.933333-12.8-19.2-12.8-6.4 0-14.933333 8.533333-19.2 12.8-4.266667 4.266667-10.666667 8.533333-17.066667 8.533333-4.266667 0-6.4 0-8.533333-2.133333l-29.866667-17.066667c-8.533333-6.4-12.8-17.066667-8.533333-27.733333 0-2.133333 2.133333-6.4 2.133333-8.533334 0-12.8-10.666667-23.466667-23.466666-23.466666-8.533333 0-17.066667-6.4-19.2-19.2-2.133333-2.133333-2.133333-14.933333-2.133334-25.6v-25.6c2.133333-10.666667 8.533333-19.2 19.2-19.2H170.666667c12.8 0 23.466667-10.666667 23.466666-23.466667 0-2.133333-2.133333-6.4-2.133333-8.533333-4.266667-10.666667 0-21.333333 8.533333-27.733334l32-17.066666c2.133333-2.133333 6.4-2.133333 8.533334-2.133334 6.4 0 12.8 2.133333 17.066666 6.4 4.266667 4.266667 14.933333 12.8 19.2 12.8 6.4 0 14.933333-6.4 19.2-10.666666 4.266667-4.266667 10.666667-6.4 17.066667-6.4 4.266667 0 6.4 0 8.533333 2.133333l32 17.066667c8.533333 6.4 12.8 17.066667 8.533334 27.733333 0 0-2.133333 4.266667-2.133334 8.533333 0 12.8 10.666667 23.466667 23.466667 23.466667 4.266667 0 8.533333 2.133333 12.8 4.266667 4.266667 4.266667 6.4 8.533333 6.4 12.8 0 2.133333 2.133333 14.933333 2.133333 25.6v25.6c-2.133333 10.666667-8.533333 19.2-19.2 19.2H384c-12.8 0-23.466667 10.666667-23.466667 23.466666 0 4.266667 2.133333 8.533333 2.133334 8.533334 4.266667 10.666667 0 21.333333-8.533334 27.733333l-34.133333 17.066667c-2.133333 2.133333-6.4 2.133333-8.533333 2.133333-6.4 0-12.8-2.133333-17.066667-8.533333z m488.533333 8.533333c-6.4 0-12.8-2.133333-17.066666-8.533333-4.266667-4.266667-14.933333-12.8-19.2-12.8-6.4 0-14.933333 8.533333-19.2 12.8-4.266667 4.266667-10.666667 8.533333-17.066667 8.533333-4.266667 0-6.4 0-8.533333-2.133333l-29.866667-17.066667c-8.533333-6.4-12.8-17.066667-8.533333-27.733333 0-2.133333 2.133333-6.4 2.133333-8.533334 0-12.8-10.666667-23.466667-23.466667-23.466666H640c-8.533333 0-17.066667-6.4-19.2-19.2 0-2.133333-2.133333-14.933333-2.133333-25.6s2.133333-23.466667 2.133333-25.6c2.133333-10.666667 8.533333-19.2 19.2-19.2 12.8 0 23.466667-10.666667 23.466667-23.466667 0-2.133333-2.133333-6.4-2.133334-8.533333-4.266667-10.666667 0-21.333333 8.533334-27.733334l32-17.066666c2.133333-2.133333 6.4-2.133333 8.533333-2.133334 6.4 0 12.8 2.133333 17.066667 6.4 4.266667 4.266667 14.933333 12.8 19.2 12.8 6.4 0 14.933333-6.4 19.2-10.666666 4.266667-4.266667 10.666667-6.4 17.066666-6.4 4.266667 0 6.4 0 8.533334 2.133333l32 17.066667c8.533333 6.4 12.8 17.066667 8.533333 27.733333 0 0-2.133333 4.266667-2.133333 8.533333 0 12.8 10.666667 23.466667 23.466666 23.466667 4.266667 0 8.533333 2.133333 12.8 4.266667 4.266667 4.266667 6.4 8.533333 6.4 12.8 0 2.133333 2.133333 14.933333 2.133334 25.6v25.6c-2.133333 10.666667-8.533333 19.2-19.2 19.2H853.333333c-12.8 0-23.466667 10.666667-23.466666 23.466666 0 4.266667 2.133333 8.533333 2.133333 8.533334 4.266667 10.666667 0 21.333333-8.533333 27.733333l-34.133334 17.066667c0 2.133333-4.266667 2.133333-6.4 2.133333z m-38.4-174.933333c-27.733333 0-51.2 23.466667-51.2 51.2s23.466667 51.2 51.2 51.2c27.733333 0 51.2-23.466667 51.2-51.2s-23.466667-51.2-51.2-51.2zM326.4 362.666667c0-27.733333-23.466667-51.2-51.2-51.2-27.733333 0-51.2 23.466667-51.2 51.2s23.466667 51.2 51.2 51.2c27.733333 0 51.2-23.466667 51.2-51.2z" p-id="1651"></path></svg>