<?xml version="1.0" standalone="no"?><!DOCTYPE svg PUBLIC "-//W3C//DTD SVG 1.1//EN" "http://www.w3.org/Graphics/SVG/1.1/DTD/svg11.dtd"><svg t="1650959017428" class="icon" viewBox="0 0 1024 1024" version="1.1" xmlns="http://www.w3.org/2000/svg" p-id="2987" width="14" height="14" xmlns:xlink="http://www.w3.org/1999/xlink"><defs><style type="text/css">@font-face { font-family: feedback-iconfont; src: url("//at.alicdn.com/t/font_1031158_u69w8yhxdu.woff2?t=1630033759944") format("woff2"), url("//at.alicdn.com/t/font_1031158_u69w8yhxdu.woff?t=1630033759944") format("woff"), url("//at.alicdn.com/t/font_1031158_u69w8yhxdu.ttf?t=1630033759944") format("truetype"); }
</style></defs><path d="M369.800533 0h-256A113.8688 113.8688 0 0 0 0 113.800533v170.666667c0.068267 62.805333 50.9952 113.664 113.800533 113.732267h256a113.8688 113.8688 0 0 0 113.732267-113.732267v-170.666667A113.8688 113.8688 0 0 0 369.800533 0z m56.866134 284.4672c0 31.402667-25.463467 56.866133-56.866134 56.866133h-256a56.9344 56.9344 0 0 1-56.9344-56.866133v-170.666667c0-31.402667 25.531733-56.866133 56.9344-56.9344h256c31.402667 0 56.866133 25.531733 56.866134 56.9344v170.666667z m-56.866134 170.666667h-256A113.8688 113.8688 0 0 0 0 568.866133v341.333334C0 973.0048 50.9952 1024 113.800533 1024h256c62.805333 0 113.664-50.9952 113.732267-113.800533v-341.333334c0-62.805333-50.926933-113.664-113.732267-113.732266z m56.866134 455.0656c0 31.402667-25.463467 56.866133-56.866134 56.9344h-256a56.9344 56.9344 0 0 1-56.9344-56.9344v-341.333334c0-31.402667 25.531733-56.866133 56.9344-56.866133h256c31.402667 0 56.866133 25.463467 56.866134 56.866133v341.333334z m483.5328-284.398934h-256a113.8688 113.8688 0 0 0-113.732267 113.732267v170.666667c0 62.805333 50.926933 113.732267 113.732267 113.800533h256c62.805333 0 113.732267-50.9952 113.800533-113.800533v-170.666667a113.8688 113.8688 0 0 0-113.800533-113.732267z m56.9344 284.398934c0 31.402667-25.531733 56.866133-56.9344 56.9344h-256a56.9344 56.9344 0 0 1-56.866134-56.9344v-170.666667c0-31.402667 25.463467-56.866133 56.866134-56.866133h256c31.402667 0 56.866133 25.463467 56.9344 56.866133v170.666667zM910.199467 0h-256a113.8688 113.8688 0 0 0-113.732267 113.800533v341.333334c0 62.805333 50.926933 113.664 113.732267 113.732266h256A113.8688 113.8688 0 0 0 1024 455.133867v-341.333334A113.8688 113.8688 0 0 0 910.199467 0z m56.9344 455.133867c0 31.402667-25.531733 56.866133-56.9344 56.866133h-256a56.9344 56.9344 0 0 1-56.866134-56.866133v-341.333334c0-31.402667 25.463467-56.866133 56.866134-56.9344h256c31.402667 0 56.866133 25.531733 56.9344 56.9344v341.333334z" p-id="2988"></path></svg>