<?xml version="1.0" standalone="no"?><!DOCTYPE svg PUBLIC "-//W3C//DTD SVG 1.1//EN" "http://www.w3.org/Graphics/SVG/1.1/DTD/svg11.dtd"><svg t="1651050505996" class="icon" viewBox="0 0 1024 1024" version="1.1" xmlns="http://www.w3.org/2000/svg" p-id="5434" width="14" height="14" xmlns:xlink="http://www.w3.org/1999/xlink"><defs><style type="text/css">@font-face { font-family: feedback-iconfont; src: url("//at.alicdn.com/t/font_1031158_u69w8yhxdu.woff2?t=1630033759944") format("woff2"), url("//at.alicdn.com/t/font_1031158_u69w8yhxdu.woff?t=1630033759944") format("woff"), url("//at.alicdn.com/t/font_1031158_u69w8yhxdu.ttf?t=1630033759944") format("truetype"); }
</style></defs><path d="M944.64 0H79.36C35.84 0 0 35.2 0 79.36v194.56c0 43.52 35.2 79.36 79.36 79.36h865.28c43.52 0 79.36-35.2 79.36-79.36V79.36C1024 35.2 988.16 0 944.64 0z m-39.68 263.68H119.04c-16.64 0-29.44-13.44-29.44-29.44v-115.2c0-16.64 12.8-29.44 29.44-30.08h786.56c16.64 0 29.44 13.44 29.44 29.44v115.84c0 16.64-13.44 29.44-30.08 29.44zM352.64 431.36H79.36C35.84 431.36 0 467.2 0 510.72v433.92C0 988.8 35.84 1024 79.36 1024h273.92c43.52 0 79.36-35.2 79.36-79.36V510.72c-0.64-44.16-35.84-79.36-80-79.36z m-39.68 503.68H119.04c-16.64 0-29.44-13.44-29.44-29.44V549.76c0-16.64 13.44-29.44 29.44-29.44H313.6c16.64 0 29.44 13.44 29.44 29.44v355.2c0 16.64-13.44 30.08-30.08 30.08z m664.96-477.44H537.6c-24.96 0-45.44 19.84-45.44 44.8 0.64 24.32 20.48 44.16 44.16 44.16h440.96c24.96 0 44.8-20.48 44.8-44.8 0-24.96-19.84-44.16-44.16-44.16z m0 452.48H537.6c-24.96 0-45.44 19.84-45.44 44.8 0.64 24.32 20.48 43.52 44.16 43.52h440.96c24.96 0 45.44-19.84 45.44-44.8a44.672 44.672 0 0 0-44.8-43.52z m0-226.56H537.6c-24.96 0-45.44 19.84-45.44 44.8 0.64 24.32 20.48 43.52 44.16 43.52h440.96c24.96 0 44.8-20.48 44.8-45.44 0-23.04-19.84-42.24-44.16-42.88z" p-id="5435"></path></svg>