<?xml version="1.0" standalone="no"?><!DOCTYPE svg PUBLIC "-//W3C//DTD SVG 1.1//EN" "http://www.w3.org/Graphics/SVG/1.1/DTD/svg11.dtd"><svg t="1637829148899" class="icon" viewBox="0 0 1024 1024" version="1.1" xmlns="http://www.w3.org/2000/svg" p-id="3840" xmlns:xlink="http://www.w3.org/1999/xlink" width="200" height="200"><defs><style type="text/css"></style></defs><path d="M477.184 839.68H193.536c-19.456-1.024-34.816-17.408-34.304-36.864V199.168c-0.512-19.456 14.336-36.352 34.304-36.864h481.28c19.456 1.024 34.816 17.408 34.304 36.864v314.88c0 17.408 13.824 31.232 31.232 31.232s31.232-13.824 31.232-31.232V199.168c0.512-54.272-42.496-98.816-96.768-99.84h-481.28c-54.272 1.024-97.792 45.568-96.768 99.84v603.648c-0.512 54.272 42.496 98.816 96.768 99.84h284.16c17.408 0 31.232-13.824 31.232-31.232 0-17.408-14.336-31.744-31.744-31.744z" p-id="3841"></path><path d="M611.328 302.592H358.912c-15.872 0-28.672 12.8-28.672 28.672s12.8 28.672 28.672 28.672h251.904c15.872 0 28.672-12.8 28.672-28.672 0-15.872-12.8-28.672-28.16-28.672z m28.16 202.24c0-7.68-3.072-14.848-8.192-19.968s-12.8-8.192-19.968-8.192H359.424c-15.872 0-28.672 12.8-28.672 28.672s12.8 28.672 28.672 28.672h251.904c7.68 0 14.848-3.072 19.968-8.192 5.632-6.656 8.192-13.824 8.192-20.992z m-280.576 144.896c-15.872 0-28.672 12.8-28.672 28.672s12.8 28.672 28.672 28.672h194.56c15.872 0 28.672-12.8 28.672-28.672s-12.8-28.672-28.672-28.672h-194.56z" p-id="3842"></path><path d="M226.304 330.752c0 12.288 6.656 23.552 16.896 29.696 10.752 6.144 23.552 6.144 34.304 0s16.896-17.408 16.896-29.696c0-18.944-15.36-34.304-34.304-34.304s-33.792 15.872-33.792 34.304zM226.304 504.832c0 12.288 6.656 23.552 16.896 29.696 10.752 6.144 23.552 6.144 34.304 0s16.896-17.408 16.896-29.696c0-18.944-15.36-34.304-34.304-34.304s-33.792 15.36-33.792 34.304zM226.304 678.4c0 12.288 6.656 23.552 16.896 29.696 10.752 6.144 23.552 6.144 34.304 0 10.752-6.144 16.896-17.408 16.896-29.696 0-18.944-15.36-34.304-34.304-34.304s-33.792 15.36-33.792 34.304z" p-id="3843"></path><path d="M919.552 644.608l-75.264-75.264c-11.264-11.264-29.184-11.264-40.448 0L579.584 793.6c-0.512 0.512-0.512 1.024-1.024 1.024-0.512 0.512-1.536 1.536-2.048 2.56s-1.024 1.536-1.536 2.048c-0.512 1.024-1.024 1.536-1.024 2.56-0.512 1.024-1.024 2.048-1.024 3.072 0 0.512-0.512 1.024-0.512 1.536l-26.624 102.4c-2.048 8.704-0.512 17.408 5.12 24.576s13.824 11.264 22.528 11.264c2.56 0 5.12-0.512 7.168-1.024l101.888-27.136c0.512 0 1.024-0.512 1.536-0.512 1.024-0.512 2.048-0.512 3.072-1.024l2.56-1.024c1.536-1.024 3.072-2.048 4.608-3.584 0.512-0.512 1.024-0.512 1.024-1.024l224.256-224.256c5.12-5.12 8.192-12.8 8.192-19.968 0-7.68-3.072-14.848-8.192-20.48zM660.48 863.744l-47.616 12.288 12.288-47.616 198.656-198.656 34.816 34.816-198.144 199.168z" p-id="3844"></path></svg>