<svg t="1666600137012" class="icon" viewBox="0 0 1024 1024" version="1.1" xmlns="http://www.w3.org/2000/svg" p-id="11487" width="16" height="16"><path d="M559.9 133.2l73.9 149.7c7.8 15.8 22.8 26.7 40.2 29.2l165.2 24c43.8 6.4 61.3 60.2 29.6 91.1L749.3 543.9c-12.5 12.3-18.3 29.9-15.3 47.3l28.2 164.6c7.5 43.7-38.3 76.9-77.5 56.3l-147.8-77.7c-15.6-8.1-34.2-8.1-49.7 0L339.5 812c-39.2 20.6-84.9-12.6-77.5-56.3l28.2-164.6c3-17.3-2.8-35-15.3-47.3L155.3 427.3c-31.9-30.9-14.4-84.8 29.4-91.1l165.2-24c17.4-2.5 32.5-13.5 40.2-29.2L464 133.3c19.7-39.8 76.3-39.8 95.9-0.1z" fill="#FFC41F" p-id="11488"></path><path d="M526.1 364.2l21.8 44.2c2.3 4.7 6.7 7.9 11.9 8.6l48.7 7c12.9 1.9 18.1 17.7 8.7 26.9l-35.3 34.3c-3.7 3.6-5.4 8.8-4.5 13.9l8.3 48.5c2.2 12.9-11.3 22.6-22.8 16.6l-43.6-22.9c-4.6-2.4-10.1-2.4-14.7 0L461 564.2c-11.5 6.1-25-3.7-22.8-16.6l8.3-48.5c0.8-5.1-0.8-10.3-4.5-13.9L406.9 451c-9.3-9.1-4.2-25 8.7-26.9l48.7-7c5.1-0.8 9.6-4 11.9-8.6l21.8-44.2c5.7-11.8 22.3-11.8 28.1-0.1z" fill="#FFFFFF" p-id="11489"></path></svg>