<svg t="1672144265955" class="icon" viewBox="0 0 1462 1024" version="1.1" xmlns="http://www.w3.org/2000/svg" p-id="14627" width="16" height="16"><path d="M1336.4602452 260.29871936A180.79545163 180.79545163 0 0 0 1156.00378496 90.125H301.63227845A180.79545163 180.79545163 0 0 0 131.4585591 270.92045163v492.78060324a180.79545163 180.79545163 0 0 0 180.79545163 170.17371935h854.37150732a180.79545163 180.79545163 0 0 0 170.17371853-180.79545162V270.92045163z m-90.39772541 492.78060324a90.39772623 90.39772623 0 0 1-90.39772623 90.3977254H312.25401073a90.39772623 90.39772623 0 0 1-90.39772541-90.3977254V270.92045163a90.39772623 90.39772623 0 0 1 90.39772541-90.3977254h843.74977423a90.39772623 90.39772623 0 0 1 90.39772623 90.3977254z" p-id="14628" fill="#707070"></path><path d="M914.86785118 632.51135571h-361.59090326a60.34048215 60.34048215 0 0 0 0 120.56796689h361.59090326a60.34048215 60.34048215 0 0 0 0-120.56796689z" p-id="14629" fill="#707070"></path><path d="M553.29337385 331.1986413m-58.61694891 13.83485668a60.22748474 60.22748474 0 1 0 117.233897-27.66971338 60.22748474 60.22748474 0 1 0-117.23389699 27.66971338Z" p-id="14630" fill="#707070"></path><path d="M372.47370891 331.14884275m-58.61694892 13.83485751a60.22748474 60.22748474 0 1 0 117.23389783-27.6697142 60.22748474 60.22748474 0 1 0-117.23389783 27.6697142Z" p-id="14631" fill="#707070"></path><path d="M553.24097978 512.01860782m-58.61694809 13.83485669a60.22748474 60.22748474 0 1 0 117.23389701-27.66971338 60.22748474 60.22748474 0 1 0-117.23389701 27.66971338Z" p-id="14632" fill="#707070"></path><path d="M734.0609323 511.95787759m-58.61694892 13.83485669a60.22748474 60.22748474 0 1 0 117.233897-27.66971338 60.22748474 60.22748474 0 1 0-117.233897 27.66971338Z" p-id="14633" fill="#707070"></path><path d="M1095.64013511 331.2427124m-58.61694891 13.83485752a60.22748474 60.22748474 0 1 0 117.23389783-27.66971421 60.22748474 60.22748474 0 1 0-117.23389783 27.66971421Z" p-id="14634" fill="#707070"></path><path d="M734.11332555 331.13791107m-58.61694892 13.83485669a60.22748474 60.22748474 0 1 0 117.23389783-27.6697142 60.22748474 60.22748474 0 1 0-117.23389783 27.6697142Z" p-id="14635" fill="#707070"></path><path d="M1095.70085133 511.94954062m-58.61694891 13.83485669a60.22748474 60.22748474 0 1 0 117.233897-27.66971338 60.22748474 60.22748474 0 1 0-117.233897 27.66971338Z" p-id="14636" fill="#707070"></path><path d="M372.42101326 511.96621457m-58.61694892 13.83485669a60.22748474 60.22748474 0 1 0 117.23389784-27.66971338 60.22748474 60.22748474 0 1 0-117.23389783 27.66971338Z" p-id="14637" fill="#707070"></path><path d="M1095.66330281 632.51135571a60.34048215 60.34048215 0 0 0 0 120.56796689 60.34048215 60.34048215 0 0 0 0-120.56796689z" p-id="14638" fill="#707070"></path><path d="M914.8201686 331.19031915m-58.61694892 13.83485668a60.22748474 60.22748474 0 1 0 117.23389783-27.66971337 60.22748474 60.22748474 0 1 0-117.23389783 27.66971337Z" p-id="14639" fill="#707070"></path><path d="M914.88089882 512.01027085m-58.61694891 13.83485669a60.22748474 60.22748474 0 1 0 117.23389782-27.66971338 60.22748474 60.22748474 0 1 0-117.23389782 27.66971338Z" p-id="14640" fill="#707070"></path><path d="M372.48149629 632.51135571a60.34048215 60.34048215 0 0 0 0 120.56796689 60.34048215 60.34048215 0 1 0 0-120.56796689z" p-id="14641" fill="#707070"></path></svg>