<?xml version="1.0" standalone="no"?><!DOCTYPE svg PUBLIC "-//W3C//DTD SVG 1.1//EN" "http://www.w3.org/Graphics/SVG/1.1/DTD/svg11.dtd"><svg t="1655964754048" class="icon" viewBox="0 0 1024 1024" version="1.1" xmlns="http://www.w3.org/2000/svg" p-id="3093" width="14" height="14" xmlns:xlink="http://www.w3.org/1999/xlink"><defs><style type="text/css">@font-face { font-family: feedback-iconfont; src: url("//at.alicdn.com/t/font_1031158_u69w8yhxdu.woff2?t=1630033759944") format("woff2"), url("//at.alicdn.com/t/font_1031158_u69w8yhxdu.woff?t=1630033759944") format("woff"), url("//at.alicdn.com/t/font_1031158_u69w8yhxdu.ttf?t=1630033759944") format("truetype"); }
</style></defs><path d="M787.447469 170.853303a63.145207 63.123533 0 1 0 126.290414 0 63.145207 63.123533 0 1 0-126.290414 0Z" p-id="3094"></path><path d="M680.98566 28.415343A515.243941 515.243941 0 0 0 512.166154 0c-137.416687 0.003612-266.210513 53.091826-362.63339 149.48219C53.106275 245.868942 0 374.529108 0 511.757949c0 137.618983 53.106275 266.365848 149.532764 362.759825 96.419264 96.393977 225.209477 149.478578 362.640614 149.478577 137.384175 0.057799 266.174389-53.030414 362.655064-149.48219 94.804509-94.76116 149.171521-227.275785 149.164297-363.55817-0.003612-57.372551-9.439269-113.751684-28.036039-167.565995-4.663642-13.488799-15.724891-23.45187-29.592994-26.641642a40.484459 40.484459 0 0 0-37.916024 10.880627c-11.111823 11.104598-14.77121 27.36774-9.544029 42.420719 53.893784 155.673888 13.915065 331.006599-101.841516 446.727056-81.149539 81.117027-189.428397 125.759388-304.903208 125.708814-115.496486 0-223.771732-44.645974-304.867085-125.705202-81.09174-81.070066-125.755776-189.3128-125.755776-304.783998 0-115.525385 44.660423-223.699483 125.755776-304.765937 81.095352-81.062841 189.370599-125.708814 304.877922-125.708814a433.397203 433.397203 0 0 1 142.282625 24.000958c14.66645 5.089908 31.211361 1.311311 42.1534-9.630727 10.082281-10.248453 14.048725-24.311627 10.931201-37.934086a40.78429 40.78429 0 0 0-26.551332-29.542421z" p-id="3095"></path><path d="M846.409487 511.37142a22.732997 22.732997 0 0 0-6.628802-16.801394c-0.675524-0.675524-1.441358-1.202938-2.178293-1.777313l-88.93793-88.905418c-8.875731-8.872118-23.401296-8.872118-32.277026 0s-8.875731 23.390459 0 32.262577l52.676396 52.654722h-297.111205l174.678862-174.61745v72.432754c0 12.549568 10.270127 22.812471 22.823307 22.812471 12.553181 0 22.823308-10.266515 22.823308-22.812471V263.479519c1.643654-7.380186-0.339568-15.421447-6.050813-21.132692-0.061411-0.061411-0.13366-0.101148-0.195071-0.158947-0.108373-0.111985-0.216746-0.227583-0.328731-0.335956a22.73661 22.73661 0 0 0-16.248693-6.856384c-0.957293 0-1.867624 0.166172-2.796017 0.285381h-125.777451c-12.553181 0-22.823308 10.266515-22.823308 22.812471 0 12.549568 10.270127 22.812471 22.823308 22.81247h74.49545l-207.974592 207.898732h-27.425539c-10.385725-45.606879-51.119441-79.675669-99.887193-79.675669-56.624778 0-102.524264 45.885036-102.524264 102.48814s45.903098 102.48814 102.524264 102.488139c48.767752 0 89.501468-34.06879 99.887193-79.675669h26.670541l208.725978 208.650117h-74.49545c-12.553181 0-22.823308 10.266515-22.823308 22.81247 0 12.549568 10.270127 22.812471 22.823308 22.812471h125.77745c0.928393 0.115598 1.838725 0.285382 2.796018 0.285381a22.758284 22.758284 0 0 0 16.248692-6.856384c0.111985-0.108373 0.216746-0.22397 0.328731-0.335956 0.061411-0.061411 0.13366-0.097536 0.195071-0.158947 5.714858-5.711246 7.694467-13.752506 6.050814-21.132692v-123.143992c0-12.549568-10.270127-22.812471-22.823308-22.81247-12.553181 0-22.823308 10.266515-22.823308 22.81247v72.432755l-175.433859-175.368835h296.424845l-51.235039 51.216976c-8.875731 8.872118-8.875731 23.390459 0 32.262578s23.401296 8.872118 32.277027 0l87.106429-87.073918c6.383157-4.056754 10.667494-11.144334 10.667495-19.221719 0-0.075861-0.025287-0.155334-0.025287-0.23842z" p-id="3096"></path></svg>