<svg t="1703562537692" class="icon" viewBox="0 0 1024 1024" version="1.1" xmlns="http://www.w3.org/2000/svg" p-id="1611" width="128" height="128"><path d="M990.579 254.137L518.623 4 51.03 249.604v508.277l462.94 251.418 29.323-15.581h0.714v-0.379L990.578 756.05V254.137z m-58.721 25.467l-210.532 95.191-212.707-119.166-199.73 110.892-200.409-90.614L518.518 60.533l413.34 219.071zM337.317 434.248l156.69 70.847V692.89l-156.69-89.951V434.248z m206.691 75.593l137.784-62.298v154.308L544.008 679.24V509.841z m-19.751-45.943L365.661 392.19l142.849-79.311 156.205 87.512-140.458 63.507zM101.03 327.412l186.287 84.229V631.89l206.69 118.652v191.019L101.03 728.139V327.412z m442.978 609.307V736.586l187.784-105.472V424.936l208.787-94.401v395.464l-396.571 210.72z" p-id="1612"></path></svg>