<?xml version="1.0" standalone="no"?><!DOCTYPE svg PUBLIC "-//W3C//DTD SVG 1.1//EN" "http://www.w3.org/Graphics/SVG/1.1/DTD/svg11.dtd"><svg t="1638259012349" class="icon" viewBox="0 0 1024 1024" version="1.1" xmlns="http://www.w3.org/2000/svg" p-id="7322" xmlns:xlink="http://www.w3.org/1999/xlink" width="200" height="200"><defs><style type="text/css"></style></defs><path d="M819.2 51.2a102.4 102.4 0 0 1 102.4 102.4v716.8a102.4 102.4 0 0 1-102.4 102.4H204.8a102.4 102.4 0 0 1-102.4-102.4V153.6a102.4 102.4 0 0 1 102.4-102.4h614.4z m0 51.2H204.8a51.2 51.2 0 0 0-50.8416 45.2096L153.6 153.6v716.8a51.2 51.2 0 0 0 45.2096 50.8416L204.8 921.6h97.5872l83.968-145.408a204.8 204.8 0 1 1 256.3584-4.096L729.088 921.6H819.2a51.2 51.2 0 0 0 50.8416-45.2096L870.4 870.4V153.6a51.2 51.2 0 0 0-45.2096-50.8416L819.2 102.4z m-219.6992 697.2416A204.032 204.032 0 0 1 512 819.2a204.1344 204.1344 0 0 1-81.5616-16.896L361.5232 921.6h308.3776l-70.4-121.9584zM512 460.8a153.6 153.6 0 1 0 0 307.2 153.6 153.6 0 0 0 0-307.2z m0 102.4a51.2 51.2 0 1 1 0 102.4 51.2 51.2 0 0 1 0-102.4z m230.4-281.6a25.6 25.6 0 1 1 0 51.2h-358.4a25.6 25.6 0 0 1 0-51.2h358.4z m-460.8 0a25.6 25.6 0 1 1 0 51.2 25.6 25.6 0 0 1 0-51.2z m102.4-102.4h358.4a25.6 25.6 0 1 1 0 51.2h-358.4a25.6 25.6 0 0 1 0-51.2z m-102.4 0a25.6 25.6 0 1 1 0 51.2 25.6 25.6 0 0 1 0-51.2z" p-id="7323"></path></svg>