<svg t="1660116785647" class="icon" viewBox="0 0 1024 1024" version="1.1" xmlns="http://www.w3.org/2000/svg" p-id="1882" width="200" height="200"><path d="M319.786667 461.866667H151.893333c-16 0-29.866667 13.226667-29.866666 29.866666 0 16 13.226667 29.866667 29.866666 29.866667h167.893334c16 0 29.866667-13.226667 29.866666-29.866667-0.213333-16.64-13.866667-29.866667-29.866666-29.866666z m0 0" fill="#ffffff" p-id="1883"></path><path d="M798.72 837.12l-5.76 2.346667v29.226666c0 41.173333-33.706667 75.093333-75.093333 75.093334H173.013333c-41.173333 0-75.093333-33.706667-75.093333-75.093334V155.946667c0-41.173333 33.706667-75.093333 75.093333-75.093334h544.853334c41.173333 0 75.093333 33.706667 75.093333 75.093334v29.226666l5.76 2.346667c21.76 8.106667 42.453333 18.346667 61.226667 30.293333l13.226666 8.106667V134.613333c0-74.026667-60.16-134.613333-134.613333-134.613333H151.893333C77.866667 0 17.28 60.16 17.28 134.613333v754.773334C17.28 963.413333 77.44 1024 151.893333 1024h586.88c73.813333 0 134.613333-60.16 134.613334-134.613333v-90.453334l-13.226667 8.106667c-18.986667 11.733333-39.68 22.186667-61.44 30.08z m0 0" fill="#ffffff" p-id="1884"></path><path d="M319.786667 315.093333H151.893333c-16 0-29.866667 13.226667-29.866666 29.866667 0 16.64 13.226667 29.866667 29.866666 29.866667h167.893334c16 0 29.866667-13.226667 29.866666-29.866667-0.213333-16.64-13.866667-29.866667-29.866666-29.866667z m0 293.546667H151.893333c-16 0-29.866667 13.226667-29.866666 29.866667s13.226667 29.866667 29.866666 29.866666h167.893334c16 0 29.866667-13.226667 29.866666-29.866666s-13.866667-29.866667-29.866666-29.866667z m298.026666-111.786667h53.333334v-5.76a68.906667 68.906667 0 0 0-68.693334-68.693333 68.906667 68.906667 0 0 0-68.693333 68.693333v5.76h53.333333v-5.76c0-8.533333 6.826667-15.573333 15.573334-15.573333 8.533333 0 15.573333 6.826667 15.573333 15.573333v5.76z m0 0" fill="#ffffff" p-id="1885"></path><path d="M707.626667 213.12c-165.12 0-299.093333 134.186667-299.093334 299.093333 0 165.12 134.186667 299.093333 299.093334 299.093334 165.12 0 299.093333-134.186667 299.093333-299.093334 0-164.906667-133.973333-299.093333-299.093333-299.093333z m0 523.733333c-123.733333 0-225.28-100.906667-225.28-224.64 0-123.733333 100.906667-225.28 225.28-225.28s225.28 100.906667 225.28 225.28c-0.64 123.946667-101.546667 224.64-225.28 224.64z m0 0" fill="#ffffff" p-id="1886"></path><path d="M743.68 575.36c0 20.053333-16 36.053333-36.053333 36.053333s-36.053333-16-36.053334-36.053333v-5.76h-53.333333v5.76c0 49.28 40.106667 89.386667 89.386667 89.386667 49.28 0 89.386667-40.106667 89.386666-89.386667v-5.76h-53.333333v5.76z m68.906667-152.533333a68.906667 68.906667 0 0 0-68.693334 68.693333v5.76h53.333334v-5.76c0-8.533333 6.826667-15.573333 15.573333-15.573333 8.533333 0 15.573333 6.826667 15.573333 15.573333v5.76h53.333334v-5.76c-1.066667-38.186667-31.36-68.693333-69.12-68.693333z m0 0" fill="#ffffff" p-id="1887"></path></svg>