<?xml version="1.0" standalone="no"?><!DOCTYPE svg PUBLIC "-//W3C//DTD SVG 1.1//EN" "http://www.w3.org/Graphics/SVG/1.1/DTD/svg11.dtd"><svg t="1691753219440" class="icon" viewBox="0 0 1024 1024" version="1.1" xmlns="http://www.w3.org/2000/svg" p-id="6865" xmlns:xlink="http://www.w3.org/1999/xlink" width="200" height="200"><path d="M784.752766 546.324404a238.837798 238.837798 0 1 1 0 477.675596 238.837798 238.837798 0 0 1 0-477.675596zM710.235373 0.068239a40.943623 40.943623 0 0 1 40.943622 40.943623L751.110756 68.648807 818.872451 68.648807a136.478742 136.478742 0 0 1 136.478742 136.478742v238.837798c-4.640277 22.723711-18.288151 34.119685-40.943623 34.119686-22.655471 0-36.303345-11.395975-40.943622-34.119686V205.127549a54.591497 54.591497 0 0 0-47.76756-54.182061L818.872451 150.536052h-67.761695v81.546048a40.943623 40.943623 0 1 1-81.887245 0V150.536052H286.605358V232.423297a40.943623 40.943623 0 1 1-81.887245 0V150.536052H136.478742a54.591497 54.591497 0 0 0-54.182061 47.76756L81.887245 205.127549v614.154338a54.591497 54.591497 0 0 0 47.76756 54.182061l6.823937 0.409436h300.45795c27.15927 1.501266 40.738904 15.21738 40.738904 41.080101 0 25.930961-13.647874 39.578835-40.738904 40.807144H136.478742a136.478742 136.478742 0 0 1-136.478742-136.478742V205.127549a136.478742 136.478742 0 0 1 136.478742-136.478742h68.239371V41.353059a40.943623 40.943623 0 1 1 81.887245 0V68.648807h382.618153V40.943623a40.943623 40.943623 0 0 1 40.943622-40.943623zM784.752766 614.563774a170.598427 170.598427 0 1 0 0 341.196855 170.598427 170.598427 0 0 0 0-341.196855z m-1.296548 46.266294a34.119685 34.119685 0 0 1 34.119685 34.119685l-0.068239 86.322805 69.672397 48.79115a34.119685 34.119685 0 0 1-39.101159 55.956284l-83.866187-58.685859a34.051446 34.051446 0 0 1-14.262029-23.474344 34.119685 34.119685 0 0 1-0.614154-6.550979v-102.359057a34.119685 34.119685 0 0 1 34.119686-34.119685zM436.731974 614.563774a40.943623 40.943623 0 0 1 0 81.887246H245.661735a40.943623 40.943623 0 0 1 0-81.887246h191.070239z m272.957484-204.718112a40.943623 40.943623 0 0 1 0 81.887245H245.661735a40.943623 40.943623 0 1 1 0-81.887245h464.027723z" fill="#ffffff" p-id="6866"></path></svg>