<?xml version="1.0" encoding="utf-8"?>
<!-- Generator: Adobe Illustrator 24.0.0, SVG Export Plug-In . SVG Version: 6.00 Build 0)  -->
<svg version="1.1" id="图层_1" xmlns="http://www.w3.org/2000/svg" xmlns:xlink="http://www.w3.org/1999/xlink" x="0px" y="0px"
	 viewBox="0 0 1299.48 375.01" style="enable-background:new 0 0 1299.48 375.01;" xml:space="preserve">
<style type="text/css">
	.st0{fill:#FFFFFF;}
</style>
<g>
	<path class="st0" d="M204.5,360.67h3.48c102.57-0.94,185.44-84.36,185.44-187.16h-54.64c0,73.19-59.34,132.53-132.54,132.53
		S73.7,246.72,73.7,173.52H19.06C19.06,276.31,101.93,359.74,204.5,360.67"/>
	<path class="st0" d="M128.51,173.14c0-43.28,35.08-78.37,78.37-78.37c43.27,0,78.36,35.09,78.36,78.37c0,0.13-0.01,0.25-0.01,0.38
		h53.54c0-72.79-58.68-131.86-131.31-132.52H205c-72.63,0.67-131.3,59.73-131.3,132.52h54.82
		C128.52,173.39,128.51,173.26,128.51,173.14"/>
	<path class="st0" d="M285.23,173.53h-53.51c-0.07,13.67-11.16,24.73-24.85,24.73s-24.78-11.06-24.85-24.73h-53.51
		c0.21,43.1,35.21,77.98,78.36,77.98S285.02,216.63,285.23,173.53"/>
</g>
<g>
	<path class="st0" d="M525.02,160.73c9.48,9.59,14.21,23.43,14.21,41.51c0,21.42-5.51,37.9-16.54,49.41
		c-11.02,11.51-26.81,17.28-47.36,17.28c-12.88,0-27.99-0.55-45.32-1.67l1.86-35.29l-1.86-84.89l54.24-0.74
		C501.96,146.33,515.54,151.13,525.02,160.73 M495.67,234.28c3.03-4.64,4.55-12.29,4.55-22.94c0-9.03-0.62-16.16-1.86-21.36
		c-1.24-5.2-3.22-8.94-5.95-11.24c-2.72-2.29-6.5-3.43-11.33-3.43c-4.71,0-9.35,0.25-13.93,0.74l-1.3,52.2l0.37,11.51
		c7.43,0.99,12.82,1.48,16.16,1.48C488.21,241.25,492.64,238.92,495.67,234.28"/>
	<path class="st0" d="M653.28,267.25h-37.71l-3.34-19.88l-0.18-0.55l-18.2-0.37l-15.23,0.74l-3.16,20.07h-36.4l36.4-120.18h44.95
		L653.28,267.25z M606.47,219.7l-8.17-39.38h-2.23l-10.4,39.38l10.4,0.19L606.47,219.7z"/>
	<polygon class="st0" points="742.07,149.68 740.02,176.79 715.5,175.68 713.27,175.68 712.34,228.25 713.83,267.25 676.68,267.25 
		678.54,231.96 677.61,175.68 675.2,175.68 650.49,176.79 648.26,174.19 650.31,147.08 740.02,147.08 	"/>
	<path class="st0" d="M849.42,267.25h-37.71l-3.34-19.88l-0.18-0.55l-18.2-0.37l-15.23,0.74l-3.16,20.07h-36.4l36.4-120.18h44.95
		L849.42,267.25z M802.62,219.7l-8.17-39.38h-2.23l-10.4,39.38l10.4,0.19L802.62,219.7z"/>
	<path class="st0" d="M943.05,150.05l-6.32,29.53l-2.42,1.48c-3.22-1.73-6.93-3.12-11.14-4.18c-4.21-1.05-8.11-1.58-11.7-1.58
		c-7.56,0-13.01,2.2-16.35,6.59c-3.34,4.4-5.01,11.74-5.01,22.01c0,12.01,1.92,20.77,5.76,26.28c3.84,5.51,9.85,8.26,18.02,8.26
		c3.47,0,7.34-0.34,11.61-1.02c4.27-0.68,8.02-1.64,11.24-2.88l2.97,1.86l-2.97,29.34c-7.43,2.35-16.04,3.53-25.82,3.53
		c-19.94,0-34.95-5.2-45.04-15.6c-10.09-10.4-15.14-25.57-15.14-45.51c0-20.06,5.41-35.6,16.26-46.62
		c10.83-11.02,26.16-16.54,45.97-16.54C923.6,145.03,933.63,146.7,943.05,150.05"/>
	<path class="st0" d="M1055.79,267.25h-37.71l-3.34-19.88l-0.18-0.55l-18.2-0.37l-15.23,0.74l-3.16,20.07h-36.4l36.4-120.18h44.95
		L1055.79,267.25z M1008.99,219.7l-8.17-39.38h-2.23l-10.4,39.38l10.4,0.19L1008.99,219.7z"/>
	<path class="st0" d="M1177.83,259.45l-0.56,4.08c-13.01,2.85-25.39,4.83-37.15,5.95l-4.08-2.23
		c-12.63-21.67-22.97-40.06-31.02-55.17l-0.37,16.16l1.48,39.01h-37.34l1.86-35.29l-1.86-84.89h37.89l-1.3,50.15l23.03-37.15
		l6.32-13h39.38l-35.29,56.84C1150.21,221.74,1163.22,240.26,1177.83,259.45"/>
	<polygon class="st0" points="1270.33,237.53 1272.37,240.13 1270.14,267.25 1185.44,267.25 1187.3,231.96 1185.44,147.07 
		1271.63,147.07 1273.67,149.68 1271.25,176.79 1241.72,175.68 1222.59,175.68 1222.22,192.58 1240.61,192.58 1259.93,192.03 
		1261.97,194.62 1259.74,221.74 1238.19,221.19 1221.48,221.19 1221.29,228.24 1221.66,238.65 1239.49,238.65 	"/>
</g>
</svg>
