<?xml version="1.0" encoding="utf-8"?>
<!-- Generator: Adobe Illustrator 24.0.0, SVG Export Plug-In . SVG Version: 6.00 Build 0)  -->
<svg version="1.1" id="图层_1" xmlns="http://www.w3.org/2000/svg" xmlns:xlink="http://www.w3.org/1999/xlink" x="0px" y="0px"
	 viewBox="0 0 1139.86 247.31" style="enable-background:new 0 0 1139.86 247.31;" xml:space="preserve">
<style type="text/css">
	.st0{fill:#FFFFFF;}
</style>
<g>
	<g>
		<path class="st0" d="M128.21,210.61h1.75c51.67-0.47,93.42-42.5,93.42-94.29h-27.53c0,36.87-29.89,66.77-66.77,66.77
			s-66.77-29.88-66.77-66.76H34.79C34.79,168.11,76.54,210.14,128.21,210.61"/>
		<path class="st0" d="M89.93,116.14c0-21.8,17.67-39.48,39.48-39.48c21.8,0,39.48,17.68,39.48,39.48c0,0.07-0.01,0.13-0.01,0.19
			h26.97c0-36.67-29.56-66.43-66.15-66.76h-1.24c-36.59,0.34-66.15,30.09-66.15,66.76h27.62C89.94,116.26,89.93,116.2,89.93,116.14"
			/>
		<path class="st0" d="M168.88,116.33h-26.96c-0.04,6.89-5.62,12.46-12.52,12.46c-6.9,0-12.48-5.57-12.52-12.46H89.93
			c0.11,21.71,17.74,39.29,39.48,39.29S168.78,138.05,168.88,116.33"/>
	</g>
	<g>
		<path class="st0" d="M357.42,83.58c9.48,9.59,14.21,23.43,14.21,41.51c0,21.42-5.51,37.9-16.54,49.41
			c-11.02,11.51-26.81,17.28-47.36,17.28c-12.88,0-27.99-0.55-45.32-1.67l1.86-35.29l-1.86-84.89l54.24-0.74
			C334.36,69.18,347.94,73.98,357.42,83.58 M328.07,157.13c3.03-4.64,4.55-12.29,4.55-22.94c0-9.03-0.62-16.16-1.86-21.36
			s-3.22-8.94-5.95-11.24c-2.72-2.29-6.5-3.43-11.33-3.43c-4.71,0-9.35,0.25-13.93,0.74l-1.3,52.2l0.37,11.51
			c7.43,0.99,12.82,1.48,16.16,1.48C320.61,164.1,325.04,161.77,328.07,157.13"/>
		<path class="st0" d="M485.68,190.1h-37.71l-3.34-19.88l-0.18-0.55l-18.2-0.37l-15.23,0.74l-3.16,20.07h-36.4l36.4-120.18h44.95
			L485.68,190.1z M438.87,142.55l-8.17-39.38h-2.23l-10.4,39.38l10.4,0.19L438.87,142.55z"/>
		<polygon class="st0" points="574.47,72.53 572.42,99.64 547.9,98.53 545.67,98.53 544.74,151.1 546.23,190.1 509.08,190.1 
			510.94,154.81 510.01,98.53 507.6,98.53 482.89,99.64 480.66,97.04 482.71,69.93 572.42,69.93 		"/>
		<path class="st0" d="M681.82,190.1h-37.71l-3.34-19.88l-0.18-0.55l-18.2-0.37l-15.23,0.74L604,190.11h-36.4L604,69.93h44.95
			L681.82,190.1z M635.02,142.55l-8.17-39.38h-2.23l-10.4,39.38l10.4,0.19L635.02,142.55z"/>
		<path class="st0" d="M775.45,72.9l-6.32,29.53l-2.42,1.48c-3.22-1.73-6.93-3.12-11.14-4.18c-4.21-1.05-8.11-1.58-11.7-1.58
			c-7.56,0-13.01,2.2-16.35,6.59c-3.34,4.4-5.01,11.74-5.01,22.01c0,12.01,1.92,20.77,5.76,26.28s9.85,8.26,18.02,8.26
			c3.47,0,7.34-0.34,11.61-1.02c4.27-0.68,8.02-1.64,11.24-2.88l2.97,1.86l-2.97,29.34c-7.43,2.35-16.04,3.53-25.82,3.53
			c-19.94,0-34.95-5.2-45.04-15.6c-10.09-10.4-15.14-25.57-15.14-45.51c0-20.06,5.41-35.6,16.26-46.62
			c10.83-11.02,26.16-16.54,45.97-16.54C756,67.88,766.03,69.55,775.45,72.9"/>
		<path class="st0" d="M888.19,190.1h-37.71l-3.34-19.88l-0.18-0.55l-18.2-0.37l-15.23,0.74l-3.16,20.07h-36.4l36.4-120.18h44.95
			L888.19,190.1z M841.39,142.55l-8.17-39.38h-2.23l-10.4,39.38l10.4,0.19L841.39,142.55z"/>
		<path class="st0" d="M1010.23,182.3l-0.56,4.08c-13.01,2.85-25.39,4.83-37.15,5.95l-4.08-2.23
			c-12.63-21.67-22.97-40.06-31.02-55.17l-0.37,16.16l1.48,39.01h-37.34l1.86-35.29l-1.86-84.89h37.89l-1.3,50.15l23.03-37.15
			l6.32-13h39.38l-35.29,56.84C982.61,144.59,995.62,163.11,1010.23,182.3"/>
		<polygon class="st0" points="1102.73,160.38 1104.77,162.98 1102.54,190.1 1017.84,190.1 1019.7,154.81 1017.84,69.92 
			1104.03,69.92 1106.07,72.53 1103.65,99.64 1074.12,98.53 1054.99,98.53 1054.62,115.43 1073.01,115.43 1092.33,114.88 
			1094.37,117.47 1092.14,144.59 1070.59,144.04 1053.88,144.04 1053.69,151.09 1054.06,161.5 1071.89,161.5 		"/>
	</g>
</g>
</svg>
