<?xml version="1.0" encoding="utf-8"?>
<!-- Generator: Adobe Illustrator 24.0.0, SVG Export Plug-In . SVG Version: 6.00 Build 0)  -->
<svg version="1.1" id="图层_1" xmlns="http://www.w3.org/2000/svg" xmlns:xlink="http://www.w3.org/1999/xlink" x="0px" y="0px"
	 viewBox="0 0 1299.48 215.39" style="enable-background:new 0 0 1299.48 215.39;" xml:space="preserve">
<style type="text/css">
	.st0{fill:url(#SVGID_1_);}
	.st1{fill:url(#SVGID_2_);}
	.st2{fill:url(#SVGID_3_);}
	.st3{fill:#FFFFFF;}
</style>
<g>
	
		<linearGradient id="SVGID_1_" gradientUnits="userSpaceOnUse" x1="9.0272" y1="76.5272" x2="200.88" y2="76.5272" gradientTransform="matrix(1 0 0 -1 0 170.4944)">
		<stop  offset="2.546460e-07" style="stop-color:#00CAD3"/>
		<stop  offset="1" style="stop-color:#038FFC"/>
	</linearGradient>
	<path class="st0" d="M153.23,163.87c6.34-5.24,11.29-12.13,14.71-20.48c5.87-14.36,5.21-28.16,5.17-28.75l-0.01-0.28V68.48
		l-21.58-0.28v39.61c0.95,14-2.42,25.26-10.03,33.4c-12.45,13.32-32.33,13.71-34.55,13.71h-0.32l-68.76-0.89
		c-1.7-0.02-2.78-0.03-2.83-0.03l-4.61-0.05V99.77c0-15.35,3.84-28.52,11.4-39.13c6.1-8.55,14.57-15.4,25.18-20.37
		c17.8-8.33,35.62-8.57,37.6-8.57h75.84l20.44-0.67l-25.27-18.98h-74.29c-15.9,0-31.63,3.46-45.5,10
		C34.3,32.2,8.72,53.47,9.03,97.15v78.74H122.9C135.12,174.45,145.33,170.4,153.23,163.87z"/>
	
		<linearGradient id="SVGID_2_" gradientUnits="userSpaceOnUse" x1="11.87" y1="49.3772" x2="203.2428" y2="49.3772" gradientTransform="matrix(1 0 0 -1 0 170.4944)">
		<stop  offset="2.546460e-07" style="stop-color:#10A3F0"/>
		<stop  offset="1" style="stop-color:#2851F6"/>
	</linearGradient>
	<path class="st1" d="M48.56,61.66c-8.08,9.99-12.17,22.81-12.17,38.13v48.28l1.58,0.02c6.77,0.07,18.84,0.17,22.76,0.18v-39.49
		c-0.95-14,2.42-25.27,10.03-33.4c12.45-13.32,32.33-13.7,34.55-13.7h0.31l73.44,0.95v51.76c0.06,0.88,1.32,23.65-11.78,42.83
		c-9.64,14.11-24.43,22.4-43.96,24.65l-0.15,0.01H11.87l24.85,22.66h84.72c1.13-0.1,21.36-2.07,41.23-13.2
		c27.15-15.21,40.8-39.39,40.57-71.89V37.7h-98.57c-0.61,0-5.61,0.03-12.69,1.21C78.79,41.09,60.56,46.81,48.56,61.66z"/>
	
		<linearGradient id="SVGID_3_" gradientUnits="userSpaceOnUse" x1="74.9035" y1="62.8284" x2="138.3253" y2="62.8284" gradientTransform="matrix(1 0 0 -1 0 170.4944)">
		<stop  offset="0" style="stop-color:#FD6135"/>
		<stop  offset="1" style="stop-color:#FFA021"/>
	</linearGradient>
	<path class="st2" d="M138.22,104.92l-0.36-28.16c-3.14-0.05-9.27-0.22-15.24-0.4c-6.52-0.19-12.68-0.37-14.76-0.37
		c-0.54-0.02-1.02-0.03-1.45-0.03c-0.29,0-0.56,0-0.83,0.01c-16.66,0.53-30.13,14-30.66,30.66c-0.28,8.87,3.01,17.2,9.27,23.46
		c6.26,6.26,14.59,9.56,23.47,9.27c16.22-0.52,29.66-13.62,30.61-29.82l0.04-0.76c0-0.03,0-0.05,0-0.08c0.04-1.2,0-2.44-0.1-3.7
		L138.22,104.92z"/>
</g>
<g>
	<path class="st3" d="M311.36,58.67c6.26,0,12.04,1.54,17.33,4.62c5.29,3.08,9.48,7.27,12.57,12.57c3.08,5.3,4.62,11.07,4.62,17.33
		v30.34c0,6.26-1.54,12.04-4.62,17.33c-3.09,5.3-7.27,9.49-12.57,12.57c-5.3,3.08-11.07,4.62-17.33,4.62h-60.81V58.67L311.36,58.67
		L311.36,58.67z M313.17,139.93c2.94-1.68,5.25-4,6.93-6.93c1.68-2.94,2.53-6.09,2.53-9.46V93.2c0-3.46-0.84-6.67-2.53-9.61
		s-4-5.25-6.93-6.93c-2.94-1.68-6.09-2.53-9.46-2.53h-30.05v68.32h30.05C307.07,142.45,310.23,141.61,313.17,139.93"/>
	<polygon class="st3" points="439.63,158.06 407.85,82.65 382.43,142.6 410.88,142.6 418.11,158.06 352.82,158.06 395,58.67 
		420.56,58.67 462.74,158.06 	"/>
	<polygon class="st3" points="651.6,158.06 619.82,82.65 594.4,142.6 622.85,142.6 630.07,158.06 564.78,158.06 606.96,58.67 
		632.53,58.67 674.71,158.06 	"/>
	<polygon class="st3" points="560.82,58.53 560.82,74.13 524.71,74.13 524.71,158.05 501.45,158.05 501.45,74.13 465.34,74.13 
		465.34,58.53 	"/>
	<path class="st3" d="M819.49,103.89c4.43,2.6,7.94,6.12,10.54,10.55c2.6,4.43,3.9,9.29,3.9,14.59c0,5.3-1.3,10.16-3.9,14.59
		c-2.6,4.43-6.12,7.94-10.54,10.55c-4.43,2.6-9.25,3.9-14.45,3.9h-62.4v-15.6h54.6c3.76,0,6.96-1.3,9.6-3.9
		c2.65-2.6,3.97-5.78,3.97-9.54c0-3.75-1.32-6.93-3.97-9.53c-2.65-2.6-5.85-3.9-9.6-3.9h-30.19c-5.2,0-9.97-1.28-14.3-3.83
		c-4.34-2.55-7.78-6.02-10.33-10.4c-2.55-4.38-3.83-9.12-3.83-14.23c0-5.2,1.27-9.97,3.83-14.3c2.55-4.33,5.99-7.78,10.33-10.33
		c4.33-2.55,9.1-3.83,14.3-3.83h61.1v15.46h-53.44c-3.56,0-6.62,1.28-9.17,3.83s-3.83,5.61-3.83,9.17s1.27,6.6,3.83,9.1
		c2.55,2.51,5.61,3.76,9.17,3.76h30.33C810.25,99.99,815.06,101.29,819.49,103.89"/>
	<polygon class="st3" points="935.92,58.53 935.92,74.13 899.8,74.13 899.8,158.05 876.55,158.05 876.55,74.13 840.43,74.13 
		840.43,58.53 	"/>
	<path class="st3" d="M966.68,58.67v72.23c0,3.18,1.13,5.9,3.39,8.16c2.26,2.26,5.03,3.39,8.31,3.39h25.57
		c3.27,0,6.04-1.13,8.3-3.39s3.4-4.98,3.4-8.16V58.67h23.25v76.7c0,4.05-1.04,7.8-3.11,11.27s-4.84,6.24-8.31,8.31
		c-3.47,2.07-7.22,3.11-11.27,3.11h-50.12c-4.14,0-7.95-1.01-11.41-3.03c-3.47-2.02-6.21-4.79-8.23-8.31
		c-2.02-3.51-3.03-7.29-3.03-11.34v-76.7L966.68,58.67L966.68,58.67z"/>
	<path class="st3" d="M1111.57,58.67c6.26,0,12.04,1.54,17.33,4.62c5.29,3.08,9.48,7.27,12.57,12.57c3.08,5.3,4.62,11.07,4.62,17.33
		v30.34c0,6.26-1.54,12.04-4.62,17.33c-3.09,5.3-7.27,9.49-12.57,12.57c-5.3,3.08-11.07,4.62-17.33,4.62h-60.81V58.67L1111.57,58.67
		L1111.57,58.67z M1113.37,139.93c2.94-1.68,5.25-4,6.93-6.93c1.68-2.94,2.53-6.09,2.53-9.46V93.2c0-3.46-0.84-6.67-2.53-9.61
		c-1.69-2.94-4-5.25-6.93-6.93c-2.94-1.68-6.09-2.53-9.46-2.53h-30.05v68.32h30.05C1107.28,142.45,1110.43,141.61,1113.37,139.93"/>
	<rect x="1158.8" y="58.53" class="st3" width="23.11" height="99.52"/>
	<path class="st3" d="M1197.66,69.94c2.02-3.47,4.76-6.21,8.23-8.23c3.47-2.02,7.22-3.03,11.27-3.03h50.12
		c4.14,0,7.94,1.01,11.41,3.03c3.46,2.02,6.21,4.77,8.23,8.23c2.02,3.47,3.03,7.22,3.03,11.27v54.17c0,4.04-1.01,7.82-3.03,11.34
		c-2.02,3.52-4.77,6.28-8.23,8.3c-3.47,2.02-7.27,3.03-11.41,3.03h-50.12c-4.04,0-7.8-1.03-11.27-3.11
		c-3.47-2.07-6.21-4.84-8.23-8.31s-3.03-7.22-3.03-11.27V81.19C1194.62,77.16,1195.64,73.41,1197.66,69.94 M1263.31,139.06
		c2.26-2.26,3.39-4.98,3.39-8.16V85.83c0-3.27-1.13-6.04-3.39-8.31c-2.26-2.26-4.98-3.39-8.16-3.39h-25.71
		c-3.28,0-6.05,1.13-8.31,3.39s-3.39,5.03-3.39,8.31v45.07c0,3.18,1.13,5.9,3.39,8.16c2.26,2.26,5.03,3.39,8.31,3.39h25.71
		C1258.33,142.45,1261.04,141.32,1263.31,139.06"/>
</g>
</svg>
