<?xml version="1.0" encoding="utf-8"?>
<!-- Generator: Adobe Illustrator 24.0.0, SVG Export Plug-In . SVG Version: 6.00 Build 0)  -->
<svg version="1.1" id="图层_1" xmlns="http://www.w3.org/2000/svg" xmlns:xlink="http://www.w3.org/1999/xlink" x="0px" y="0px"
	 viewBox="0 0 1299.48 375.01" style="enable-background:new 0 0 1299.48 375.01;" xml:space="preserve">
<style type="text/css">
	.st0{fill:#FFFFFF;}
</style>
<g>
	<path class="st0" d="M153.23,267.62c6.34-5.24,11.29-12.13,14.71-20.48c5.87-14.36,5.21-28.16,5.17-28.75l-0.01-0.28v-45.88
		l-21.58-0.28v39.61c0.95,14-2.42,25.26-10.03,33.4c-12.45,13.32-32.33,13.71-34.55,13.71l-0.32,0l-68.76-0.89
		c-1.7-0.02-2.78-0.03-2.83-0.03l-4.61-0.05v-54.18c0-15.35,3.84-28.52,11.4-39.13c6.1-8.55,14.57-15.4,25.18-20.37
		c17.8-8.33,35.62-8.57,37.6-8.57h75.84l20.44-0.67l-25.27-18.98h-74.29c-15.9,0-31.63,3.46-45.5,10
		c-21.52,10.15-47.1,31.42-46.79,75.1v78.74H122.9C135.12,278.2,145.33,274.15,153.23,267.62z"/>
	<path class="st0" d="M48.56,165.41c-8.08,9.99-12.17,22.81-12.17,38.13v48.28l1.58,0.02c6.77,0.07,18.84,0.17,22.76,0.18v-39.49
		c-0.95-14,2.42-25.27,10.03-33.4c12.45-13.32,32.33-13.7,34.55-13.7l0.31,0l73.44,0.95v51.76c0.06,0.88,1.32,23.65-11.78,42.83
		c-9.64,14.11-24.43,22.4-43.96,24.65l-0.15,0.01H11.87l24.85,22.66h84.72c1.13-0.1,21.36-2.07,41.23-13.2
		c27.15-15.21,40.8-39.39,40.57-71.89v-81.75h-98.57c-0.61,0-5.61,0.03-12.69,1.21C78.79,144.84,60.56,150.56,48.56,165.41z"/>
	<path class="st0" d="M138.22,208.67l-0.36-28.16c-3.14-0.05-9.27-0.22-15.24-0.4c-6.52-0.19-12.68-0.37-14.76-0.37
		c-0.54-0.02-1.02-0.03-1.45-0.03c-0.29,0-0.56,0-0.83,0.01c-16.66,0.53-30.13,14-30.66,30.66c-0.28,8.87,3.01,17.2,9.27,23.46
		s14.59,9.56,23.47,9.27c16.22-0.52,29.66-13.62,30.61-29.82l0.04-0.76c0-0.03,0-0.05,0-0.08c0.04-1.2,0-2.44-0.1-3.7L138.22,208.67
		z"/>
</g>
<g>
	<path class="st0" d="M311.36,162.42c6.26,0,12.04,1.54,17.33,4.62c5.29,3.08,9.48,7.27,12.57,12.57c3.08,5.3,4.62,11.07,4.62,17.33
		v30.34c0,6.26-1.54,12.04-4.62,17.33c-3.09,5.3-7.27,9.49-12.57,12.57c-5.3,3.08-11.07,4.62-17.33,4.62h-60.81v-99.38H311.36z
		 M313.17,243.68c2.94-1.68,5.25-4,6.93-6.93c1.68-2.94,2.53-6.09,2.53-9.46v-30.34c0-3.46-0.84-6.67-2.53-9.61
		c-1.69-2.94-4-5.25-6.93-6.93c-2.94-1.68-6.09-2.53-9.46-2.53h-30.05v68.32h30.05C307.07,246.2,310.23,245.36,313.17,243.68"/>
	<polygon class="st0" points="439.63,261.81 407.85,186.4 382.43,246.35 410.88,246.35 418.11,261.81 352.82,261.81 395,162.42 
		420.56,162.42 462.74,261.81 	"/>
	<polygon class="st0" points="651.6,261.81 619.82,186.4 594.4,246.35 622.85,246.35 630.07,261.81 564.78,261.81 606.96,162.42 
		632.53,162.42 674.71,261.81 	"/>
	<polygon class="st0" points="560.82,162.28 560.82,177.88 524.71,177.88 524.71,261.8 501.45,261.8 501.45,177.88 465.34,177.88 
		465.34,162.28 	"/>
	<path class="st0" d="M819.49,207.64c4.43,2.6,7.94,6.12,10.54,10.55c2.6,4.43,3.9,9.29,3.9,14.59c0,5.3-1.3,10.16-3.9,14.59
		c-2.6,4.43-6.12,7.94-10.54,10.55c-4.43,2.6-9.25,3.9-14.45,3.9h-62.4v-15.6h54.6c3.76,0,6.96-1.3,9.6-3.9
		c2.65-2.6,3.97-5.78,3.97-9.54c0-3.75-1.32-6.93-3.97-9.53c-2.65-2.6-5.85-3.9-9.6-3.9h-30.19c-5.2,0-9.97-1.28-14.3-3.83
		c-4.34-2.55-7.78-6.02-10.33-10.4c-2.55-4.38-3.83-9.12-3.83-14.23c0-5.2,1.27-9.97,3.83-14.3c2.55-4.33,5.99-7.78,10.33-10.33
		c4.33-2.55,9.1-3.83,14.3-3.83h61.1v15.46h-53.44c-3.56,0-6.62,1.28-9.17,3.83c-2.55,2.55-3.83,5.61-3.83,9.17
		c0,3.56,1.27,6.6,3.83,9.1c2.55,2.51,5.61,3.76,9.17,3.76h30.33C810.25,203.74,815.06,205.04,819.49,207.64"/>
	<polygon class="st0" points="935.92,162.28 935.92,177.88 899.8,177.88 899.8,261.8 876.55,261.8 876.55,177.88 840.43,177.88 
		840.43,162.28 	"/>
	<path class="st0" d="M966.68,162.42v72.23c0,3.18,1.13,5.9,3.39,8.16c2.26,2.26,5.03,3.39,8.31,3.39h25.57
		c3.27,0,6.04-1.13,8.3-3.39c2.26-2.26,3.4-4.98,3.4-8.16v-72.23h23.25v76.7c0,4.05-1.04,7.8-3.11,11.27
		c-2.07,3.47-4.84,6.24-8.31,8.31c-3.47,2.07-7.22,3.11-11.27,3.11h-50.12c-4.14,0-7.95-1.01-11.41-3.03
		c-3.47-2.02-6.21-4.79-8.23-8.31c-2.02-3.51-3.03-7.29-3.03-11.34v-76.7H966.68z"/>
	<path class="st0" d="M1111.57,162.42c6.26,0,12.04,1.54,17.33,4.62c5.29,3.08,9.48,7.27,12.57,12.57
		c3.08,5.3,4.62,11.07,4.62,17.33v30.34c0,6.26-1.54,12.04-4.62,17.33c-3.09,5.3-7.27,9.49-12.57,12.57
		c-5.3,3.08-11.07,4.62-17.33,4.62h-60.81v-99.38H1111.57z M1113.37,243.68c2.94-1.68,5.25-4,6.93-6.93
		c1.68-2.94,2.53-6.09,2.53-9.46v-30.34c0-3.46-0.84-6.67-2.53-9.61c-1.69-2.94-4-5.25-6.93-6.93c-2.94-1.68-6.09-2.53-9.46-2.53
		h-30.05v68.32h30.05C1107.28,246.2,1110.43,245.36,1113.37,243.68"/>
	<rect x="1158.8" y="162.28" class="st0" width="23.11" height="99.52"/>
	<path class="st0" d="M1197.66,173.69c2.02-3.47,4.76-6.21,8.23-8.23c3.47-2.02,7.22-3.03,11.27-3.03h50.12
		c4.14,0,7.94,1.01,11.41,3.03c3.46,2.02,6.21,4.77,8.23,8.23c2.02,3.47,3.03,7.22,3.03,11.27v54.17c0,4.04-1.01,7.82-3.03,11.34
		c-2.02,3.52-4.77,6.28-8.23,8.3c-3.47,2.02-7.27,3.03-11.41,3.03h-50.12c-4.04,0-7.8-1.03-11.27-3.11
		c-3.47-2.07-6.21-4.84-8.23-8.31c-2.02-3.47-3.03-7.22-3.03-11.27v-54.17C1194.62,180.91,1195.64,177.16,1197.66,173.69
		 M1263.31,242.81c2.26-2.26,3.39-4.98,3.39-8.16v-45.07c0-3.27-1.13-6.04-3.39-8.31c-2.26-2.26-4.98-3.39-8.16-3.39h-25.71
		c-3.28,0-6.05,1.13-8.31,3.39c-2.26,2.26-3.39,5.03-3.39,8.31v45.07c0,3.18,1.13,5.9,3.39,8.16c2.26,2.26,5.03,3.39,8.31,3.39
		h25.71C1258.33,246.2,1261.04,245.07,1263.31,242.81"/>
</g>
</svg>
