<svg id="Layer_1" data-name="Layer 1" xmlns="http://www.w3.org/2000/svg" viewBox="0 0 600 450"><defs><style>.cls-1{opacity:0.15;}.cls-2{fill:#a7a9ac;}.cls-3{fill:#3dba85;}.cls-4{fill:#359366;}.cls-17,.cls-5{fill:#fff;}.cls-26,.cls-5{opacity:0.5;}.cls-6{fill:#bcbec0;}.cls-7{fill:#939598;}.cls-8{fill:#babfc5;}.cls-9{fill:#f13624;}.cls-10{fill:#c92820;}.cls-11{fill:#0562e8;}.cls-12,.cls-13,.cls-15,.cls-25,.cls-31{fill:none;stroke-miterlimit:10;}.cls-12{stroke:#d87b16;}.cls-12,.cls-13{stroke-linecap:round;stroke-width:2px;}.cls-13{stroke:#359366;}.cls-14,.cls-26{fill:#d1d3d4;}.cls-15{stroke:#F99316;}.cls-16{fill:#F99316;}.cls-18{fill:#f1f2f2;}.cls-19{fill:#5294f3;}.cls-20{fill:#4c9aff;}.cls-21{fill:#0951ba;}.cls-22{fill:#144a7f;}.cls-23{fill:#e6e7e8;}.cls-24{fill:#d87b16;}.cls-25{stroke:#bcbec0;}.cls-27{fill:#808285;}.cls-28{fill:#f9b76e;}.cls-29{fill:#e4e4e4;}.cls-30{fill:#fefefe;}.cls-31{stroke:#0562e8;stroke-dasharray:3.95 3.75;}</style></defs><title>Readiness Assessment Main Illustrations</title><g class="cls-1"><path class="cls-2" d="M107,298.41v-47a12.2,12.2,0,0,0-12.2-12.21h0A12.21,12.21,0,0,1,82.56,227V209.13a12.21,12.21,0,0,1,12.21-12.2h0A12.21,12.21,0,0,0,107,184.72V154.57a12.2,12.2,0,0,0-12.2-12.2H64.67a12.21,12.21,0,0,1-12.21-12.21V95.84a12.2,12.2,0,0,1,12.21-12.2h62.85a12.21,12.21,0,0,1,12.21,12.2v8.45a12.2,12.2,0,0,0,12.2,12.2H406.08a12.21,12.21,0,0,0,12.21-12.2V88.88a12.21,12.21,0,0,1,12.2-12.21H542.28a12.21,12.21,0,0,1,12.21,12.21v37.31a12.21,12.21,0,0,1-12.21,12.21h-65A12.21,12.21,0,0,0,465,150.6v28.48a12.21,12.21,0,0,0,12.21,12.21h37.09a12.2,12.2,0,0,1,12.2,12.2v34.83a12.2,12.2,0,0,1-12.2,12.2H477.23A12.21,12.21,0,0,0,465,262.73v48.62a12.21,12.21,0,0,0,12.21,12.2h37.09a12.21,12.21,0,0,1,12.2,12.21v34.33a12.2,12.2,0,0,1-12.2,12.2H226.94a12.2,12.2,0,0,1-12.21-12.2V349.7a12.2,12.2,0,0,0-12.2-12.21H155.71A12.21,12.21,0,0,0,143.5,349.7v8.44a12.2,12.2,0,0,1-12.2,12.2H55.71a12.21,12.21,0,0,1-12.21-12.2V322.82a12.21,12.21,0,0,1,12.21-12.21H94.77A12.2,12.2,0,0,0,107,298.41Z"/></g><polygon class="cls-3" points="448.8 146.55 448.8 172 424.11 172 424.11 139.31 441.56 139.31 441.55 139.32 448.79 146.56 448.8 146.55"/><polygon class="cls-4" points="441.55 146.56 441.55 139.32 441.56 139.31 448.8 146.55 448.79 146.56 441.55 146.56"/><polygon class="cls-5" points="430.64 155.65 427.25 155.65 425.55 158.59 427.25 161.53 430.64 161.53 432.34 158.59 430.64 155.65"/><polygon class="cls-5" points="433.29 156.96 431.4 156.96 430.45 158.59 431.4 160.23 433.29 160.23 434.23 158.59 433.29 156.96"/><polygon class="cls-5" points="438.35 158.59 437.4 160.23 436.45 158.59 437.4 156.96 438.35 158.59"/><polygon class="cls-5" points="439.29 156.96 437.4 156.96 436.45 158.59 437.4 160.23 439.29 160.23 440.24 158.59 439.29 156.96"/><polygon class="cls-5" points="444.61 158.59 443.66 160.23 442.72 158.59 443.66 156.96 444.61 158.59"/><polygon class="cls-5" points="445.56 156.96 443.66 156.96 442.72 158.59 443.66 160.23 445.56 160.23 446.5 158.59 445.56 156.96"/><polygon class="cls-6" points="289.08 343.33 288.76 367.93 264.9 367.62 265.3 336.03 282.17 336.24 282.17 336.25 289.07 343.33 289.08 343.33"/><polygon class="cls-7" points="282.07 343.25 282.17 336.25 282.17 336.24 289.08 343.33 289.07 343.33 282.07 343.25"/><polygon class="cls-5" points="271.42 351.9 268.13 351.86 266.46 354.69 268.06 357.55 271.34 357.59 273.02 354.77 271.42 351.9"/><polygon class="cls-5" points="273.96 353.2 272.13 353.17 271.19 354.75 272.09 356.34 273.92 356.36 274.85 354.79 273.96 353.2"/><polygon class="cls-5" points="278.83 354.84 277.89 356.42 277 354.82 277.93 353.25 278.83 354.84"/><polygon class="cls-5" points="279.76 353.27 277.93 353.25 277 354.82 277.89 356.42 279.72 356.44 280.65 354.87 279.76 353.27"/><polygon class="cls-5" points="284.88 354.92 283.95 356.49 283.05 354.9 283.99 353.33 284.88 354.92"/><polygon class="cls-5" points="285.81 353.35 283.99 353.32 283.05 354.9 283.95 356.49 285.77 356.52 286.71 354.94 285.81 353.35"/><polygon class="cls-8" points="194.87 317.93 192.46 317.93 191.7 310.25 192.21 307.15 195.12 307.15 195.63 310.25 194.87 317.93"/><polygon class="cls-8" points="192.46 326.86 194.87 326.86 195.63 334.53 195.12 337.63 192.21 337.63 191.7 334.53 192.46 326.86"/><polygon class="cls-8" points="198.13 323.6 198.13 321.19 205.8 320.43 208.9 320.94 208.9 323.85 205.8 324.36 198.13 323.6"/><polygon class="cls-8" points="189.2 321.19 189.2 323.6 181.52 324.36 178.42 323.85 178.42 320.94 181.52 320.43 189.2 321.19"/><polygon class="cls-8" points="369.46 153.49 367.05 153.49 366.29 145.82 366.8 142.72 369.71 142.72 370.22 145.82 369.46 153.49"/><polygon class="cls-8" points="367.05 162.42 369.46 162.42 370.22 170.1 369.71 173.2 366.8 173.2 366.29 170.1 367.05 162.42"/><polygon class="cls-8" points="372.72 159.16 372.72 156.75 380.39 155.99 383.49 156.5 383.49 159.42 380.39 159.92 372.72 159.16"/><polygon class="cls-8" points="363.79 156.75 363.79 159.16 356.11 159.92 353.01 159.42 353.01 156.5 356.11 155.99 363.79 156.75"/><path class="cls-9" d="M390.74,32.53a1.63,1.63,0,0,1-.68,2.2l-2.85,1.5A13.23,13.23,0,0,0,370,30.64l-1.34-2.56a1.63,1.63,0,0,1,.68-2.2,15.87,15.87,0,0,1,21.36,6.65Z"/><path class="cls-10" d="M387.21,36.23l-9.72,5.1a1.64,1.64,0,0,1-2.2-.69l-5.25-10a13.23,13.23,0,0,1,17.17,5.59Z"/><path class="cls-3" d="M130.76,227.47a2.09,2.09,0,0,1,2.91.56l2.32,3.41a17,17,0,0,0-4.64,22.7l-3.07,2.09a2.11,2.11,0,0,1-2.91-.56,20.36,20.36,0,0,1,5.39-28.2Z"/><path class="cls-4" d="M136,231.44l7.91,11.65a2.1,2.1,0,0,1-.56,2.91l-12,8.14a17,17,0,0,1,4.64-22.7Z"/><polygon class="cls-11" points="41.4 61.69 39.32 61.69 38.67 56.32 39.1 54.16 41.62 54.16 42.05 56.32 41.4 61.69"/><polygon class="cls-11" points="39.32 67.93 41.4 67.93 42.05 73.29 41.62 75.46 39.1 75.46 38.67 73.29 39.32 67.93"/><polygon class="cls-11" points="44.2 65.65 44.2 63.97 50.81 63.43 53.47 63.79 53.47 65.83 50.81 66.18 44.2 65.65"/><polygon class="cls-11" points="36.52 63.97 36.52 65.65 29.91 66.18 27.25 65.83 27.25 63.79 29.91 63.43 36.52 63.97"/><line class="cls-12" x1="293.15" y1="296.95" x2="293.15" y2="282.09"/><line class="cls-13" x1="278.38" y1="293" x2="278.38" y2="278.14"/><path class="cls-14" d="M92.51,175.34a9.13,9.13,0,0,0,9.13,9.13h39.58v0a8.28,8.28,0,1,0,0-16.56H141a9.59,9.59,0,0,0-12.19-5.78,15.33,15.33,0,0,0-29.7,4.48A9.12,9.12,0,0,0,92.51,175.34Z"/><path class="cls-3" d="M149.51,178.83a8.29,8.29,0,0,1-8.29,8.28v0H101.64A9.12,9.12,0,0,1,92.51,178a8.45,8.45,0,0,1,.1-1.34,9.13,9.13,0,0,0,9,7.78h39.58v0a8.25,8.25,0,0,0,8.29-8Z"/><path class="cls-15" d="M151.27,163.41c2.39-4.64,6.22-13.78,4.76-22.67-1.33-8.11-7.06-16-22.31-20.11"/><path class="cls-16" d="M154.62,165.06a3.76,3.76,0,1,1-1.45-5.11A3.75,3.75,0,0,1,154.62,165.06Z"/><path class="cls-15" d="M82,178.79c-9.59-1.43-34.2-8-17.73-36.5"/><path class="cls-16" d="M82.28,175a3.76,3.76,0,1,1-4.19,3.26A3.74,3.74,0,0,1,82.28,175Z"/><circle class="cls-17" cx="114.27" cy="167.09" r="12.64"/><circle class="cls-3" cx="114.27" cy="167.09" r="6.74"/><path class="cls-14" d="M22.05,117.17a17.36,17.36,0,0,0,17.36,17.36h75.32v-.05a15.75,15.75,0,0,0,0-31.5h-.47A18.23,18.23,0,0,0,97.13,91a18,18,0,0,0-6.07,1,29.16,29.16,0,0,0-56.5,8.51A17.34,17.34,0,0,0,22.05,117.17Z"/><path class="cls-11" d="M130.48,123.8a15.76,15.76,0,0,1-15.75,15.76v0H39.41A17.37,17.37,0,0,1,22,122.24a17.79,17.79,0,0,1,.19-2.55A17.38,17.38,0,0,0,39.41,134.5h75.32v-.05c7.83,0,15-5.59,15.75-15.14Z"/><circle class="cls-17" cx="62.61" cy="97.96" r="17.14"/><circle class="cls-11" cx="62.61" cy="97.96" r="9.14"/><path class="cls-14" d="M165.53,238.3a38.91,38.91,0,0,0,38.91,38.9H373.23v-.09a35.31,35.31,0,0,0,0-70.61h-1.05a40.83,40.83,0,0,0-52-24.62A65.35,65.35,0,0,0,193.58,201,38.89,38.89,0,0,0,165.53,238.3Z"/><path class="cls-11" d="M408.54,253.16a35.32,35.32,0,0,1-35.31,35.31v.09H204.44a38.91,38.91,0,0,1-38.91-38.9A39.62,39.62,0,0,1,166,244a38.91,38.91,0,0,0,38.49,33.17H373.23V277c17.54,0,33.65-12.53,35.31-33.94Z"/><rect class="cls-18" x="221.22" y="205.04" width="62.39" height="62.39"/><polygon class="cls-2" points="221.22 267.43 194.13 240.01 194.13 177.63 221.22 205.04 221.22 267.43"/><path class="cls-11" d="M281,219.7a11.53,11.53,0,0,1,2.58.3V204.85H277c-.45,1.29-.91,2.57-1.39,3.85a1.29,1.29,0,0,1-.65.63c-1.59.69-3.19,1.33-4.78,2a1,1,0,0,1-.93,0c-1.64-.81-3.29-1.56-4.93-2.37a.75.75,0,0,0-1.08.16q-1.9,2-3.87,3.87a.69.69,0,0,0-.16,1c.81,1.65,1.57,3.33,2.38,5a1,1,0,0,1,0,1c-.68,1.54-1.34,3.08-1.93,4.65a1.18,1.18,0,0,1-.79.8c-1.72.59-3.43,1.22-5.15,1.82a.61.61,0,0,0-.5.71q0,2.84,0,5.67c0,.41.12.57.51.71,1.77.59,3.53,1.23,5.27,1.88a1.21,1.21,0,0,1,.58.62c.7,1.6,1.38,3.22,2,4.85a1.13,1.13,0,0,1,0,.83c-.76,1.68-1.54,3.35-2.36,5a.78.78,0,0,0,.19,1.09c1.31,1.26,2.6,2.56,3.87,3.87a.68.68,0,0,0,.93.15c1.67-.82,3.37-1.59,5-2.42a.94.94,0,0,1,.92,0c1.56.69,3.13,1.36,4.72,2a1.11,1.11,0,0,1,.76.74c.65,1.89,1.33,3.77,2,5.66h5.92v-17a11,11,0,0,1-2.57.3,11.1,11.1,0,0,1,0-22.2Z"/><path class="cls-6" d="M245.69,233.74h-2.13l-.63-1.78a.34.34,0,0,0-.24-.24c-.5-.19-1-.4-1.49-.62a.33.33,0,0,0-.29,0l-1.59.77a.21.21,0,0,1-.29-.05l-1.22-1.22a.23.23,0,0,1-.06-.34c.26-.52.5-1.05.74-1.58a.36.36,0,0,0,0-.27c-.21-.51-.42-1-.64-1.52a.39.39,0,0,0-.18-.2c-.56-.21-1.11-.4-1.67-.59a.2.2,0,0,1-.16-.23c0-.59,0-1.19,0-1.79a.19.19,0,0,1,.16-.22l1.62-.57a.37.37,0,0,0,.25-.25c.19-.5.4-1,.61-1.47a.31.31,0,0,0,0-.31c-.25-.53-.49-1.06-.75-1.58a.22.22,0,0,1,0-.31c.41-.4.82-.8,1.22-1.22a.25.25,0,0,1,.35,0c.51.26,1,.5,1.55.75a.3.3,0,0,0,.29,0l1.51-.64a.43.43,0,0,0,.21-.19c.22-.6.43-1.2.64-1.81h2.13l.63,1.79a.35.35,0,0,0,.24.23c.5.19,1,.41,1.49.61a.37.37,0,0,0,.29,0l1.59-.75a.21.21,0,0,1,.29,0c.41.42.82.83,1.24,1.23a.22.22,0,0,1,0,.31c-.26.53-.51,1.06-.75,1.6a.3.3,0,0,0,0,.26q.3.76.63,1.53a.35.35,0,0,0,.19.19c.55.21,1.1.41,1.66.6a.19.19,0,0,1,.16.22c0,.6,0,1.2,0,1.79a.2.2,0,0,1-.16.23c-.55.18-1.1.39-1.64.58a.31.31,0,0,0-.22.22c-.2.51-.42,1-.62,1.51a.32.32,0,0,0,0,.27c.24.53.49,1.07.75,1.59a.22.22,0,0,1,0,.31c-.42.41-.83.82-1.24,1.24a.21.21,0,0,1-.29.05l-1.59-.76a.3.3,0,0,0-.29,0l-1.51.64a.43.43,0,0,0-.2.2C246.11,232.54,245.9,233.14,245.69,233.74Zm2.44-8.77a3.51,3.51,0,1,0-3.51,3.5A3.5,3.5,0,0,0,248.13,225Z"/><path class="cls-11" d="M237.38,238.36c-.72-.24-1.43-.49-2.14-.76a.51.51,0,0,1-.25-.25c-.28-.65-.56-1.32-.81-2a.45.45,0,0,1,0-.34c.32-.69.64-1.38,1-2.06a.29.29,0,0,0-.07-.4c-.54-.53-1.08-1.06-1.59-1.59a.29.29,0,0,0-.38-.08c-.69.33-1.38.67-2.06,1a.59.59,0,0,1-.37,0c-.66-.26-1.29-.54-1.94-.79a.47.47,0,0,1-.3-.31c-.27-.76-.54-1.52-.81-2.3h-2.76c-.28.79-.54,1.56-.83,2.33a.57.57,0,0,1-.27.26l-1.95.82a.42.42,0,0,1-.38,0,1.06,1.06,0,0,1-.21-.11v16.06l.22-.11a.39.39,0,0,1,.38,0c.64.28,1.27.56,1.93.8a.47.47,0,0,1,.3.31c.27.77.55,1.53.81,2.3h2.76c.27-.78.54-1.56.82-2.33a.59.59,0,0,1,.27-.25c.65-.28,1.3-.54,1.95-.83a.39.39,0,0,1,.38,0l2.06,1a.29.29,0,0,0,.38-.07c.51-.54,1.05-1.07,1.59-1.6a.29.29,0,0,0,.07-.4c-.34-.67-.66-1.36-1-2.06a.45.45,0,0,1,0-.34c.25-.65.54-1.3.79-1.95a.44.44,0,0,1,.29-.29c.71-.25,1.41-.51,2.12-.75a.26.26,0,0,0,.21-.3q0-1.14,0-2.31A.26.26,0,0,0,237.38,238.36Zm-11.15,6a4.53,4.53,0,1,1,4.54-4.54A4.52,4.52,0,0,1,226.23,244.34Z"/><path class="cls-3" d="M235.63,214.74c-.71-.24-1.43-.49-2.14-.76a.44.44,0,0,1-.25-.25c-.28-.66-.56-1.31-.82-2a.5.5,0,0,1,0-.34c.31-.69.64-1.38,1-2.07.08-.16.06-.25-.08-.39-.53-.52-1.07-1.06-1.59-1.6-.13-.12-.22-.15-.37-.06-.69.33-1.38.66-2.07,1a.5.5,0,0,1-.36,0c-.66-.26-1.29-.54-1.94-.79a.43.43,0,0,1-.3-.3l-.82-2.31h-2.75c-.28.78-.55,1.56-.84,2.33a.49.49,0,0,1-.27.26c-.25.11-.51.23-.78.32v5.3a4.46,4.46,0,0,1,3.26-1.39,4.53,4.53,0,1,1-3.26,7.65v5.29c.26.11.52.22.77.31a.45.45,0,0,1,.3.3c.27.78.55,1.54.82,2.32h2.75c.27-.79.55-1.56.83-2.34a.53.53,0,0,1,.27-.26c.65-.28,1.3-.53,1.95-.82a.35.35,0,0,1,.37,0l2.07,1c.15.09.24.07.37-.06.52-.54,1.06-1.07,1.59-1.59a.3.3,0,0,0,.08-.41c-.34-.68-.67-1.36-1-2.05a.53.53,0,0,1,0-.35c.26-.65.55-1.3.8-1.95a.44.44,0,0,1,.29-.29c.71-.25,1.41-.51,2.12-.75a.26.26,0,0,0,.21-.29c0-.77,0-1.54,0-2.32A.26.26,0,0,0,235.63,214.74Z"/><path class="cls-11" d="M256.86,205.47a.46.46,0,0,1,.29-.29l.94-.33h-5.84a4.54,4.54,0,0,1-8.25,0h-5.84l1,.34a.51.51,0,0,1,.24.26c.29.66.56,1.31.83,2a.47.47,0,0,1,0,.33c-.31.69-.64,1.37-1,2.05a.31.31,0,0,0,.07.44c.54.51,1.07,1,1.59,1.58a.26.26,0,0,0,.37.06c.69-.33,1.38-.65,2.07-1a.38.38,0,0,1,.37,0c.64.28,1.27.56,1.93.81a.45.45,0,0,1,.3.3c.27.76.55,1.54.81,2.3h2.76c.27-.77.53-1.56.83-2.33a.53.53,0,0,1,.26-.25c.65-.29,1.3-.55,2-.83a.42.42,0,0,1,.38,0c.68.34,1.37.66,2.06,1a.28.28,0,0,0,.38-.06c.51-.55,1.05-1.08,1.59-1.6a.29.29,0,0,0,.07-.4c-.34-.68-.66-1.37-1-2.07a.41.41,0,0,1,0-.34C256.32,206.77,256.61,206.13,256.86,205.47Z"/><path class="cls-3" d="M248.66,267.63h-3.28c-.32-.92-.66-1.83-1-2.75a.54.54,0,0,0-.37-.36c-.77-.3-1.53-.62-2.29-1a.45.45,0,0,0-.45,0l-2.45,1.17a.33.33,0,0,1-.45-.07c-.62-.64-1.25-1.27-1.89-1.88a.39.39,0,0,1-.09-.53c.4-.8.78-1.61,1.15-2.43a.58.58,0,0,0,0-.41c-.32-.79-.64-1.57-1-2.35a.57.57,0,0,0-.29-.3c-.84-.32-1.7-.63-2.56-.92a.3.3,0,0,1-.25-.34q0-1.38,0-2.76a.32.32,0,0,1,.25-.35c.84-.28,1.66-.59,2.5-.88a.55.55,0,0,0,.38-.39c.29-.76.61-1.51.95-2.26a.51.51,0,0,0,0-.48c-.39-.8-.77-1.62-1.16-2.42a.34.34,0,0,1,.08-.48c.64-.61,1.26-1.24,1.88-1.88a.37.37,0,0,1,.53-.08c.79.4,1.6.76,2.39,1.15a.48.48,0,0,0,.45,0c.77-.34,1.55-.65,2.32-1a.61.61,0,0,0,.32-.31c.35-.92.67-1.85,1-2.78h3.28c.32.92.65,1.84,1,2.75a.54.54,0,0,0,.37.36c.77.3,1.53.64,2.3.95a.67.67,0,0,0,.44,0c.82-.37,1.64-.77,2.46-1.16a.3.3,0,0,1,.44.08c.63.64,1.26,1.28,1.91,1.9a.35.35,0,0,1,.08.48c-.4.81-.79,1.63-1.16,2.45a.58.58,0,0,0,0,.41c.32.79.64,1.58,1,2.36a.6.6,0,0,0,.29.3c.85.32,1.7.62,2.56.91a.31.31,0,0,1,.25.35c0,.92,0,1.84,0,2.75a.31.31,0,0,1-.25.35l-2.54.89a.51.51,0,0,0-.33.35c-.31.78-.65,1.55-1,2.33a.58.58,0,0,0,0,.41c.37.82.76,1.64,1.16,2.46a.34.34,0,0,1-.08.47c-.65.63-1.28,1.26-1.91,1.91a.32.32,0,0,1-.44.08l-2.46-1.18a.48.48,0,0,0-.45,0c-.76.34-1.55.65-2.32,1a.69.69,0,0,0-.32.31C249.31,265.77,249,266.7,248.66,267.63Zm3.76-13.53a5.4,5.4,0,1,0-5.41,5.4A5.39,5.39,0,0,0,252.42,254.1Z"/><path class="cls-6" d="M275.21,264.41,274,264a.26.26,0,0,1-.13-.14c-.16-.37-.32-.75-.47-1.12a.23.23,0,0,1,0-.2c.17-.4.36-.78.55-1.17a.16.16,0,0,0,0-.23l-.91-.91a.18.18,0,0,0-.22,0l-1.17.55a.28.28,0,0,1-.2,0c-.38-.15-.73-.32-1.1-.45a.27.27,0,0,1-.18-.18c-.15-.44-.3-.87-.46-1.31H268.1c-.16.44-.31.89-.48,1.32a.29.29,0,0,1-.16.15c-.36.17-.73.31-1.1.47a.22.22,0,0,1-.22,0l-1.14-.55a.19.19,0,0,0-.25,0c-.3.31-.59.61-.9.9a.15.15,0,0,0,0,.23c.18.39.36.77.55,1.15a.29.29,0,0,1,0,.24c-.17.35-.32.71-.46,1.07a.27.27,0,0,1-.18.19c-.4.13-.79.29-1.19.41a.16.16,0,0,0-.12.18v1.31c0,.1,0,.14.12.16l1.22.44a.25.25,0,0,1,.13.14c.09.2.18.4.25.6h3.11a2.54,2.54,0,0,1-.95-2,2.58,2.58,0,1,1,5.15,0,2.49,2.49,0,0,1-1,2h3.12c.09-.19.17-.38.25-.59a.22.22,0,0,1,.16-.16l1.2-.43c.09,0,.12-.06.12-.16v-1.31A.16.16,0,0,0,275.21,264.41Z"/><path class="cls-16" d="M228.29,258.31l-.93-.34a.21.21,0,0,1-.11-.1c-.12-.29-.24-.57-.35-.86a.16.16,0,0,1,0-.15c.14-.31.27-.61.43-.91a.12.12,0,0,0,0-.17c-.23-.24-.46-.46-.7-.7a.12.12,0,0,0-.16,0l-.9.43a.22.22,0,0,1-.16,0l-.84-.35c-.08,0-.12-.06-.14-.12-.12-.35-.24-.68-.35-1h-1.21l-.36,1a.24.24,0,0,1-.12.1l-.85.37a.18.18,0,0,1-.16,0l-.11,0v7l.11-.06a.15.15,0,0,1,.16,0l.85.35a.23.23,0,0,1,.13.14c.11.33.23.67.35,1H224c.11-.33.23-.68.36-1a.23.23,0,0,1,.12-.12l.85-.36a.16.16,0,0,1,.16,0l.9.43a.1.1,0,0,0,.16,0l.7-.7a.12.12,0,0,0,0-.17c-.16-.3-.29-.6-.43-.9a.16.16,0,0,1,0-.15c.1-.29.23-.57.34-.86a.18.18,0,0,1,.13-.12c.31-.12.61-.23.92-.33.08,0,.1-.06.1-.13,0-.34,0-.67,0-1C228.39,258.36,228.37,258.34,228.29,258.31Zm-4.87,2.61a2,2,0,1,1,2-2A2,2,0,0,1,223.42,260.92Z"/><path class="cls-17" d="M259.87,87a22.44,22.44,0,0,0,22.43,22.44h97.35v0a20.37,20.37,0,0,0,0-40.73H379a23.55,23.55,0,0,0-30-14.2,37.69,37.69,0,0,0-73,11A22.43,22.43,0,0,0,259.87,87Z"/><path class="cls-14" d="M259.87,87a22.44,22.44,0,0,0,22.43,22.44h97.35v0a20.37,20.37,0,0,0,0-40.73H379a23.55,23.55,0,0,0-30-14.2,37.69,37.69,0,0,0-73,11A22.43,22.43,0,0,0,259.87,87Z"/><path class="cls-16" d="M400,95.53a20.37,20.37,0,0,1-20.36,20.36V116H282.3a22.46,22.46,0,0,1-22.19-25.73,22.45,22.45,0,0,0,22.19,19.13h97.35v0c10.12,0,19.41-7.23,20.36-19.57Z"/><path class="cls-18" d="M285.21,84h59.49a7.55,7.55,0,0,1,7.55,7.55v0a7.55,7.55,0,0,1-7.55,7.55H285.21a0,0,0,0,1,0,0V84a0,0,0,0,1,0,0Z" transform="translate(637.47 183.04) rotate(-180)"/><path class="cls-8" d="M359.7,84H369a0,0,0,0,1,0,0v15.1a0,0,0,0,1,0,0H359.7a7.44,7.44,0,0,1-7.44-7.44V91.4A7.44,7.44,0,0,1,359.7,84Z" transform="translate(721.3 183.04) rotate(180)"/><rect class="cls-19" x="304.58" y="89.5" width="45.24" height="3.38" rx="1.69" transform="translate(654.41 182.38) rotate(-180)"/><circle class="cls-16" cx="299.27" cy="91.52" r="2.84"/><circle class="cls-11" cx="292.17" cy="91.52" r="2.84"/><path class="cls-18" d="M285.21,62.89h59.49a7.55,7.55,0,0,1,7.55,7.55v0A7.55,7.55,0,0,1,344.71,78H285.21a0,0,0,0,1,0,0V62.89A0,0,0,0,1,285.21,62.89Z" transform="translate(637.47 140.89) rotate(180)"/><path class="cls-8" d="M359.81,62.89H369a0,0,0,0,1,0,0V78a0,0,0,0,1,0,0h-9.23a7.55,7.55,0,0,1-7.55-7.55v0a7.55,7.55,0,0,1,7.55-7.55Z" transform="translate(721.3 140.89) rotate(180)"/><rect class="cls-19" x="304.58" y="68.42" width="45.24" height="3.38" rx="1.69" transform="translate(654.41 140.22) rotate(-180)"/><circle class="cls-16" cx="299.27" cy="70.44" r="2.84"/><circle class="cls-11" cx="292.17" cy="70.44" r="2.84"/><rect class="cls-11" x="333.4" y="221.46" width="33.64" height="39.46"/><polygon class="cls-20" points="372.1 264.27 367.03 260.92 367.03 221.47 372.1 224.82 372.1 264.27"/><polygon class="cls-21" points="372.1 264.27 338.47 264.27 333.39 260.92 367.03 260.92 372.1 264.27"/><ellipse class="cls-22" cx="360.56" cy="262.6" rx="3.95" ry="0.71"/><ellipse class="cls-22" cx="345.7" cy="262.6" rx="3.95" ry="0.71"/><rect class="cls-23" x="336.07" y="225.36" width="26.44" height="3.93"/><polygon class="cls-14" points="363.23 230.05 336.8 230.05 336.07 229.28 362.51 229.28 363.23 230.05"/><polygon class="cls-2" points="363.23 230.05 362.51 229.28 362.51 225.36 363.23 226.12 363.23 230.05"/><rect class="cls-23" x="336.07" y="232.94" width="26.44" height="3.93"/><polygon class="cls-14" points="363.23 237.63 336.8 237.63 336.07 236.87 362.51 236.87 363.23 237.63"/><polygon class="cls-2" points="363.23 237.63 362.51 236.87 362.51 232.94 363.23 233.71 363.23 237.63"/><path class="cls-4" d="M344.06,247.91l1,1a3.48,3.48,0,0,1,.92,3.33,3.33,3.33,0,0,1-.92,1.64,3.47,3.47,0,0,1-1.63.92,3.52,3.52,0,0,1-3.34-.92l-1-1a3,3,0,0,0,.55.44,3.51,3.51,0,0,0,4.87-4.86A3.56,3.56,0,0,0,344.06,247.91Z"/><path class="cls-3" d="M344.06,247.91a3.55,3.55,0,0,1,0,5,3.52,3.52,0,0,1-4.42.44,3,3,0,0,1-.55-.44,3.54,3.54,0,0,1,0-5,3.53,3.53,0,0,1,5,0Z"/><path class="cls-24" d="M357.47,247.91l1,1a3.48,3.48,0,0,1,.92,3.33,3.33,3.33,0,0,1-.92,1.64,3.47,3.47,0,0,1-1.63.92,3.52,3.52,0,0,1-3.34-.92l-1-1a3,3,0,0,0,.55.44,3.51,3.51,0,0,0,4.87-4.86A3.07,3.07,0,0,0,357.47,247.91Z"/><path class="cls-16" d="M357.47,247.91a3.07,3.07,0,0,1,.45.56,3.51,3.51,0,0,1-4.87,4.86,3,3,0,0,1-.55-.44,3.54,3.54,0,0,1,0-5,3.53,3.53,0,0,1,5,0Z"/><polyline class="cls-12" points="360.56 263.31 360.56 296.95 293.15 296.95"/><polyline class="cls-13" points="345.8 263.31 345.8 292.97 278.38 292.97"/><polyline class="cls-25" points="236.75 183.26 246.5 177.63 236.75 172"/><polyline class="cls-25" points="248.53 183.26 258.29 177.63 248.53 172"/><polyline class="cls-25" points="260.32 183.26 270.08 177.63 260.32 172"/><polyline class="cls-25" points="272.11 183.26 281.87 177.63 272.11 172"/><polyline class="cls-25" points="296.36 213.75 306.11 208.12 296.36 202.49"/><polyline class="cls-25" points="308.15 213.75 317.9 208.12 308.15 202.49"/><polyline class="cls-25" points="319.94 213.75 329.69 208.12 319.94 202.49"/><polyline class="cls-25" points="331.73 213.75 341.48 208.12 331.73 202.49"/><polyline class="cls-25" points="297.73 256.03 307.49 250.4 297.73 244.77"/><polyline class="cls-25" points="309.52 256.03 319.27 250.4 309.52 244.77"/><path class="cls-17" d="M450.43,215.05a20.75,20.75,0,0,0,20.74,20.74h90v0a18.82,18.82,0,1,0,0-37.64h-.56a21.76,21.76,0,0,0-20.47-14.37,21.43,21.43,0,0,0-7.24,1.25,34.83,34.83,0,0,0-67.49,10.16A20.73,20.73,0,0,0,450.43,215.05Z"/><path class="cls-14" d="M450.43,215.05a20.75,20.75,0,0,0,20.74,20.74h90v0a18.82,18.82,0,1,0,0-37.64h-.56a21.76,21.76,0,0,0-20.47-14.37,21.43,21.43,0,0,0-7.24,1.25,34.83,34.83,0,0,0-67.49,10.16A20.73,20.73,0,0,0,450.43,215.05Z"/><path class="cls-3" d="M580,223a18.83,18.83,0,0,1-18.82,18.82v0h-90a20.75,20.75,0,0,1-20.74-20.74,20.23,20.23,0,0,1,.23-3,20.74,20.74,0,0,0,20.51,17.68h90v-.05c9.35,0,17.93-6.68,18.82-18.09Z"/><circle class="cls-17" cx="492.78" cy="204.55" r="22.43"/><rect class="cls-23" x="523.61" y="175.01" width="32.18" height="46.79" transform="translate(1079.4 396.81) rotate(-180)"/><rect class="cls-14" x="555.79" y="175.01" width="6.22" height="46.79" transform="translate(1117.8 396.81) rotate(-180)"/><rect class="cls-6" x="520.93" y="210.36" width="31.09" height="14.22" transform="translate(1072.95 434.93) rotate(-180)"/><rect class="cls-2" x="552.02" y="210.36" width="13.18" height="14.22" transform="translate(1117.22 434.93) rotate(-180)"/><circle class="cls-17" cx="526.51" cy="217.47" r="3.71"/><circle class="cls-17" cx="526.51" cy="217.47" r="3.71"/><circle class="cls-16" cx="526.51" cy="217.47" r="2.52"/><rect class="cls-17" x="532.5" y="216.78" width="17.25" height="1.7" rx="0.85" transform="translate(1082.24 435.26) rotate(-180)"/><rect class="cls-6" x="520.93" y="192.68" width="31.09" height="14.22" transform="translate(1072.95 399.59) rotate(-180)"/><rect class="cls-2" x="552.02" y="192.68" width="13.18" height="14.22" transform="translate(1117.22 399.59) rotate(-180)"/><circle class="cls-17" cx="526.51" cy="199.79" r="3.71"/><circle class="cls-17" cx="526.51" cy="199.79" r="3.71"/><circle class="cls-9" cx="526.51" cy="199.79" r="2.52"/><rect class="cls-17" x="532.5" y="199.1" width="17.25" height="1.7" rx="0.85" transform="translate(1082.24 399.91) rotate(180)"/><rect class="cls-6" x="520.93" y="175.01" width="31.09" height="14.22" transform="translate(1072.95 364.24) rotate(-180)"/><rect class="cls-2" x="552.02" y="175.01" width="13.18" height="14.22" transform="translate(1117.22 364.24) rotate(-180)"/><circle class="cls-17" cx="526.51" cy="182.12" r="3.71"/><circle class="cls-17" cx="526.51" cy="182.12" r="3.71"/><circle class="cls-3" cx="526.51" cy="182.12" r="2.52"/><rect class="cls-17" x="532.5" y="181.43" width="17.25" height="1.7" rx="0.85" transform="translate(1082.24 364.57) rotate(-180)"/><path class="cls-11" d="M491.05,219.45c-.35-1-.7-1.95-1-2.92a.56.56,0,0,0-.41-.39c-.81-.31-1.6-.65-2.39-1a.54.54,0,0,0-.51,0c-.85.42-1.71.82-2.56,1.23a.35.35,0,0,1-.48-.07c-.66-.69-1.34-1.37-2-2a.34.34,0,0,1-.08-.47c.42-.85.81-1.71,1.23-2.56a.52.52,0,0,0,0-.51c-.36-.8-.7-1.61-1-2.43a.56.56,0,0,0-.35-.37c-.91-.31-1.81-.63-2.71-1-.08,0-.15-.06-.24-.09,0-1.09,0-2.18,0-3.27,0-.09.14-.22.24-.25.9-.34,1.81-.64,2.71-1a.67.67,0,0,0,.31-.35c.36-.81.68-1.63,1-2.45a.49.49,0,0,0,0-.47c-.42-.85-.81-1.71-1.23-2.56a.37.37,0,0,1,.08-.51c.68-.65,1.35-1.33,2-2a.37.37,0,0,1,.5-.08c.85.42,1.72.82,2.57,1.23a.52.52,0,0,0,.47,0c.81-.36,1.64-.69,2.45-1a.69.69,0,0,0,.35-.32c.33-.89.65-1.78.95-2.68.07-.21.16-.29.38-.28h3.18c.35,1,.7,1.94,1,2.91a.58.58,0,0,0,.42.4c.79.3,1.58.63,2.36,1a.58.58,0,0,0,.57,0c.84-.41,1.69-.8,2.53-1.22a.35.35,0,0,1,.47.08q1,1,2,2a.34.34,0,0,1,.07.47c-.42.87-.83,1.73-1.23,2.6a.64.64,0,0,0,0,.43c.33.83.69,1.64,1,2.47a.56.56,0,0,0,.35.37c.89.3,1.76.63,2.65.93.22.07.31.16.3.4,0,1,0,1.93,0,2.89a.32.32,0,0,1-.26.37c-.89.3-1.78.63-2.68.94a.56.56,0,0,0-.37.39c-.31.81-.64,1.61-1,2.39a.57.57,0,0,0,0,.54c.41.84.8,1.69,1.21,2.53a.36.36,0,0,1-.08.51c-.68.65-1.35,1.33-2,2a.35.35,0,0,1-.5.07l-2.56-1.22a.48.48,0,0,0-.48,0c-.81.36-1.64.69-2.45,1a.67.67,0,0,0-.34.32c-.34.89-.65,1.78-1,2.67-.07.21-.15.29-.38.29Zm1.72-20a5.71,5.71,0,1,0,5.71,5.71A5.69,5.69,0,0,0,492.77,199.44Z"/><path class="cls-17" d="M23.07,354.14a24.34,24.34,0,0,0,24.34,24.34H153v-.06a22.09,22.09,0,1,0,0-44.18h-.66a25.53,25.53,0,0,0-32.53-15.41,40.89,40.89,0,0,0-79.23,11.93A24.33,24.33,0,0,0,23.07,354.14Z"/><path class="cls-26" d="M23.07,354.14a24.34,24.34,0,0,0,24.34,24.34H153v-.06a22.09,22.09,0,1,0,0-44.18h-.66a25.53,25.53,0,0,0-32.53-15.41,40.89,40.89,0,0,0-79.23,11.93A24.33,24.33,0,0,0,23.07,354.14Z"/><path class="cls-16" d="M175.14,363.44A22.1,22.1,0,0,1,153,385.53v.06H47.41a24.3,24.3,0,0,1-24.08-27.91,24.36,24.36,0,0,0,24.08,20.76H153v-.06c11,0,21.06-7.84,22.1-21.24Z"/><g id="_237._Locked" data-name="237. Locked"><path class="cls-27" d="M156.06,331.86v-6.44a12.88,12.88,0,0,0-25.75,0v6.44a4.29,4.29,0,0,0-4.29,4.29v21.46a4.29,4.29,0,0,0,4.29,4.29h25.75a4.29,4.29,0,0,0,4.29-4.29V336.15A4.29,4.29,0,0,0,156.06,331.86Zm-21.46-6.44a8.59,8.59,0,0,1,17.17,0v6.44H134.6Zm21.46,32.19H130.31V336.15h25.75v21.46Z"/></g><rect class="cls-16" x="49.56" y="326.65" width="71.01" height="4.19" rx="1.05"/><rect class="cls-6" x="49.56" y="333.04" width="27.25" height="4.19" rx="1.05"/><rect class="cls-6" x="49.56" y="339.01" width="57.75" height="4.19" rx="1.05"/><rect class="cls-14" x="49.56" y="345.49" width="34.79" height="2.09" rx="1.05"/><rect class="cls-14" x="49.56" y="349.51" width="15.57" height="2.09" rx="1.05"/><rect class="cls-14" x="49.56" y="353.53" width="31.14" height="2.09" rx="1.05"/><rect class="cls-14" x="49.56" y="357.56" width="25.56" height="2.09" rx="1.05"/><rect class="cls-14" x="49.56" y="361.58" width="55.53" height="2.09" rx="1.05"/><rect class="cls-14" x="49.56" y="365.61" width="34.39" height="2.09" rx="1.05"/><rect class="cls-14" x="49.56" y="369.63" width="46.79" height="2.09" rx="1.05"/><path class="cls-11" d="M141,348.43v2.74a2.15,2.15,0,0,0,4.29,0v-2.74a4.3,4.3,0,1,0-4.29,0Z"/><path class="cls-17" d="M363.43,386.81a24.35,24.35,0,0,0,24.35,24.35H493.41v-.06a22.1,22.1,0,0,0,0-44.19h-.66a25.53,25.53,0,0,0-32.53-15.41A40.9,40.9,0,0,0,381,363.45,24.33,24.33,0,0,0,363.43,386.81Z"/><path class="cls-26" d="M363.43,386.81a24.35,24.35,0,0,0,24.35,24.35H493.41v-.06a22.1,22.1,0,0,0,0-44.19h-.66a25.53,25.53,0,0,0-32.53-15.41A40.9,40.9,0,0,0,381,363.45,24.33,24.33,0,0,0,363.43,386.81Z"/><path class="cls-11" d="M515.5,396.11a22.1,22.1,0,0,1-22.1,22.1v.06H387.78a24.35,24.35,0,0,1-24.35-24.35,24.69,24.69,0,0,1,.26-3.57,24.36,24.36,0,0,0,24.09,20.76H493.4v-.06c11,0,21.06-7.84,22.1-21.23Z"/><rect class="cls-16" x="384.99" y="382.53" width="115.81" height="4.19" rx="1.05"/><rect class="cls-6" x="384.99" y="388.91" width="72.06" height="4.19" rx="1.05"/><rect class="cls-6" x="384.99" y="394.88" width="102.56" height="4.19" rx="1.05"/><path class="cls-27" d="M429.28,354.67l-1.32-1.5,5.39-1.46c-1.09-1.14-2-2.19-3-3.07a2.38,2.38,0,0,1-.76-3,32.19,32.19,0,0,0,.89-3.43c-4,0-7.88.06-11.71,0-4.07-.08-4.11-.15-6.84-3.59l10.77-5.18c1.77-.85,3.63-1.56,5.31-2.57,2.16-1.3,4.2-1.58,6.42-.24.62.38,1.31.74,2-.31,5.79-9.33,14.31-15.08,24.47-18.77a138.9,138.9,0,0,1,21.29-5.85c.49-.1,1-.11,1.66-.18a100,100,0,0,1-2.27,11.07,120.38,120.38,0,0,1-5.68,17.11A42,42,0,0,1,461,352.33c-.95.66-1.33,1.26-.68,2.3a3.46,3.46,0,0,1-.1,3.64q-4,8.1-7.79,16.3c-.52,1.1-.77,1.08-1.69.32a6.22,6.22,0,0,1-2.48-5.69c.22-3.13.06-6.28.06-9.67-4.68,2.42-7.69.8-10.11-2.75a4.8,4.8,0,0,0-.77-.69c-.35,1.57-.72,3-.95,4.4-.17,1.1-.62.61-1.1.3-1.76-.85-2.76-2.55-4.21-3.76C430.57,356.23,429.54,355.76,429.28,354.67Z"/><path class="cls-16" d="M431.39,356.81l4,4c-1.29,4.57-4.44,7.56-8.38,9.85a32,32,0,0,1-8.15,3.48c-.87,0-.69-.66-.56-1.05,1.9-5.68,3.94-11.3,9.12-14.95C428.55,357.32,429.77,356.32,431.39,356.81Z"/><path class="cls-28" d="M431.39,356.81c-4.38,1-7,4.13-9.09,7.74a45.77,45.77,0,0,0-3.63,8.52c-.14.41-.22.76.19,1.05l-3.37,1.18a34,34,0,0,1,2-7.07c1.49-4,3.31-7.78,6.51-10.73a10.46,10.46,0,0,1,5.28-2.83Z"/><path class="cls-29" d="M475.7,327.72c-4.91,15.68-15.88,25.18-31,30.49a2,2,0,0,1-2.49-.62c-1.86-2.11-3.83-4.13-5.75-6.18a10,10,0,0,1,1-3.88,47.73,47.73,0,0,1,9.16-15.21c.36-.41.61-1.15,1.43-.87.44.83,0,1.67,0,2.49a6.4,6.4,0,0,0,3.77,6.29,6.76,6.76,0,0,0,7.14-1,6.43,6.43,0,0,0,2.11-7,6.8,6.8,0,0,0-6-4.74,4.17,4.17,0,0,1-2-.33c-.41-.8.24-1.17.71-1.47a53.54,53.54,0,0,1,13.3-6.36,1.71,1.71,0,0,1,1.19.57q3.51,3.42,6.94,6.93A1.82,1.82,0,0,1,475.7,327.72Z"/><path class="cls-30" d="M467.31,319.54a69.12,69.12,0,0,0-13.06,6.35,2.63,2.63,0,0,0-1.17,1.14,57.31,57.31,0,0,0-5.09,4.38,52.25,52.25,0,0,0-9.27,14.08c-.91,1.92-1.17,4.07-2.26,5.92-1.34-1.37-2.63-2.78-4-4.08-.71-.66-.48-1.33-.28-2,4.26-14,12.46-24.66,26.41-30.24,1.09-.44,2.19-.85,3.29-1.26C464,315.4,466.13,317,467.31,319.54Z"/><path class="cls-11" d="M467.31,319.54l-5.46-5.72a111.59,111.59,0,0,1,17.94-5.2c1.34-.3,1.17.37,1,1.11-.91,3.71-1.8,7.43-2.8,11.11a46.22,46.22,0,0,1-2.28,6.88Z"/><path class="cls-11" d="M448,331.41a9.15,9.15,0,0,1,5.09-4.38c2.78-.23,5.27.35,7.13,2.59a7.07,7.07,0,0,1,.28,8.76,7.15,7.15,0,0,1-12.75-5.83C447.83,332.17,447.91,331.79,448,331.41Z"/><path class="cls-30" d="M454.71,338.89a4.59,4.59,0,0,1-4.72-4.64,4.74,4.74,0,0,1,4.73-4.86,4.83,4.83,0,0,1,4.77,4.87A4.74,4.74,0,0,1,454.71,338.89Z"/><path class="cls-31" d="M252.42,78.34c-41.32,5.22-78.77,17.89-109.24,35.88"/><path class="cls-31" d="M496.08,155c-21.22-25.19-52.4-46-89.89-60"/><path class="cls-31" d="M486,321.84c21.65-21.41,35.69-46.66,39.48-73.93"/><path class="cls-31" d="M183.21,370.68c33.14,12.44,71.25,19.52,111.8,19.52a336.76,336.76,0,0,0,56.41-4.7"/><path class="cls-31" d="M75.11,183.65a110.8,110.8,0,0,0,1.7,102"/></svg>