<?xml version="1.0" encoding="utf-8"?>
<!-- Generator: Adobe Illustrator 25.4.1, SVG Export Plug-In . SVG Version: 6.00 Build 0)  -->
<svg version="1.1" id="图层_1" xmlns="http://www.w3.org/2000/svg" xmlns:xlink="http://www.w3.org/1999/xlink" x="0px" y="0px"
	 viewBox="0 0 570 800" style="enable-background:new 0 0 570 800;" xml:space="preserve">
<style type="text/css">
	.st0{fill:#5A2BCA;}
	.st1{fill:url(#SVGID_1_);}
	.st2{clip-path:url(#SVGID_00000122701682396955304440000005532275125312354736_);fill:#6527DF;}
	.st3{fill:#FFFFFF;}
	.st4{fill:#EBEBFF;}
	.st5{enable-background:new    ;}
	.st6{fill:#7C6BDF;stroke:#7C6BDF;stroke-width:0.5969;stroke-miterlimit:10;}
	.st7{opacity:0.84;}
	.st8{fill:#F7B200;}
</style>
<g>
	<rect x="0.1" y="-1.6" class="st0" width="571" height="803.5"/>
</g>
<linearGradient id="SVGID_1_" gradientUnits="userSpaceOnUse" x1="150.4633" y1="298.3991" x2="586.46" y2="263.184" gradientTransform="matrix(1 0 0 -1 0 799.874)">
	<stop  offset="0" style="stop-color:#6526DE"/>
	<stop  offset="0" style="stop-color:#6527DF;stop-opacity:0.98"/>
	<stop  offset="1" style="stop-color:#6527DF;stop-opacity:0"/>
</linearGradient>
<path class="st1" d="M690.5,489.3h-12.1h-11.1l0,0c-0.1-22.8-4.2-44.7-11.7-64.9c0-0.1-0.1-0.2-0.1-0.2c-3.3-8.7-7.2-17.2-11.7-25.2
	c-3.6-6.4-7.5-12.6-11.7-18.5c-3.6-5-7.5-9.9-11.6-14.6l-0.1-0.1c-3.7-4.2-7.6-8.2-11.6-12c-3.8-3.6-7.7-7-11.7-10.2
	c-3.8-3-7.6-5.9-11.6-8.6c0,0-0.1,0-0.1-0.1c-3.8-2.6-7.7-5-11.6-7.3c-3.8-2.2-7.7-4.2-11.6-6.2h-0.1c-3.8-1.8-7.7-3.6-11.6-5.2
	c-3.8-1.5-7.8-3-11.7-4.3c-3.8-1.2-7.7-2.4-11.6-3.4h-0.1c-3.8-1-7.7-1.8-11.6-2.6c-3.8-0.7-7.7-1.3-11.6-1.8h-0.1
	c-3.8-0.5-7.7-0.8-11.6-1.1c-3.3-0.2-6.6-0.3-9.9-0.3l0,0H482h-1.5h-1.7c-3.3,0-6.6,0.2-9.9,0.4h-0.1c-3.9,0.3-7.8,0.6-11.6,1.1
	c-3.9,0.5-7.8,1.1-11.7,1.9c-3.9,0.8-7.8,1.6-11.6,2.6h-0.1c-3.9,1-7.8,2.2-11.6,3.4c-3.9,1.3-7.8,2.7-11.6,4.3h-0.1
	c-3.9,1.6-7.8,3.3-11.6,5.2c-4,2-7.9,4-11.7,6.3c-4,2.3-7.8,4.7-11.6,7.3c0,0-0.1,0-0.1,0.1c-4,2.7-7.8,5.6-11.6,8.6
	c-4,3.2-7.9,6.6-11.6,10.2l-0.1,0.1c-4,3.8-7.9,7.9-11.6,12.1c-4.1,4.7-8,9.6-11.7,14.7c-4.2,5.9-8.1,12-11.6,18.4
	c0,0.1-0.1,0.1-0.1,0.2c-4.5,8.1-8.3,16.6-11.6,25.3c-7.5,20.3-11.5,42.2-11.5,65h11.6h7.3h4.3H329h2.8H350h2.3H364h1.2h5.9
	c0,1.3,0,2.6,0.1,3.9c0.5,12,2.9,23.5,6.9,34.1c0,0.1,0.1,0.2,0.1,0.2c1.9,5.1,4.2,10,6.9,14.7c2.1,3.8,4.4,7.4,7,10.9
	c2.1,3,4.4,5.8,6.9,8.5l0.1,0.1c2.2,2.5,4.5,4.8,6.9,7.1c2.2,2.1,4.5,4.1,6.9,6c2.2,1.8,4.5,3.5,6.8,5c0,0,0.1,0,0.1,0.1
	c2.2,1.5,4.5,2.9,6.8,4.3c2.3,1.3,4.6,2.5,6.9,3.7l0,0c2.2,1.1,4.5,2.1,6.8,3h0.1c2.2,0.9,4.5,1.7,6.8,2.5c2.3,0.7,4.6,1.4,6.9,2
	s4.6,1.1,6.9,1.5s4.5,0.8,6.8,1.1h0.1c2.3,0.3,4.5,0.5,6.8,0.6s4.5,0.2,6.8,0.2h0.1c2.3,0,4.6-0.1,6.8-0.2h0.1
	c2.3-0.1,4.6-0.4,6.8-0.6c2.3-0.3,4.6-0.7,6.9-1.1c2.3-0.4,4.6-1,6.8-1.5h0.1c2.3-0.6,4.6-1.3,6.8-2c2.3-0.8,4.7-1.6,6.9-2.6
	c2.3-0.9,4.6-2,6.8-3.1h0.1c2.3-1.1,4.6-2.4,6.8-3.7l0,0c2.4-1.4,4.7-2.8,6.9-4.4c2.3-1.6,4.6-3.3,6.8-5.1l0.1-0.1
	c2.4-1.9,4.6-3.9,6.8-6c2.4-2.3,4.7-4.7,6.9-7.2c2.4-2.7,4.7-5.6,6.8-8.6l0.1-0.1c2.5-3.5,4.8-7.1,6.8-10.8c2.7-4.8,5-9.9,6.9-15.1
	c4.3-11.8,6.7-24.5,6.8-37.8h-6.8H580h-9.2h-2.2h-15.7h-3h-11.6h-2.1h-6.3h-0.6h-6.9h-3.9h-2.6c0,1.9-0.2,3.7-0.5,5.5
	c-0.9,5.9-3.3,11.2-6.8,15.7l-0.1,0.1c-2,2.5-4.3,4.8-6.8,6.7c-2.1,1.6-4.5,2.9-6.9,4c-2.2,0.9-4.5,1.7-6.8,2.2h-0.1
	c-2.2,0.4-4.5,0.7-6.8,0.7H481c-2.3,0-4.6-0.2-6.8-0.7c-2.4-0.5-4.7-1.2-6.8-2.1h-0.1c-2.4-1-4.7-2.3-6.8-3.9
	c-2.6-1.9-4.9-4.1-6.9-6.7c-3.5-4.4-5.9-9.7-7-15.4c-0.4-2-0.6-4-0.6-6.1h-24.6h-2.5h-10.5h-3.3h-6.9h-2.8h-4h-6.9h-6.8h-0.1h-6.7
	l0,0c-0.1-0.3-0.1-0.4-0.1-0.6c0-10.7,1.5-21.1,4.3-31c0-0.1,0.1-0.2,0.1-0.3c2.7-9.3,6.6-18.1,11.6-26.2
	c3.4-5.6,7.3-10.9,11.7-15.8c3.6-4.1,7.5-7.8,11.6-11.3l0.1-0.1c3.7-3.1,7.5-6,11.6-8.5c3.7-2.4,7.6-4.6,11.6-6.5h0.1
	c3.8-1.8,7.6-3.4,11.6-4.8c3.8-1.3,7.7-2.4,11.7-3.3c3.8-0.9,7.7-1.5,11.6-2h0.1c3.8-0.4,7.7-0.7,11.6-0.7c0.3,0,0.6,0,0.9,0
	c3.6,0,7.2,0.2,10.8,0.5c3.9,0.4,7.8,1,11.6,1.7h0.1c4,0.8,7.8,1.8,11.6,3.1c4,1.3,7.9,2.8,11.6,4.5h0.1c4,1.8,7.9,3.9,11.6,6.1
	c4.1,2.5,8,5.2,11.7,8.2c4.1,3.3,8,6.9,11.6,10.8l0.1,0.1c4.3,4.6,8.2,9.5,11.6,14.8c4.8,7.2,8.7,15.1,11.7,23.4
	c0,0.1,0.1,0.2,0.1,0.3c4.1,11.5,6.3,23.9,6.3,36.8c0,0.2,0,0.4,0,0.6h4.3h1.1h4.2h7.5h11.7h10.1h1.5h2.1h9.6h11.7h11.5h0.1
	c0,15.4-1.8,30.4-5.3,44.8l0,0c-3.7,15.2-9.3,29.6-16.4,43l0,0c-4.8,9-10.3,17.6-16.4,25.6c-5.1,6.6-10.6,12.9-16.5,18.8
	c-5.2,5.2-10.7,10.1-16.5,14.7c-5.3,4.2-10.8,8-16.5,11.6c-5.3,3.3-10.8,6.4-16.5,9.2l0,0c-5.4,2.7-10.8,5.1-16.5,7.2
	c-5.4,2-10.9,3.8-16.5,5.4c-5.4,1.5-10.9,2.8-16.5,3.8c-5.4,1-10.9,1.7-16.5,2.2c-5.4,0.5-10.9,0.8-16.5,0.8s-11.1-0.2-16.5-0.7
	c-5.6-0.5-11.1-1.2-16.5-2.1c-5.6-1-11.1-2.2-16.5-3.7c-5.6-1.5-11.1-3.3-16.5-5.3c-5.6-2.1-11.1-4.5-16.5-7.1
	c-5.7-2.8-11.2-5.8-16.5-9.2c-5.7-3.6-11.2-7.4-16.5-11.5c-5.8-4.5-11.3-9.4-16.5-14.6c-5.9-5.9-11.4-12.2-16.5-18.8
	c-6.2-8-11.7-16.6-16.5-25.6c-7.2-13.4-12.8-27.8-16.6-43c-3.6-14.4-5.5-29.4-5.5-44.9l0,0l-77,0.2c0.1,32.4,6,63.3,16.7,92
	c4.6,12.4,10.2,24.4,16.6,35.8c5,9,10.5,17.7,16.5,26c5.2,7.2,10.7,14,16.5,20.6c5.3,5.9,10.8,11.6,16.5,17.1
	c5.3,5,10.8,9.8,16.5,14.3c5.3,4.3,10.8,8.3,16.5,12.2c5.4,3.6,10.9,7.1,16.5,10.3c5.4,3.1,10.9,6,16.5,8.7
	c5.4,2.6,10.9,5.1,16.5,7.3c5.4,2.2,10.9,4.2,16.5,6c5.4,1.8,10.9,3.4,16.5,4.8c5.4,1.4,10.9,2.6,16.5,3.7c5.4,1,10.9,1.9,16.5,2.5
	c5.4,0.7,10.9,1.2,16.5,1.5c4.7,0.3,9.3,0.4,14.1,0.5h2.4h2.4c4.7-0.1,9.4-0.2,14.1-0.5c5.5-0.4,11-0.9,16.5-1.6
	c5.5-0.7,11-1.6,16.5-2.6c5.6-1.1,11.1-2.3,16.5-3.7c5.6-1.4,11.1-3.1,16.5-4.9c5.6-1.8,11.1-3.9,16.5-6.1
	c5.6-2.3,11.1-4.7,16.5-7.4c5.6-2.7,11.1-5.7,16.5-8.8c5.6-3.3,11.1-6.7,16.5-10.4c5.7-3.9,11.1-8,16.5-12.2l0,0
	c5.7-4.6,11.2-9.4,16.5-14.4l0,0c5.7-5.5,11.2-11.2,16.5-17.1c5.8-6.6,11.3-13.5,16.4-20.7c6-8.3,11.5-17,16.4-26.1
	c20.9-37.9,32.8-81.5,32.7-127.9L690.5,489.3z"/>
<g>
	<g>
		<defs>
			<rect id="SVGID_00000090254162214957637800000010718751446194471837_" x="-0.2" y="116.1" width="196.8" height="220.8"/>
		</defs>
		<clipPath id="SVGID_00000019655319558625299530000016095561108440124822_">
			<use xlink:href="#SVGID_00000090254162214957637800000010718751446194471837_"  style="overflow:visible;"/>
		</clipPath>
		
			<circle style="clip-path:url(#SVGID_00000019655319558625299530000016095561108440124822_);fill:#6527DF;" cx="69.7" cy="222.8" r="92.2"/>
	</g>
</g>
<g>
	<g>
		<g>
			<path class="st3" d="M93.9,110.1h0.4c11.8-0.1,21.5-9.7,21.5-21.7h-6.3c0,8.5-6.9,15.4-15.4,15.4s-15.3-6.9-15.3-15.4h-6.3
				C72.6,100.4,82.1,110,93.9,110.1"/>
		</g>
		<g>
			<path class="st3" d="M85.2,88.4c0-5,4.1-9.1,9.1-9.1s9.1,4.1,9.1,9.1l0,0h6.2c0-8.4-6.8-15.3-15.2-15.3H94
				c-8.4,0.1-15.2,6.9-15.2,15.3H85.2L85.2,88.4"/>
		</g>
		<g>
			<path class="st3" d="M103.3,88.4h-6.2c0,1.6-1.3,2.9-2.9,2.9s-2.9-1.2-2.9-2.9h-6.2c0,5,4.1,9,9.1,9S103.3,93.5,103.3,88.4"/>
		</g>
	</g>
	<g>
		<g>
			<path class="st3" d="M131.1,87c1,1.1,1.6,2.7,1.6,4.8c0,2.5-0.7,4.4-1.9,5.7c-1.2,1.3-3.1,2-5.4,2c-1.5,0-3.2-0.1-5.2-0.2
				l0.2-4.1l-0.2-9.8l6.3-0.1C128.4,85.3,129.9,85.9,131.1,87 M127.6,95.5c0.4-0.6,0.6-1.4,0.6-2.7c0-1-0.1-1.9-0.2-2.5
				c-0.1-0.6-0.4-1-0.7-1.3s-0.8-0.4-1.3-0.4c-0.6,0-1,0-1.6,0.1l-0.2,6V96c0.9,0.1,1.5,0.2,1.9,0.2
				C126.8,96.3,127.2,96.1,127.6,95.5"/>
		</g>
		<g>
			<path class="st3" d="M145.9,99.3h-4.4l-0.4-2.3v-0.1H139l-1.7,0.1l-0.4,2.3h-4.2l4.2-13.9h5.2L145.9,99.3z M140.4,93.8l-1-4.6
				h-0.3l-1.2,4.6h1.2H140.4z"/>
		</g>
		<g>
			<polygon class="st3" points="156.2,85.7 155.9,88.8 153,88.7 152.8,88.7 152.7,94.8 152.8,99.3 148.5,99.3 148.8,95.2 
				148.6,88.7 148.4,88.7 145.6,88.8 145.3,88.5 145.5,85.4 155.9,85.4 			"/>
		</g>
		<g>
			<path class="st3" d="M168.6,99.3h-4.4l-0.4-2.3v-0.1h-2.1L160,97l-0.4,2.3h-4.2l4.2-13.9h5.2L168.6,99.3z M163.1,93.8l-1-4.6
				h-0.3l-1.2,4.6h1.2H163.1z"/>
		</g>
		<g>
			<path class="st3" d="M179.4,85.8l-0.8,3.4l-0.3,0.2c-0.4-0.2-0.8-0.4-1.3-0.5s-1-0.2-1.3-0.2c-0.9,0-1.5,0.3-1.9,0.8
				s-0.6,1.3-0.6,2.6c0,1.4,0.2,2.4,0.7,3.1s1.1,1,2.1,1c0.4,0,0.9,0,1.3-0.1c0.5-0.1,1-0.2,1.3-0.3L179,96l-0.4,3.4
				c-0.9,0.3-1.8,0.4-3,0.4c-2.3,0-4-0.6-5.2-1.8c-1.1-1.2-1.7-3-1.7-5.2c0-2.3,0.7-4.1,1.9-5.3c1.2-1.2,3.1-1.9,5.3-1.9
				C177.1,85.2,178.3,85.4,179.4,85.8"/>
		</g>
		<g>
			<path class="st3" d="M192.4,99.3H188l-0.4-2.3v-0.1h-2.1l-1.7,0.1l-0.4,2.3h-4.2l4.2-13.9h5.2L192.4,99.3z M187,93.8l-1-4.6h-0.3
				l-1.2,4.6h1.2H187z"/>
		</g>
		<g>
			<path class="st3" d="M206.5,98.4l-0.1,0.5c-1.5,0.3-3,0.6-4.3,0.7l-0.5-0.3c-1.4-2.5-2.7-4.7-3.6-6.4v1.9l0.2,4.5h-4.3l0.2-4.1
				l-0.2-9.8h4.4l-0.2,5.8l2.7-4.3l0.8-1.5h4.6l-4.1,6.6C203.3,94.1,204.8,96.2,206.5,98.4"/>
		</g>
		<g>
			<polygon class="st3" points="217.2,95.9 217.4,96.2 217.2,99.3 207.4,99.3 207.6,95.2 207.4,85.4 217.4,85.4 217.5,85.7 
				217.4,88.8 213.9,88.7 211.7,88.7 211.6,90.6 213.7,90.6 216,90.6 216.2,90.9 216,94.1 213.5,94 211.5,94 211.5,94.8 211.5,96 
				213.6,96 			"/>
		</g>
	</g>
</g>
<g>
	<g>
		<path class="st4" d="M180.2,516.4H80.8c-5.4,0-9.7-4.4-9.7-9.7l0,0c0-5.4,4.4-9.7,9.7-9.7h99.4c5.4,0,9.7,4.4,9.7,9.7l0,0
			C189.9,512.1,185.5,516.4,180.2,516.4z"/>
	</g>
	<g>
		<path class="st4" d="M217.4,546.8H80.8c-5.4,0-9.7-4.4-9.7-9.7l0,0c0-5.4,4.4-9.7,9.7-9.7h136.6c5.4,0,9.7,4.4,9.7,9.7l0,0
			C227.1,542.5,222.8,546.8,217.4,546.8z"/>
	</g>
	<g>
		<path class="st4" d="M167.2,577.5H80.8c-5.4,0-9.7-4.4-9.7-9.7l0,0c0-5.4,4.4-9.7,9.7-9.7h86.3c5.4,0,9.7,4.4,9.7,9.7l0,0
			C176.9,573.1,172.6,577.5,167.2,577.5z"/>
	</g>
	<g>
		<g class="st5">
			<path class="st6" d="M83.1,501.5h1.3L86,506c0.2,0.6,0.4,1.2,0.6,1.8h0.1c0.2-0.6,0.4-1.2,0.6-1.8l1.6-4.5h1.3v8.5h-1v-4.7
				c0-0.7,0.1-1.8,0.1-2.5h-0.1l-0.7,1.9l-1.6,4.4h-0.7l-1.6-4.4l-0.7-1.9h-0.1c0.1,0.7,0.1,1.8,0.1,2.5v4.7h-1v-8.5H83.1z"/>
			<path class="st6" d="M93.1,508.4c0-1.3,1.2-2.1,3.8-2.4c0-0.8-0.3-1.5-1.3-1.5c-0.7,0-1.4,0.4-1.9,0.7l-0.4-0.7
				c0.6-0.4,1.5-0.8,2.5-0.8c1.5,0,2.1,1,2.1,2.6v3.8H97l-0.1-0.7l0,0c-0.6,0.5-1.3,0.9-2.1,0.9C93.9,510.2,93.1,509.5,93.1,508.4z
				 M96.9,508.5v-1.7c-2.1,0.2-2.8,0.7-2.8,1.5c0,0.7,0.5,1,1.1,1S96.3,509.1,96.9,508.5z"/>
			<path class="st6" d="M100.4,509.3l0.5-0.7c0.5,0.4,1.1,0.7,1.8,0.7c0.8,0,1.3-0.4,1.3-1c0-0.7-0.7-1-1.4-1.2
				c-0.9-0.3-1.8-0.7-1.8-1.8c0-1,0.8-1.8,2.1-1.8c0.7,0,1.5,0.3,1.9,0.7l-0.5,0.7c-0.4-0.3-0.9-0.6-1.5-0.6c-0.8,0-1.1,0.4-1.1,0.9
				c0,0.6,0.7,0.8,1.4,1.1c0.9,0.4,1.9,0.7,1.9,1.9c0,1-0.8,1.8-2.3,1.8C101.9,510.2,101,509.8,100.4,509.3z"/>
			<path class="st6" d="M107.6,508.1v-3.5h-1v-0.8l1-0.1l0.1-1.8h0.9v1.8h1.7v0.9h-1.7v3.5c0,0.7,0.2,1.2,1,1.2
				c0.2,0,0.5-0.1,0.7-0.1l0.2,0.8c-0.4,0.1-0.7,0.2-1.2,0.2C108,510.2,107.6,509.4,107.6,508.1z"/>
			<path class="st6" d="M112.2,506.9c0-2.1,1.4-3.3,2.8-3.3c1.6,0,2.5,1.2,2.5,3c0,0.2,0,0.4-0.1,0.6h-4.2c0.1,1.3,0.9,2.2,2.1,2.2
				c0.6,0,1.1-0.2,1.5-0.5l0.4,0.7c-0.6,0.4-1.3,0.7-2.1,0.7C113.5,510.2,112.2,509,112.2,506.9z M116.6,506.4
				c0-1.3-0.6-1.9-1.5-1.9s-1.7,0.7-1.8,1.9H116.6z"/>
			<path class="st6" d="M120.2,503.8h0.9l0.1,1.1l0,0c0.4-0.8,1.1-1.3,1.8-1.3c0.3,0,0.4,0,0.7,0.1l-0.2,1c-0.2-0.1-0.4-0.1-0.6-0.1
				c-0.5,0-1.2,0.4-1.5,1.5v4.1h-1L120.2,503.8L120.2,503.8z"/>
			<path class="st6" d="M129.6,501.5h2.1c2.6,0,4,1.5,4,4.2s-1.4,4.3-4,4.3h-2.1V501.5z M131.6,509.1c2,0,3-1.3,3-3.4s-1-3.3-3-3.3
				h-1v6.7L131.6,509.1L131.6,509.1z"/>
			<path class="st6" d="M138.2,508.4c0-1.3,1.2-2.1,3.8-2.4c0-0.8-0.3-1.5-1.3-1.5c-0.7,0-1.4,0.4-1.9,0.7l-0.4-0.7
				c0.6-0.4,1.5-0.8,2.5-0.8c1.5,0,2.1,1,2.1,2.6v3.8h-0.9l-0.1-0.7l0,0c-0.6,0.5-1.3,0.9-2.1,0.9
				C139,510.2,138.2,509.5,138.2,508.4z M142,508.5v-1.7c-2.1,0.2-2.8,0.7-2.8,1.5c0,0.7,0.5,1,1.1,1
				C140.9,509.4,141.4,509.1,142,508.5z"/>
			<path class="st6" d="M146.2,508.1v-3.5h-1v-0.8l1-0.1l0.1-1.8h0.9v1.8h1.7v0.9h-1.7v3.5c0,0.7,0.2,1.2,1,1.2
				c0.2,0,0.5-0.1,0.7-0.1l0.2,0.8c-0.4,0.1-0.7,0.2-1.2,0.2C146.7,510.2,146.2,509.4,146.2,508.1z"/>
			<path class="st6" d="M150.9,508.4c0-1.3,1.2-2.1,3.8-2.4c0-0.8-0.3-1.5-1.3-1.5c-0.7,0-1.4,0.4-1.9,0.7l-0.4-0.7
				c0.6-0.4,1.5-0.8,2.5-0.8c1.5,0,2.1,1,2.1,2.6v3.8h-0.9l-0.1-0.7l0,0c-0.6,0.5-1.3,0.9-2.1,0.9
				C151.6,510.2,150.9,509.5,150.9,508.4z M154.7,508.5v-1.7c-2.1,0.2-2.8,0.7-2.8,1.5c0,0.7,0.5,1,1.1,1
				C153.6,509.4,154.1,509.1,154.7,508.5z"/>
			<path class="st6" d="M158.5,505.7c0-2.7,1.5-4.4,3.6-4.4s3.6,1.6,3.6,4.4s-1.5,4.4-3.6,4.4S158.5,508.5,158.5,505.7z
				 M164.6,505.7c0-2.1-1-3.4-2.5-3.4s-2.5,1.3-2.5,3.4s1,3.5,2.5,3.5S164.6,507.9,164.6,505.7z"/>
			<path class="st6" d="M168.6,503.8h0.9l0.1,0.7l0,0c0.6-0.4,1.3-0.9,2-0.9c1.6,0,2.5,1.3,2.5,3.2c0,2.1-1.3,3.4-2.7,3.4
				c-0.6,0-1.2-0.3-1.7-0.7v1.1v2.1h-1v-8.9H168.6z M172.9,506.8c0-1.4-0.4-2.3-1.6-2.3c-0.5,0-1.1,0.3-1.7,0.9v3.3
				c0.6,0.5,1.1,0.7,1.5,0.7C172.2,509.3,172.9,508.4,172.9,506.8z"/>
			<path class="st6" d="M176.1,509.3l0.5-0.7c0.5,0.4,1.1,0.7,1.8,0.7c0.8,0,1.3-0.4,1.3-1c0-0.7-0.7-1-1.4-1.2
				c-0.9-0.3-1.8-0.7-1.8-1.8c0-1,0.8-1.8,2.1-1.8c0.7,0,1.5,0.3,1.9,0.7l-0.5,0.7c-0.4-0.3-0.9-0.6-1.5-0.6c-0.8,0-1.1,0.4-1.1,0.9
				c0,0.6,0.7,0.8,1.4,1.1c0.9,0.4,1.9,0.7,1.9,1.9c0,1-0.8,1.8-2.3,1.8C177.6,510.2,176.8,509.8,176.1,509.3z"/>
		</g>
	</g>
	<g>
		<g class="st5">
			<path class="st6" d="M83.1,532.7h1.1v7.5h3.7v0.9h-4.8C83.1,541.1,83.1,532.7,83.1,532.7z"/>
			<path class="st6" d="M89.8,538.1c0-2.1,1.4-3.3,2.8-3.3c1.6,0,2.5,1.2,2.5,3c0,0.2,0,0.4-0.1,0.6h-4.2c0.1,1.3,0.9,2.2,2.1,2.2
				c0.6,0,1.1-0.2,1.5-0.5l0.4,0.7c-0.6,0.4-1.3,0.7-2.1,0.7C91.1,541.3,89.8,540.1,89.8,538.1z M94.1,537.5c0-1.3-0.6-1.9-1.5-1.9
				s-1.7,0.7-1.8,1.9H94.1z"/>
			<path class="st6" d="M96.9,534.9H98l1.2,3.5c0.2,0.6,0.4,1.3,0.6,1.8h0.1c0.2-0.6,0.4-1.3,0.6-1.8l1.2-3.5h1l-2.2,6.3h-1.3
				L96.9,534.9z"/>
			<path class="st6" d="M104.4,538.1c0-2.1,1.4-3.3,2.8-3.3c1.6,0,2.5,1.2,2.5,3c0,0.2,0,0.4-0.1,0.6h-4.2c0.1,1.3,0.9,2.2,2.1,2.2
				c0.6,0,1.1-0.2,1.5-0.5l0.4,0.7c-0.6,0.4-1.3,0.7-2.1,0.7C105.8,541.3,104.4,540.1,104.4,538.1z M108.8,537.5
				c0-1.3-0.6-1.9-1.5-1.9s-1.7,0.7-1.8,1.9H108.8z"/>
			<path class="st6" d="M112.4,534.9h0.9l0.1,1.1l0,0c0.4-0.8,1.1-1.3,1.8-1.3c0.3,0,0.4,0,0.7,0.1l-0.2,1c-0.2-0.1-0.4-0.1-0.6-0.1
				c-0.5,0-1.2,0.4-1.5,1.5v4.1h-1L112.4,534.9L112.4,534.9z"/>
			<path class="st6" d="M117.3,539.5c0-1.3,1.2-2.1,3.8-2.4c0-0.8-0.3-1.5-1.3-1.5c-0.7,0-1.4,0.4-1.9,0.7l-0.4-0.7
				c0.6-0.4,1.5-0.8,2.5-0.8c1.5,0,2.1,1,2.1,2.6v3.8h-0.9l-0.1-0.7l0,0c-0.6,0.5-1.3,0.9-2.1,0.9
				C118.1,541.3,117.3,540.6,117.3,539.5z M121.1,539.6v-1.8c-2.1,0.2-2.8,0.7-2.8,1.5c0,0.7,0.5,1,1.1,1
				C120,540.5,120.5,540.2,121.1,539.6z"/>
			<path class="st6" d="M124.8,542.3c0-0.5,0.4-1,1-1.4l0,0c-0.4-0.2-0.6-0.5-0.6-1s0.4-1,0.7-1.2v-0.1c-0.4-0.4-0.8-1-0.8-1.7
				c0-1.4,1.1-2.2,2.4-2.2c0.4,0,0.7,0.1,0.9,0.1h2.2v0.8h-1.3c0.3,0.3,0.5,0.7,0.5,1.3c0,1.3-1,2.2-2.3,2.2c-0.3,0-0.7-0.1-1-0.2
				c-0.2,0.2-0.4,0.4-0.4,0.7c0,0.4,0.2,0.7,1.1,0.7h1.3c1.5,0,2.2,0.4,2.2,1.5c0,1.2-1.3,2.1-3.2,2.1
				C125.9,544,124.8,543.5,124.8,542.3z M129.6,542c0-0.6-0.4-0.7-1.3-0.7h-1.1c-0.2,0-0.5,0-0.8-0.1c-0.4,0.3-0.7,0.7-0.7,1
				c0,0.7,0.7,1.1,1.8,1.1C128.8,543.4,129.6,542.7,129.6,542z M128.8,537c0-0.9-0.6-1.5-1.3-1.5s-1.3,0.5-1.3,1.5
				c0,0.9,0.6,1.5,1.3,1.5C128.1,538.4,128.8,537.9,128.8,537z"/>
			<path class="st6" d="M132.3,538.1c0-2.1,1.4-3.3,2.8-3.3c1.6,0,2.5,1.2,2.5,3c0,0.2,0,0.4-0.1,0.6h-4.2c0.1,1.3,0.9,2.2,2.1,2.2
				c0.6,0,1.1-0.2,1.5-0.5l0.4,0.7c-0.6,0.4-1.3,0.7-2.1,0.7C133.7,541.3,132.3,540.1,132.3,538.1z M136.7,537.5
				c0-1.3-0.6-1.9-1.5-1.9s-1.7,0.7-1.8,1.9H136.7z"/>
			<path class="st6" d="M144.1,532.7h1.3l1.6,4.5c0.2,0.6,0.4,1.2,0.6,1.8h0.1c0.2-0.6,0.4-1.2,0.6-1.8l1.6-4.5h1.3v8.5h-1v-4.7
				c0-0.7,0.1-1.8,0.1-2.5h-0.1l-0.7,1.9l-1.6,4.4h-0.7l-1.6-4.4l-0.6-2h-0.1c0.1,0.7,0.1,1.8,0.1,2.5v4.7h-1L144.1,532.7
				L144.1,532.7z"/>
			<path class="st6" d="M154.4,538.9v-4h1v3.8c0,1.2,0.4,1.7,1.2,1.7c0.7,0,1.1-0.3,1.7-1V535h1v6.3h-0.9l-0.1-1l0,0
				c-0.6,0.7-1.2,1.1-2.1,1.1C155,541.3,154.4,540.5,154.4,538.9z"/>
			<path class="st6" d="M162.6,539.9v-8h1v8c0,0.3,0.1,0.4,0.3,0.4c0.1,0,0.1,0,0.2,0l0.1,0.8c-0.1,0.1-0.4,0.1-0.6,0.1
				C163,541.3,162.6,540.8,162.6,539.9z"/>
			<path class="st6" d="M167.2,539.2v-3.5h-1v-0.8l1-0.1l0.1-1.8h0.9v1.8h1.7v0.9h-1.7v3.5c0,0.7,0.2,1.2,1,1.2
				c0.2,0,0.5-0.1,0.7-0.1l0.2,0.8c-0.4,0.1-0.7,0.2-1.2,0.2C167.7,541.3,167.2,540.5,167.2,539.2z"/>
			<path class="st6" d="M172.3,532.9c0-0.4,0.3-0.7,0.7-0.7s0.7,0.2,0.7,0.7c0,0.4-0.3,0.7-0.7,0.7S172.3,533.3,172.3,532.9z
				 M172.5,534.9h1v6.3h-1V534.9z"/>
			<path class="st6" d="M176.2,537.5h3v0.8h-3V537.5z"/>
			<path class="st6" d="M181.6,537c0-2.7,1.6-4.4,3.8-4.4c1,0,1.8,0.5,2.3,1l-0.6,0.7c-0.4-0.4-1-0.8-1.7-0.8
				c-1.6,0-2.7,1.3-2.7,3.4c0,2.1,1,3.5,2.7,3.5c0.8,0,1.4-0.4,2-1l0.6,0.7c-0.7,0.7-1.5,1.2-2.6,1.2
				C183.1,541.3,181.6,539.7,181.6,537z"/>
			<path class="st6" d="M190.4,539.9v-8h1v8c0,0.3,0.1,0.4,0.3,0.4c0.1,0,0.1,0,0.2,0l0.1,0.8c-0.1,0.1-0.4,0.1-0.6,0.1
				C190.8,541.3,190.4,540.8,190.4,539.9z"/>
			<path class="st6" d="M194.3,538.1c0-2.1,1.4-3.3,2.9-3.3s2.9,1.2,2.9,3.3c0,2.1-1.4,3.2-2.9,3.2S194.3,540.1,194.3,538.1z
				 M199.1,538.1c0-1.5-0.7-2.4-1.8-2.4s-1.8,1-1.8,2.4c0,1.5,0.7,2.4,1.8,2.4C198.4,540.5,199.1,539.5,199.1,538.1z"/>
			<path class="st6" d="M202.9,538.9v-4h1v3.8c0,1.2,0.4,1.7,1.2,1.7c0.7,0,1.1-0.3,1.7-1V535h1v6.3h-0.9l-0.1-1l0,0
				c-0.6,0.7-1.2,1.1-2.1,1.1C203.5,541.3,202.9,540.5,202.9,538.9z"/>
			<path class="st6" d="M210.6,538.1c0-2.1,1.3-3.3,2.7-3.3c0.7,0,1.2,0.3,1.8,0.7l-0.1-1.1v-2.5h1v9.2h-0.9l-0.1-0.7l0,0
				c-0.5,0.5-1.2,0.9-1.9,0.9C211.7,541.3,210.6,540.1,210.6,538.1z M215.1,539.6v-3.3c-0.5-0.4-1-0.7-1.5-0.7c-1,0-1.8,1-1.8,2.4
				c0,1.5,0.6,2.4,1.7,2.4C214,540.4,214.5,540.1,215.1,539.6z"/>
		</g>
	</g>
	<g>
		<g class="st5">
			<path class="st6" d="M82.1,567.4c0-2.7,1.6-4.4,3.8-4.4c1,0,1.8,0.5,2.3,1l-0.6,0.7c-0.4-0.4-1-0.8-1.7-0.8
				c-1.6,0-2.7,1.3-2.7,3.4c0,2.1,1,3.5,2.7,3.5c0.8,0,1.4-0.4,2-1l0.6,0.7c-0.7,0.7-1.5,1.2-2.6,1.2
				C83.7,571.8,82.1,570.2,82.1,567.4z"/>
			<path class="st6" d="M90.5,568.5c0-2.1,1.4-3.3,2.9-3.3s2.9,1.2,2.9,3.3s-1.4,3.2-2.9,3.2C91.9,571.8,90.5,570.6,90.5,568.5z
				 M95.2,568.5c0-1.5-0.7-2.4-1.8-2.4c-1.1,0-1.8,1-1.8,2.4c0,1.5,0.7,2.4,1.8,2.4C94.5,571,95.2,569.9,95.2,568.5z"/>
			<path class="st6" d="M98.2,565.4h1.1l1.2,3.5c0.2,0.6,0.4,1.3,0.6,1.8h0.1c0.2-0.6,0.4-1.3,0.6-1.8l1.2-3.5h1l-2.2,6.3h-1.3
				L98.2,565.4z"/>
			<path class="st6" d="M105.7,568.5c0-2.1,1.4-3.3,2.8-3.3c1.6,0,2.5,1.2,2.5,3c0,0.2,0,0.4-0.1,0.6h-4.2c0.1,1.3,0.9,2.2,2.1,2.2
				c0.6,0,1.1-0.2,1.5-0.5l0.4,0.7c-0.6,0.4-1.3,0.7-2.1,0.7C107,571.8,105.7,570.6,105.7,568.5z M110.1,568c0-1.3-0.6-1.9-1.5-1.9
				s-1.7,0.7-1.8,1.9H110.1z"/>
			<path class="st6" d="M113.7,565.4h0.9l0.1,1.1l0,0c0.4-0.8,1.1-1.3,1.8-1.3c0.3,0,0.4,0,0.7,0.1l-0.2,1c-0.2-0.1-0.4-0.1-0.6-0.1
				c-0.5,0-1.2,0.4-1.5,1.5v4.1h-1v-6.4H113.7z"/>
			<path class="st6" d="M123,563.2h4.9v0.9h-3.8v2.9h3.2v0.9h-3.2v3.8H123V563.2L123,563.2z"/>
			<path class="st6" d="M130.3,563.4c0-0.4,0.3-0.7,0.7-0.7s0.7,0.2,0.7,0.7c0,0.4-0.3,0.7-0.7,0.7S130.3,563.8,130.3,563.4z
				 M130.5,565.4h1v6.3h-1V565.4z"/>
			<path class="st6" d="M134.8,565.4h0.9l0.1,0.9l0,0c0.6-0.6,1.3-1,2.1-1c1.3,0,1.9,0.9,1.9,2.4v4h-1v-3.8c0-1.2-0.4-1.7-1.2-1.7
				c-0.7,0-1.1,0.3-1.7,1v4.6h-1L134.8,565.4L134.8,565.4z"/>
			<path class="st6" d="M142.5,567.4c0-2.7,1.5-4.4,3.6-4.4s3.6,1.6,3.6,4.4s-1.5,4.4-3.6,4.4C144.1,571.8,142.5,570.1,142.5,567.4z
				 M148.7,567.4c0-2.1-1-3.4-2.5-3.4s-2.5,1.3-2.5,3.4c0,2.1,1,3.5,2.5,3.5C147.7,570.8,148.7,569.5,148.7,567.4z"/>
			<path class="st6" d="M152.6,565.4h0.9l0.1,0.7l0,0c0.6-0.4,1.3-0.9,2-0.9c1.6,0,2.5,1.3,2.5,3.2c0,2.1-1.3,3.4-2.7,3.4
				c-0.6,0-1.2-0.3-1.7-0.7v1.1v2.1h-1v-8.9H152.6z M157,568.4c0-1.4-0.4-2.3-1.6-2.3c-0.5,0-1.1,0.3-1.7,0.9v3.3
				c0.6,0.5,1.1,0.7,1.5,0.7C156.3,570.9,157,570,157,568.4z"/>
			<path class="st6" d="M160.2,570.9l0.5-0.7c0.5,0.4,1.1,0.7,1.8,0.7c0.8,0,1.3-0.4,1.3-1c0-0.7-0.7-1-1.4-1.2
				c-0.9-0.3-1.8-0.7-1.8-1.8c0-1,0.8-1.8,2.1-1.8c0.7,0,1.5,0.3,1.9,0.7l-0.5,0.7c-0.4-0.3-0.9-0.6-1.5-0.6c-0.8,0-1.1,0.4-1.1,0.9
				c0,0.6,0.7,0.8,1.4,1.1c0.9,0.4,1.9,0.7,1.9,1.9c0,1-0.8,1.8-2.3,1.8C161.6,571.8,160.8,571.4,160.2,570.9z"/>
		</g>
	</g>
</g>
<rect x="71.2" y="698" class="st4" width="47" height="7.8"/>
<g class="st7">
	<g class="st5">
		<path class="st3" d="M75.5,376.6h2.8c3.5,0,5.3,2,5.3,5.6c0,3.6-1.9,5.7-5.3,5.7h-2.9V376.6z M78.2,386.7c2.7,0,4-1.7,4-4.5
			c0-2.9-1.3-4.5-4-4.5H77v9H78.2z"/>
		<path class="st3" d="M85.5,385.7c0-1.8,1.6-2.7,5.2-3.1c0-1.1-0.4-2.1-1.7-2.1c-1,0-1.9,0.4-2.5,0.9l-0.6-1c0.8-0.5,2-1.1,3.3-1.1
			c2,0,2.9,1.4,2.9,3.4v5.2h-1.2l-0.1-1h0c-0.8,0.7-1.7,1.2-2.8,1.2C86.5,388.1,85.5,387.2,85.5,385.7z M90.7,385.8v-2.3
			c-2.8,0.3-3.8,1-3.8,2.1c0,1,0.6,1.3,1.5,1.3C89.2,387,89.8,386.6,90.7,385.8z"/>
		<path class="st3" d="M94.7,385.3v-4.6h-1.3v-1.1l1.3-0.1l0.2-2.3h1.2v2.3h2.3v1.1h-2.3v4.7c0,1,0.3,1.6,1.3,1.6
			c0.3,0,0.7-0.1,1-0.2l0.3,1.1c-0.5,0.2-1,0.3-1.5,0.3C95.3,388.1,94.7,387,94.7,385.3z"/>
		<path class="st3" d="M99.4,385.7c0-1.8,1.6-2.7,5.2-3.1c0-1.1-0.4-2.1-1.7-2.1c-1,0-1.9,0.4-2.5,0.9l-0.6-1c0.8-0.5,2-1.1,3.3-1.1
			c2,0,2.9,1.4,2.9,3.4v5.2h-1.2l-0.1-1h0c-0.8,0.7-1.7,1.2-2.8,1.2C100.5,388.1,99.4,387.2,99.4,385.7z M104.6,385.8v-2.3
			c-2.8,0.3-3.8,1-3.8,2.1c0,1,0.6,1.3,1.5,1.3C103.1,387,103.8,386.6,104.6,385.8z"/>
		<path class="st3" d="M108.1,382.2c0-3.7,2.1-5.9,5-5.9c1.4,0,2.5,0.7,3.1,1.4l-0.8,0.9c-0.6-0.6-1.3-1.1-2.3-1.1
			c-2.1,0-3.6,1.8-3.6,4.6c0,2.9,1.4,4.6,3.5,4.6c1.1,0,1.9-0.5,2.6-1.3l0.8,0.9c-0.9,1-2,1.6-3.5,1.6
			C110.2,388.1,108.1,385.9,108.1,382.2z"/>
		<path class="st3" d="M118,385.7c0-1.8,1.6-2.7,5.2-3.1c0-1.1-0.4-2.1-1.7-2.1c-1,0-1.9,0.4-2.5,0.9l-0.6-1c0.8-0.5,2-1.1,3.3-1.1
			c2,0,2.9,1.4,2.9,3.4v5.2h-1.2l-0.1-1h0c-0.8,0.7-1.7,1.2-2.8,1.2C119,388.1,118,387.2,118,385.7z M123.1,385.8v-2.3
			c-2.8,0.3-3.8,1-3.8,2.1c0,1,0.6,1.3,1.5,1.3C121.7,387,122.3,386.6,123.1,385.8z"/>
		<path class="st3" d="M127.2,375.6h1.4v8.3h0l3.6-4.4h1.6l-2.8,3.4l3.2,5h-1.5l-2.5-4l-1.6,1.8v2.2h-1.4V375.6z"/>
		<path class="st3" d="M134.8,383.7c0-2.7,1.8-4.4,3.8-4.4c2.1,0,3.3,1.5,3.3,3.9c0,0.3,0,0.6-0.1,0.8h-5.7c0.1,1.8,1.2,2.9,2.8,2.9
			c0.8,0,1.5-0.2,2.1-0.7l0.5,0.9c-0.7,0.5-1.6,0.9-2.8,0.9C136.6,388.1,134.8,386.5,134.8,383.7z M140.7,383c0-1.7-0.8-2.6-2.1-2.6
			c-1.2,0-2.2,1-2.4,2.6H140.7z"/>
		<path class="st3" d="M147.4,386.2v-10.6h1.4v10.7c0,0.4,0.2,0.6,0.4,0.6c0.1,0,0.1,0,0.3,0l0.2,1.1c-0.2,0.1-0.4,0.1-0.8,0.1
			C147.9,388.1,147.4,387.4,147.4,386.2z"/>
		<path class="st3" d="M151.2,383.7c0-2.7,1.8-4.4,3.8-4.4c2.1,0,3.3,1.5,3.3,3.9c0,0.3,0,0.6-0.1,0.8h-5.7c0.1,1.8,1.2,2.9,2.8,2.9
			c0.8,0,1.5-0.2,2.1-0.7l0.5,0.9c-0.7,0.5-1.6,0.9-2.8,0.9C153,388.1,151.2,386.5,151.2,383.7z M157.1,383c0-1.7-0.8-2.6-2.1-2.6
			c-1.2,0-2.2,1-2.4,2.6H157.1z"/>
		<path class="st3" d="M159.3,379.5h1.5l1.6,4.8c0.3,0.8,0.5,1.7,0.8,2.5h0.1c0.2-0.8,0.5-1.7,0.8-2.5l1.6-4.8h1.4l-3,8.4h-1.6
			L159.3,379.5z"/>
		<path class="st3" d="M167.8,383.7c0-2.7,1.8-4.4,3.8-4.4c2.1,0,3.3,1.5,3.3,3.9c0,0.3,0,0.6-0.1,0.8h-5.7c0.1,1.8,1.2,2.9,2.8,2.9
			c0.8,0,1.5-0.2,2.1-0.7l0.5,0.9c-0.7,0.5-1.6,0.9-2.8,0.9C169.6,388.1,167.8,386.5,167.8,383.7z M173.7,383c0-1.7-0.8-2.6-2.1-2.6
			c-1.2,0-2.2,1-2.4,2.6H173.7z"/>
		<path class="st3" d="M177,379.5h1.2l0.1,1.5h0c0.6-1.1,1.4-1.7,2.4-1.7c0.4,0,0.6,0,0.9,0.2l-0.3,1.2c-0.3-0.1-0.5-0.1-0.8-0.1
			c-0.7,0-1.6,0.5-2.1,1.9v5.4H177V379.5z"/>
		<path class="st3" d="M182.1,385.7c0-1.8,1.6-2.7,5.2-3.1c0-1.1-0.4-2.1-1.7-2.1c-1,0-1.9,0.4-2.5,0.9l-0.6-1
			c0.8-0.5,2-1.1,3.3-1.1c2,0,2.9,1.4,2.9,3.4v5.2h-1.2l-0.1-1h0c-0.8,0.7-1.7,1.2-2.8,1.2C183.1,388.1,182.1,387.2,182.1,385.7z
			 M187.2,385.8v-2.3c-2.8,0.3-3.8,1-3.8,2.1c0,1,0.6,1.3,1.5,1.3C185.7,387,186.4,386.6,187.2,385.8z"/>
		<path class="st3" d="M190.7,389.5c0-0.7,0.5-1.4,1.3-1.9v-0.1c-0.4-0.3-0.8-0.7-0.8-1.4c0-0.7,0.5-1.3,0.9-1.6v-0.1
			c-0.6-0.4-1.1-1.3-1.1-2.3c0-1.8,1.5-3,3.2-3c0.5,0,0.9,0.1,1.2,0.2h2.9v1.1h-1.7c0.4,0.4,0.7,1,0.7,1.7c0,1.8-1.4,2.9-3.1,2.9
			c-0.4,0-0.9-0.1-1.3-0.3c-0.3,0.3-0.5,0.5-0.5,1c0,0.5,0.3,0.9,1.5,0.9h1.6c1.9,0,2.9,0.6,2.9,2c0,1.6-1.6,2.9-4.2,2.9
			C192.1,391.7,190.7,390.9,190.7,389.5z M197,389.1c0-0.8-0.6-1-1.7-1h-1.5c-0.3,0-0.7,0-1.1-0.1c-0.6,0.4-0.9,0.9-0.9,1.4
			c0,0.9,0.9,1.5,2.4,1.5C195.9,390.8,197,389.9,197,389.1z M195.9,382.3c0-1.2-0.8-2-1.8-2c-1,0-1.8,0.7-1.8,2c0,1.2,0.8,2,1.8,2
			C195.1,384.3,195.9,383.5,195.9,382.3z"/>
		<path class="st3" d="M199.1,383.7c0-2.7,1.8-4.4,3.8-4.4c2.1,0,3.3,1.5,3.3,3.9c0,0.3,0,0.6-0.1,0.8h-5.7c0.1,1.8,1.2,2.9,2.8,2.9
			c0.8,0,1.5-0.2,2.1-0.7l0.5,0.9c-0.7,0.5-1.6,0.9-2.8,0.9C200.9,388.1,199.1,386.5,199.1,383.7z M205,383c0-1.7-0.8-2.6-2.1-2.6
			c-1.2,0-2.2,1-2.4,2.6H205z"/>
		<path class="st3" d="M207.4,386.9l0.7-0.9c0.7,0.6,1.5,1,2.5,1c1.1,0,1.7-0.6,1.7-1.3c0-0.8-1-1.2-1.9-1.6c-1.2-0.4-2.5-1-2.5-2.4
			c0-1.3,1.1-2.4,2.9-2.4c1,0,1.9,0.4,2.6,0.9l-0.7,0.9c-0.6-0.4-1.2-0.7-1.9-0.7c-1.1,0-1.5,0.6-1.5,1.2c0,0.8,0.9,1.1,1.9,1.5
			c1.2,0.5,2.6,1,2.6,2.5c0,1.4-1.1,2.5-3.1,2.5C209.3,388.1,208.2,387.6,207.4,386.9z"/>
		<path class="st3" d="M219.3,385.3v-4.6H218v-1.1l1.3-0.1l0.2-2.3h1.2v2.3h2.3v1.1h-2.3v4.7c0,1,0.3,1.6,1.3,1.6
			c0.3,0,0.7-0.1,1-0.2l0.3,1.1c-0.5,0.2-1,0.3-1.5,0.3C219.9,388.1,219.3,387,219.3,385.3z"/>
		<path class="st3" d="M224.8,375.6h1.4v3.4l0,1.7c0.8-0.8,1.6-1.4,2.8-1.4c1.8,0,2.6,1.1,2.6,3.3v5.3h-1.4v-5.1
			c0-1.6-0.5-2.2-1.6-2.2c-0.9,0-1.5,0.4-2.3,1.3v6.1h-1.4V375.6z"/>
		<path class="st3" d="M233.6,383.7c0-2.7,1.8-4.4,3.8-4.4c2.1,0,3.3,1.5,3.3,3.9c0,0.3,0,0.6-0.1,0.8H235c0.1,1.8,1.2,2.9,2.8,2.9
			c0.8,0,1.5-0.2,2.1-0.7l0.5,0.9c-0.7,0.5-1.6,0.9-2.8,0.9C235.4,388.1,233.6,386.5,233.6,383.7z M239.5,383c0-1.7-0.8-2.6-2.1-2.6
			c-1.2,0-2.2,1-2.4,2.6H239.5z"/>
		<path class="st3" d="M246.3,376.6h1.4v10.1h4.9v1.2h-6.4V376.6z"/>
		<path class="st3" d="M254.1,385.7c0-1.8,1.6-2.7,5.2-3.1c0-1.1-0.4-2.1-1.7-2.1c-1,0-1.9,0.4-2.5,0.9l-0.6-1
			c0.8-0.5,2-1.1,3.3-1.1c2,0,2.9,1.4,2.9,3.4v5.2h-1.2l-0.1-1h0c-0.8,0.7-1.7,1.2-2.8,1.2C255.1,388.1,254.1,387.2,254.1,385.7z
			 M259.2,385.8v-2.3c-2.8,0.3-3.8,1-3.8,2.1c0,1,0.6,1.3,1.5,1.3C257.7,387,258.4,386.6,259.2,385.8z"/>
		<path class="st3" d="M263.3,375.6h1.4v8.3h0l3.6-4.4h1.6l-2.8,3.4l3.2,5h-1.5l-2.5-4l-1.6,1.8v2.2h-1.4V375.6z"/>
		<path class="st3" d="M270.9,383.7c0-2.7,1.8-4.4,3.8-4.4c2.1,0,3.3,1.5,3.3,3.9c0,0.3,0,0.6-0.1,0.8h-5.7c0.1,1.8,1.2,2.9,2.8,2.9
			c0.8,0,1.5-0.2,2.1-0.7l0.5,0.9c-0.7,0.5-1.6,0.9-2.8,0.9C272.7,388.1,270.9,386.5,270.9,383.7z M276.8,383c0-1.7-0.8-2.6-2.1-2.6
			c-1.2,0-2.2,1-2.4,2.6H276.8z"/>
		<path class="st3" d="M280.1,375.6h1.4v3.4l0,1.7c0.8-0.8,1.6-1.4,2.8-1.4c1.8,0,2.6,1.1,2.6,3.3v5.3h-1.4v-5.1
			c0-1.6-0.5-2.2-1.6-2.2c-0.9,0-1.5,0.4-2.3,1.3v6.1h-1.4V375.6z"/>
		<path class="st3" d="M288.8,383.7c0-2.8,1.8-4.4,3.9-4.4s3.9,1.6,3.9,4.4c0,2.8-1.8,4.4-3.9,4.4S288.8,386.5,288.8,383.7z
			 M295.1,383.7c0-1.9-1-3.2-2.4-3.2s-2.4,1.3-2.4,3.2c0,1.9,1,3.2,2.4,3.2S295.1,385.6,295.1,383.7z"/>
		<path class="st3" d="M298.7,384.8v-5.3h1.4v5.1c0,1.6,0.5,2.2,1.6,2.2c0.9,0,1.5-0.4,2.3-1.4v-5.9h1.4v8.4h-1.2l-0.1-1.3h0
			c-0.8,0.9-1.6,1.5-2.8,1.5C299.5,388.1,298.7,386.9,298.7,384.8z"/>
		<path class="st3" d="M307.2,386.9l0.7-0.9c0.7,0.6,1.5,1,2.5,1c1.1,0,1.7-0.6,1.7-1.3c0-0.8-1-1.2-1.9-1.6c-1.2-0.4-2.5-1-2.5-2.4
			c0-1.3,1.1-2.4,2.9-2.4c1,0,1.9,0.4,2.6,0.9l-0.7,0.9c-0.6-0.4-1.2-0.7-1.9-0.7c-1.1,0-1.5,0.6-1.5,1.2c0,0.8,0.9,1.1,1.9,1.5
			c1.2,0.5,2.6,1,2.6,2.5c0,1.4-1.1,2.5-3.1,2.5C309.2,388.1,308,387.6,307.2,386.9z"/>
		<path class="st3" d="M314.8,383.7c0-2.7,1.8-4.4,3.8-4.4c2.1,0,3.3,1.5,3.3,3.9c0,0.3,0,0.6-0.1,0.8h-5.7c0.1,1.8,1.2,2.9,2.8,2.9
			c0.8,0,1.5-0.2,2.1-0.7l0.5,0.9c-0.7,0.5-1.6,0.9-2.8,0.9C316.6,388.1,314.8,386.5,314.8,383.7z M320.7,383c0-1.7-0.8-2.6-2.1-2.6
			c-1.2,0-2.2,1-2.4,2.6H320.7z"/>
		<path class="st3" d="M326.9,385.7c0-1.8,1.6-2.7,5.2-3.1c0-1.1-0.4-2.1-1.7-2.1c-1,0-1.9,0.4-2.5,0.9l-0.6-1
			c0.8-0.5,2-1.1,3.3-1.1c2,0,2.9,1.4,2.9,3.4v5.2h-1.2l-0.1-1h0c-0.8,0.7-1.7,1.2-2.8,1.2C327.9,388.1,326.9,387.2,326.9,385.7z
			 M332,385.8v-2.3c-2.8,0.3-3.8,1-3.8,2.1c0,1,0.6,1.3,1.5,1.3C330.6,387,331.2,386.6,332,385.8z"/>
		<path class="st3" d="M336.1,379.5h1.2l0.1,1.5h0c0.6-1.1,1.4-1.7,2.4-1.7c0.4,0,0.6,0,0.9,0.2l-0.3,1.2c-0.3-0.1-0.5-0.1-0.8-0.1
			c-0.7,0-1.6,0.5-2.1,1.9v5.4h-1.4V379.5z"/>
		<path class="st3" d="M341.3,383.7c0-2.8,1.9-4.4,4-4.4c1.1,0,1.9,0.5,2.5,1l-0.7,0.9c-0.5-0.4-1-0.8-1.7-0.8
			c-1.5,0-2.6,1.3-2.6,3.2c0,1.9,1.1,3.2,2.6,3.2c0.8,0,1.5-0.4,2-0.8l0.6,0.9c-0.7,0.7-1.7,1.1-2.7,1.1
			C343,388.1,341.3,386.5,341.3,383.7z"/>
		<path class="st3" d="M349.8,375.6h1.4v3.4l0,1.7c0.8-0.8,1.6-1.4,2.8-1.4c1.8,0,2.6,1.1,2.6,3.3v5.3h-1.4v-5.1
			c0-1.6-0.5-2.2-1.6-2.2c-0.9,0-1.5,0.4-2.3,1.3v6.1h-1.4V375.6z"/>
		<path class="st3" d="M358.9,376.9c0-0.6,0.4-0.9,1-0.9c0.6,0,1,0.3,1,0.9c0,0.5-0.4,0.9-1,0.9
			C359.3,377.8,358.9,377.4,358.9,376.9z M359.2,379.5h1.4v8.4h-1.4V379.5z"/>
		<path class="st3" d="M363.7,385.3v-4.6h-1.3v-1.1l1.3-0.1l0.2-2.3h1.2v2.3h2.3v1.1h-2.3v4.7c0,1,0.3,1.6,1.3,1.6
			c0.3,0,0.7-0.1,1-0.2l0.3,1.1c-0.5,0.2-1,0.3-1.5,0.3C364.3,388.1,363.7,387,363.7,385.3z"/>
		<path class="st3" d="M368.4,383.7c0-2.7,1.8-4.4,3.8-4.4c2.1,0,3.3,1.5,3.3,3.9c0,0.3,0,0.6-0.1,0.8h-5.7c0.1,1.8,1.2,2.9,2.8,2.9
			c0.8,0,1.5-0.2,2.1-0.7l0.5,0.9c-0.7,0.5-1.6,0.9-2.8,0.9C370.2,388.1,368.4,386.5,368.4,383.7z M374.3,383c0-1.7-0.8-2.6-2.1-2.6
			c-1.2,0-2.2,1-2.4,2.6H374.3z"/>
		<path class="st3" d="M376.9,383.7c0-2.8,1.9-4.4,4-4.4c1.1,0,1.9,0.5,2.5,1l-0.7,0.9c-0.5-0.4-1-0.8-1.7-0.8
			c-1.5,0-2.6,1.3-2.6,3.2c0,1.9,1.1,3.2,2.6,3.2c0.8,0,1.5-0.4,2-0.8l0.6,0.9c-0.7,0.7-1.7,1.1-2.7,1.1
			C378.7,388.1,376.9,386.5,376.9,383.7z"/>
		<path class="st3" d="M385.5,385.3v-4.6h-1.3v-1.1l1.3-0.1l0.2-2.3h1.2v2.3h2.3v1.1h-2.3v4.7c0,1,0.3,1.6,1.3,1.6
			c0.3,0,0.7-0.1,1-0.2l0.3,1.1c-0.5,0.2-1,0.3-1.5,0.3C386.1,388.1,385.5,387,385.5,385.3z"/>
		<path class="st3" d="M391,384.8v-5.3h1.4v5.1c0,1.6,0.5,2.2,1.6,2.2c0.9,0,1.5-0.4,2.3-1.4v-5.9h1.4v8.4h-1.2l-0.1-1.3h0
			c-0.8,0.9-1.6,1.5-2.8,1.5C391.8,388.1,391,386.9,391,384.8z"/>
		<path class="st3" d="M400.5,379.5h1.2l0.1,1.5h0c0.6-1.1,1.4-1.7,2.4-1.7c0.4,0,0.6,0,0.9,0.2l-0.3,1.2c-0.3-0.1-0.5-0.1-0.8-0.1
			c-0.7,0-1.6,0.5-2.1,1.9v5.4h-1.4V379.5z"/>
		<path class="st3" d="M405.6,383.7c0-2.7,1.8-4.4,3.8-4.4c2.1,0,3.3,1.5,3.3,3.9c0,0.3,0,0.6-0.1,0.8h-5.7c0.1,1.8,1.2,2.9,2.8,2.9
			c0.8,0,1.5-0.2,2.1-0.7l0.5,0.9c-0.7,0.5-1.6,0.9-2.8,0.9C407.4,388.1,405.6,386.5,405.6,383.7z M411.5,383c0-1.7-0.8-2.6-2.1-2.6
			c-1.2,0-2.2,1-2.4,2.6H411.5z"/>
		<path class="st3" d="M418.5,385.3v-4.6h-1.3v-1.1l1.3-0.1l0.2-2.3h1.2v2.3h2.3v1.1h-2.3v4.7c0,1,0.3,1.6,1.3,1.6
			c0.3,0,0.7-0.1,1-0.2l0.3,1.1c-0.5,0.2-1,0.3-1.5,0.3C419.1,388.1,418.5,387,418.5,385.3z"/>
		<path class="st3" d="M423.3,383.7c0-2.8,1.8-4.4,3.9-4.4s3.9,1.6,3.9,4.4c0,2.8-1.8,4.4-3.9,4.4S423.3,386.5,423.3,383.7z
			 M429.6,383.7c0-1.9-1-3.2-2.4-3.2s-2.4,1.3-2.4,3.2c0,1.9,1,3.2,2.4,3.2S429.6,385.6,429.6,383.7z"/>
		<path class="st3" d="M436.7,379.5h1.2l0.1,1h0c0.8-0.6,1.7-1.2,2.7-1.2c2.2,0,3.3,1.7,3.3,4.3c0,2.9-1.7,4.5-3.6,4.5
			c-0.8,0-1.6-0.4-2.3-1l0,1.5v2.8h-1.4V379.5z M442.6,383.6c0-1.9-0.6-3.1-2.2-3.1c-0.7,0-1.4,0.4-2.3,1.2v4.4
			c0.8,0.6,1.5,0.9,2.1,0.9C441.6,386.9,442.6,385.7,442.6,383.6z"/>
		<path class="st3" d="M446.3,379.5h1.2l0.1,1.5h0c0.6-1.1,1.4-1.7,2.4-1.7c0.4,0,0.6,0,0.9,0.2l-0.3,1.2c-0.3-0.1-0.5-0.1-0.8-0.1
			c-0.7,0-1.6,0.5-2.1,1.9v5.4h-1.4V379.5z"/>
		<path class="st3" d="M451.5,383.7c0-2.8,1.8-4.4,3.9-4.4s3.9,1.6,3.9,4.4c0,2.8-1.8,4.4-3.9,4.4S451.5,386.5,451.5,383.7z
			 M457.8,383.7c0-1.9-1-3.2-2.4-3.2s-2.4,1.3-2.4,3.2c0,1.9,1,3.2,2.4,3.2S457.8,385.6,457.8,383.7z"/>
		<path class="st3" d="M460.2,379.5h1.5l1.6,4.8c0.3,0.8,0.5,1.7,0.8,2.5h0.1c0.2-0.8,0.5-1.7,0.8-2.5l1.6-4.8h1.4l-3,8.4h-1.6
			L460.2,379.5z"/>
		<path class="st3" d="M469.2,376.9c0-0.6,0.4-0.9,1-0.9s1,0.3,1,0.9c0,0.5-0.4,0.9-1,0.9S469.2,377.4,469.2,376.9z M469.4,379.5
			h1.4v8.4h-1.4V379.5z"/>
		<path class="st3" d="M473.1,383.7c0-2.7,1.7-4.4,3.6-4.4c1,0,1.6,0.4,2.4,1l-0.1-1.5v-3.2h1.4v12.3h-1.1l-0.1-1h0
			c-0.7,0.6-1.5,1.2-2.5,1.2C474.4,388.1,473.1,386.5,473.1,383.7z M479,385.7v-4.4c-0.7-0.6-1.3-0.9-2-0.9c-1.4,0-2.4,1.3-2.4,3.2
			c0,2,0.8,3.2,2.3,3.2C477.6,386.9,478.3,386.5,479,385.7z"/>
		<path class="st3" d="M482.6,383.7c0-2.7,1.8-4.4,3.8-4.4c2.1,0,3.3,1.5,3.3,3.9c0,0.3,0,0.6-0.1,0.8H484c0.1,1.8,1.2,2.9,2.8,2.9
			c0.8,0,1.5-0.2,2.1-0.7l0.5,0.9c-0.7,0.5-1.6,0.9-2.8,0.9C484.4,388.1,482.6,386.5,482.6,383.7z M488.5,383c0-1.7-0.8-2.6-2.1-2.6
			c-1.2,0-2.2,1-2.4,2.6H488.5z"/>
		<path class="st3" d="M74.8,410.3c0-2.7,1.8-4.4,3.8-4.4c2.1,0,3.3,1.5,3.3,3.9c0,0.3,0,0.6-0.1,0.8h-5.7c0.1,1.8,1.2,2.9,2.8,2.9
			c0.8,0,1.5-0.2,2.1-0.7l0.5,0.9c-0.7,0.5-1.6,0.9-2.8,0.9C76.6,414.7,74.8,413.1,74.8,410.3z M80.7,409.6c0-1.7-0.8-2.6-2.1-2.6
			c-1.2,0-2.2,1-2.4,2.6H80.7z"/>
		<path class="st3" d="M84.4,406.1h1.2l0.1,1.2h0c0.8-0.8,1.7-1.4,2.8-1.4c1.8,0,2.6,1.1,2.6,3.3v5.3h-1.4v-5.1
			c0-1.6-0.5-2.2-1.6-2.2c-0.9,0-1.5,0.4-2.3,1.3v6.1h-1.4V406.1z"/>
		<path class="st3" d="M94.6,411.9v-4.6h-1.3v-1.1l1.3-0.1l0.2-2.3H96v2.3h2.3v1.1H96v4.7c0,1,0.3,1.6,1.3,1.6c0.3,0,0.7-0.1,1-0.2
			l0.3,1.1c-0.5,0.2-1,0.3-1.5,0.3C95.2,414.7,94.6,413.6,94.6,411.9z"/>
		<path class="st3" d="M99.8,410.3c0-2.7,1.8-4.4,3.8-4.4c2.1,0,3.3,1.5,3.3,3.9c0,0.3,0,0.6-0.1,0.8h-5.7c0.1,1.8,1.2,2.9,2.8,2.9
			c0.8,0,1.5-0.2,2.1-0.7l0.5,0.9c-0.7,0.5-1.6,0.9-2.8,0.9C101.6,414.7,99.8,413.1,99.8,410.3z M105.7,409.6c0-1.7-0.8-2.6-2.1-2.6
			c-1.2,0-2.2,1-2.4,2.6H105.7z"/>
		<path class="st3" d="M109.5,406.1h1.2l0.1,1.5h0c0.6-1.1,1.4-1.7,2.4-1.7c0.4,0,0.6,0,0.9,0.2l-0.3,1.2c-0.3-0.1-0.5-0.1-0.8-0.1
			c-0.7,0-1.6,0.5-2.1,1.9v5.4h-1.4V406.1z"/>
		<path class="st3" d="M115.9,406.1h1.2l0.1,1h0c0.8-0.6,1.7-1.2,2.7-1.2c2.2,0,3.3,1.7,3.3,4.3c0,2.9-1.7,4.5-3.6,4.5
			c-0.8,0-1.6-0.4-2.3-1l0,1.5v2.8h-1.4V406.1z M121.8,410.2c0-1.9-0.6-3.1-2.2-3.1c-0.7,0-1.4,0.4-2.3,1.2v4.4
			c0.8,0.6,1.5,0.9,2.1,0.9C120.8,413.5,121.8,412.3,121.8,410.2z"/>
		<path class="st3" d="M126,406.1h1.2l0.1,1.5h0c0.6-1.1,1.4-1.7,2.4-1.7c0.4,0,0.6,0,0.9,0.2l-0.3,1.2c-0.3-0.1-0.5-0.1-0.8-0.1
			c-0.7,0-1.6,0.5-2.1,1.9v5.4H126V406.1z"/>
		<path class="st3" d="M132.2,403.4c0-0.6,0.4-0.9,1-0.9c0.6,0,1,0.3,1,0.9c0,0.5-0.4,0.9-1,0.9C132.6,404.4,132.2,404,132.2,403.4z
			 M132.5,406.1h1.4v8.4h-1.4V406.1z"/>
		<path class="st3" d="M136.2,413.5l0.7-0.9c0.7,0.6,1.5,1,2.5,1c1.1,0,1.7-0.6,1.7-1.3c0-0.8-1-1.2-1.9-1.6c-1.2-0.4-2.5-1-2.5-2.4
			c0-1.3,1.1-2.4,2.9-2.4c1,0,1.9,0.4,2.6,0.9l-0.7,0.9c-0.6-0.4-1.2-0.7-1.9-0.7c-1.1,0-1.5,0.6-1.5,1.2c0,0.8,0.9,1.1,1.9,1.5
			c1.2,0.5,2.6,1,2.6,2.5c0,1.4-1.1,2.5-3.1,2.5C138.2,414.7,137,414.2,136.2,413.5z"/>
		<path class="st3" d="M144.3,410.3c0-2.7,1.8-4.4,3.8-4.4c2.1,0,3.3,1.5,3.3,3.9c0,0.3,0,0.6-0.1,0.8h-5.7c0.1,1.8,1.2,2.9,2.8,2.9
			c0.8,0,1.5-0.2,2.1-0.7l0.5,0.9c-0.7,0.5-1.6,0.9-2.8,0.9C146,414.7,144.3,413.1,144.3,410.3z M150.1,409.6c0-1.7-0.8-2.6-2.1-2.6
			c-1.2,0-2.2,1-2.4,2.6H150.1z"/>
		<path class="st3" d="M153,413.5l0.7-0.9c0.7,0.6,1.5,1,2.5,1c1.1,0,1.7-0.6,1.7-1.3c0-0.8-1-1.2-1.9-1.6c-1.2-0.4-2.5-1-2.5-2.4
			c0-1.3,1.1-2.4,2.9-2.4c1,0,1.9,0.4,2.6,0.9l-0.7,0.9c-0.6-0.4-1.2-0.7-1.9-0.7c-1.1,0-1.5,0.6-1.5,1.2c0,0.8,0.9,1.1,1.9,1.5
			c1.2,0.5,2.6,1,2.6,2.5c0,1.4-1.1,2.5-3.1,2.5C154.9,414.7,153.8,414.2,153,413.5z"/>
		<path class="st3" d="M164.6,406.1h1.4l1.3,4.9c0.2,0.8,0.3,1.6,0.5,2.3h0.1c0.2-0.8,0.4-1.6,0.6-2.3l1.3-4.9h1.4l1.3,4.9
			c0.2,0.8,0.4,1.6,0.6,2.3h0.1c0.2-0.8,0.3-1.5,0.5-2.3l1.2-4.9h1.3l-2.3,8.4h-1.7l-1.2-4.5c-0.2-0.8-0.4-1.6-0.6-2.4h-0.1
			c-0.2,0.8-0.4,1.6-0.6,2.4l-1.2,4.5h-1.7L164.6,406.1z"/>
		<path class="st3" d="M178.2,403.4c0-0.6,0.4-0.9,1-0.9c0.6,0,1,0.3,1,0.9c0,0.5-0.4,0.9-1,0.9C178.6,404.4,178.2,404,178.2,403.4z
			 M178.4,406.1h1.4v8.4h-1.4V406.1z"/>
		<path class="st3" d="M183.4,411.9v-4.6h-1.3v-1.1l1.3-0.1l0.2-2.3h1.2v2.3h2.3v1.1h-2.3v4.7c0,1,0.3,1.6,1.3,1.6
			c0.3,0,0.7-0.1,1-0.2l0.3,1.1c-0.5,0.2-1,0.3-1.5,0.3C184,414.7,183.4,413.6,183.4,411.9z"/>
		<path class="st3" d="M189.5,402.2h1.4v3.4l0,1.7c0.8-0.8,1.6-1.4,2.8-1.4c1.8,0,2.6,1.1,2.6,3.3v5.3h-1.4v-5.1
			c0-1.6-0.5-2.2-1.6-2.2c-0.9,0-1.5,0.4-2.3,1.3v6.1h-1.4V402.2z"/>
		<path class="st3" d="M202.6,410.3c0-2.8,1.8-4.4,3.9-4.4s3.9,1.6,3.9,4.4c0,2.8-1.8,4.4-3.9,4.4S202.6,413.1,202.6,410.3z
			 M208.9,410.3c0-1.9-1-3.2-2.4-3.2s-2.4,1.3-2.4,3.2s1,3.2,2.4,3.2S208.9,412.2,208.9,410.3z"/>
		<path class="st3" d="M213,411.4v-5.3h1.4v5.1c0,1.6,0.5,2.2,1.6,2.2c0.9,0,1.5-0.4,2.3-1.4v-5.9h1.4v8.4h-1.2l-0.1-1.3h0
			c-0.8,0.9-1.6,1.5-2.8,1.5C213.8,414.7,213,413.5,213,411.4z"/>
		<path class="st3" d="M223.2,411.9v-4.6h-1.3v-1.1l1.3-0.1l0.2-2.3h1.2v2.3h2.3v1.1h-2.3v4.7c0,1,0.3,1.6,1.3,1.6
			c0.3,0,0.7-0.1,1-0.2l0.3,1.1c-0.5,0.2-1,0.3-1.5,0.3C223.8,414.7,223.2,413.6,223.2,411.9z"/>
		<path class="st3" d="M228.1,409.6h4v1.1h-4V409.6z"/>
		<path class="st3" d="M234,410.3c0-2.8,1.8-4.4,3.9-4.4s3.9,1.6,3.9,4.4c0,2.8-1.8,4.4-3.9,4.4S234,413.1,234,410.3z M240.3,410.3
			c0-1.9-1-3.2-2.4-3.2s-2.4,1.3-2.4,3.2s1,3.2,2.4,3.2S240.3,412.2,240.3,410.3z"/>
		<path class="st3" d="M248.2,403.3c-0.3-0.1-0.6-0.2-0.9-0.2c-0.8,0-1.2,0.6-1.2,1.7v1.3h1.8v1.1h-1.8v7.2h-1.4v-7.2h-1.1v-1.1
			l1.1-0.1v-1.3c0-1.7,0.8-2.8,2.4-2.8c0.5,0,1,0.1,1.4,0.3L248.2,403.3z"/>
		<path class="st3" d="M249,409.6h4v1.1h-4V409.6z"/>
		<path class="st3" d="M255.4,411.9v-4.6h-1.3v-1.1l1.3-0.1l0.2-2.3h1.2v2.3h2.3v1.1h-2.3v4.7c0,1,0.3,1.6,1.3,1.6
			c0.3,0,0.7-0.1,1-0.2l0.3,1.1c-0.5,0.2-1,0.3-1.5,0.3C256,414.7,255.4,413.6,255.4,411.9z"/>
		<path class="st3" d="M261.4,402.2h1.4v3.4l0,1.7c0.8-0.8,1.6-1.4,2.8-1.4c1.8,0,2.6,1.1,2.6,3.3v5.3h-1.4v-5.1
			c0-1.6-0.5-2.2-1.6-2.2c-0.9,0-1.5,0.4-2.3,1.3v6.1h-1.4V402.2z"/>
		<path class="st3" d="M270.6,410.3c0-2.7,1.8-4.4,3.8-4.4c2.1,0,3.3,1.5,3.3,3.9c0,0.3,0,0.6-0.1,0.8H272c0.1,1.8,1.2,2.9,2.8,2.9
			c0.8,0,1.5-0.2,2.1-0.7l0.5,0.9c-0.7,0.5-1.6,0.9-2.8,0.9C272.4,414.7,270.6,413.1,270.6,410.3z M276.5,409.6
			c0-1.7-0.8-2.6-2.1-2.6c-1.2,0-2.2,1-2.4,2.6H276.5z"/>
		<path class="st3" d="M279.8,409.6h4v1.1h-4V409.6z"/>
		<path class="st3" d="M287.6,413.6L287.6,413.6l-0.2,0.9h-1.1v-12.3h1.4v3.4l0,1.5c0.8-0.7,1.7-1.2,2.6-1.2c2.2,0,3.4,1.7,3.4,4.3
			c0,2.9-1.7,4.5-3.6,4.5C289.2,414.7,288.3,414.3,287.6,413.6z M292.2,410.2c0-1.9-0.6-3.1-2.2-3.1c-0.7,0-1.5,0.4-2.3,1.2v4.4
			c0.7,0.6,1.5,0.9,2.1,0.9C291.2,413.5,292.2,412.3,292.2,410.2z"/>
		<path class="st3" d="M295.7,410.3c0-2.8,1.8-4.4,3.9-4.4s3.9,1.6,3.9,4.4c0,2.8-1.8,4.4-3.9,4.4S295.7,413.1,295.7,410.3z
			 M302,410.3c0-1.9-1-3.2-2.4-3.2s-2.4,1.3-2.4,3.2s1,3.2,2.4,3.2S302,412.2,302,410.3z"/>
		<path class="st3" d="M307.4,410.1l-2.5-4h1.5l1.1,1.9c0.3,0.5,0.6,0.9,0.8,1.4h0.1c0.3-0.5,0.5-0.9,0.8-1.4l1-1.9h1.5l-2.5,4.2
			l2.8,4.2h-1.5l-1.2-2c-0.3-0.5-0.6-1-0.9-1.5h-0.1c-0.3,0.5-0.6,1-0.9,1.5l-1.1,2h-1.5L307.4,410.1z"/>
		<path class="st3" d="M313.6,416.6c1-0.4,1.5-1.2,1.5-2.1c-0.1,0-0.1,0-0.2,0c-0.5,0-1-0.3-1-1c0-0.6,0.5-1,1.1-1
			c0.7,0,1.2,0.6,1.2,1.7c0,1.5-0.9,2.6-2.3,3.2L313.6,416.6z"/>
		<path class="st3" d="M322.2,410.3c0-2.8,1.9-4.4,4-4.4c1.1,0,1.9,0.5,2.5,1l-0.7,0.9c-0.5-0.4-1-0.8-1.7-0.8
			c-1.5,0-2.6,1.3-2.6,3.2s1.1,3.2,2.6,3.2c0.8,0,1.5-0.4,2-0.8l0.6,0.9c-0.7,0.7-1.7,1.1-2.7,1.1
			C324,414.7,322.2,413.1,322.2,410.3z"/>
		<path class="st3" d="M330.2,410.3c0-2.8,1.8-4.4,3.9-4.4s3.9,1.6,3.9,4.4c0,2.8-1.8,4.4-3.9,4.4S330.2,413.1,330.2,410.3z
			 M336.5,410.3c0-1.9-1-3.2-2.4-3.2s-2.4,1.3-2.4,3.2s1,3.2,2.4,3.2S336.5,412.2,336.5,410.3z"/>
		<path class="st3" d="M339.7,413.5l0.7-0.9c0.7,0.6,1.5,1,2.5,1c1.1,0,1.7-0.6,1.7-1.3c0-0.8-1-1.2-1.9-1.6c-1.2-0.4-2.5-1-2.5-2.4
			c0-1.3,1.1-2.4,2.9-2.4c1,0,1.9,0.4,2.6,0.9l-0.7,0.9c-0.6-0.4-1.2-0.7-1.9-0.7c-1.1,0-1.5,0.6-1.5,1.2c0,0.8,0.9,1.1,1.9,1.5
			c1.2,0.5,2.6,1,2.6,2.5c0,1.4-1.1,2.5-3.1,2.5C341.7,414.7,340.5,414.2,339.7,413.5z"/>
		<path class="st3" d="M348.3,411.9v-4.6H347v-1.1l1.3-0.1l0.2-2.3h1.2v2.3h2.3v1.1h-2.3v4.7c0,1,0.3,1.6,1.3,1.6
			c0.3,0,0.7-0.1,1-0.2l0.3,1.1c-0.5,0.2-1,0.3-1.5,0.3C348.9,414.7,348.3,413.6,348.3,411.9z"/>
		<path class="st3" d="M353.2,409.6h4v1.1h-4V409.6z"/>
		<path class="st3" d="M359.1,410.3c0-2.7,1.8-4.4,3.8-4.4c2.1,0,3.3,1.5,3.3,3.9c0,0.3,0,0.6-0.1,0.8h-5.7c0.1,1.8,1.2,2.9,2.8,2.9
			c0.8,0,1.5-0.2,2.1-0.7l0.5,0.9c-0.7,0.5-1.6,0.9-2.8,0.9C360.9,414.7,359.1,413.1,359.1,410.3z M365,409.6c0-1.7-0.8-2.6-2.1-2.6
			c-1.2,0-2.2,1-2.4,2.6H365z"/>
		<path class="st3" d="M377.5,403.3c-0.3-0.1-0.6-0.2-0.9-0.2c-0.8,0-1.2,0.6-1.2,1.7v1.3h1.8v1.1h-1.8v7.2h-1.4v-7.2h-3.5v7.2H369
			v-7.2h-1.1v-1.1l1.1-0.1V405c0-1.7,0.9-2.8,2.6-2.8c0.6,0,1.1,0.1,1.5,0.3l-0.3,1.1c-0.4-0.2-0.7-0.2-1.1-0.2
			c-0.8,0-1.3,0.6-1.3,1.7v1.1h3.5v-1.3c0-1.7,0.8-2.8,2.5-2.8c0.5,0,1,0.1,1.4,0.3L377.5,403.3z"/>
		<path class="st3" d="M378.4,410.3c0-2.7,1.8-4.4,3.8-4.4c2.1,0,3.3,1.5,3.3,3.9c0,0.3,0,0.6-0.1,0.8h-5.7c0.1,1.8,1.2,2.9,2.8,2.9
			c0.8,0,1.5-0.2,2.1-0.7l0.5,0.9c-0.7,0.5-1.6,0.9-2.8,0.9C380.2,414.7,378.4,413.1,378.4,410.3z M384.3,409.6
			c0-1.7-0.8-2.6-2.1-2.6c-1.2,0-2.2,1-2.4,2.6H384.3z"/>
		<path class="st3" d="M387.4,410.3c0-2.8,1.9-4.4,4-4.4c1.1,0,1.9,0.5,2.5,1l-0.7,0.9c-0.5-0.4-1-0.8-1.7-0.8
			c-1.5,0-2.6,1.3-2.6,3.2s1.1,3.2,2.6,3.2c0.8,0,1.5-0.4,2-0.8l0.6,0.9c-0.7,0.7-1.7,1.1-2.7,1.1
			C389.1,414.7,387.4,413.1,387.4,410.3z"/>
		<path class="st3" d="M396.5,411.9v-4.6h-1.3v-1.1l1.3-0.1l0.2-2.3h1.2v2.3h2.3v1.1h-2.3v4.7c0,1,0.3,1.6,1.3,1.6
			c0.3,0,0.7-0.1,1-0.2l0.3,1.1c-0.5,0.2-1,0.3-1.5,0.3C397.1,414.7,396.5,413.6,396.5,411.9z"/>
		<path class="st3" d="M402.3,403.4c0-0.6,0.4-0.9,1-0.9s1,0.3,1,0.9c0,0.5-0.4,0.9-1,0.9S402.3,404,402.3,403.4z M402.5,406.1h1.4
			v8.4h-1.4V406.1z"/>
		<path class="st3" d="M406,406.1h1.5l1.6,4.8c0.3,0.8,0.5,1.7,0.8,2.5h0.1c0.2-0.8,0.5-1.7,0.8-2.5l1.6-4.8h1.4l-3,8.4H409
			L406,406.1z"/>
		<path class="st3" d="M415.1,410.3c0-2.7,1.8-4.4,3.8-4.4c2.1,0,3.3,1.5,3.3,3.9c0,0.3,0,0.6-0.1,0.8h-5.7c0.1,1.8,1.2,2.9,2.8,2.9
			c0.8,0,1.5-0.2,2.1-0.7l0.5,0.9c-0.7,0.5-1.6,0.9-2.8,0.9C416.9,414.7,415.1,413.1,415.1,410.3z M421,409.6c0-1.7-0.8-2.6-2.1-2.6
			c-1.2,0-2.2,1-2.4,2.6H421z"/>
		<path class="st3" d="M428.8,403.2h3.4c2.3,0,3.9,0.8,3.9,2.8c0,1.1-0.6,2.1-1.7,2.5v0.1c1.4,0.3,2.3,1.2,2.3,2.7
			c0,2.2-1.8,3.3-4.3,3.3h-3.6V403.2z M431.9,408c1.9,0,2.7-0.7,2.7-1.9c0-1.3-0.9-1.8-2.7-1.8h-1.7v3.7H431.9z M432.2,413.3
			c1.9,0,3.1-0.7,3.1-2.2c0-1.4-1.1-2-3.1-2h-2v4.3H432.2z"/>
		<path class="st3" d="M439,403.4c0-0.6,0.4-0.9,1-0.9s1,0.3,1,0.9c0,0.5-0.4,0.9-1,0.9S439,404,439,403.4z M439.3,406.1h1.4v8.4
			h-1.4V406.1z"/>
		<path class="st3" d="M443.4,416.1c0-0.7,0.5-1.4,1.3-1.9v-0.1c-0.4-0.3-0.8-0.7-0.8-1.4c0-0.7,0.5-1.3,0.9-1.6v-0.1
			c-0.6-0.4-1.1-1.3-1.1-2.3c0-1.8,1.5-3,3.2-3c0.5,0,0.9,0.1,1.2,0.2h2.9v1.1h-1.7c0.4,0.4,0.7,1,0.7,1.7c0,1.8-1.4,2.9-3.1,2.9
			c-0.4,0-0.9-0.1-1.3-0.3c-0.3,0.3-0.5,0.5-0.5,1c0,0.5,0.3,0.9,1.5,0.9h1.6c1.9,0,2.9,0.6,2.9,2c0,1.6-1.6,2.9-4.2,2.9
			C444.8,418.3,443.4,417.5,443.4,416.1z M449.7,415.6c0-0.8-0.6-1-1.7-1h-1.5c-0.3,0-0.7,0-1.1-0.1c-0.6,0.4-0.9,0.9-0.9,1.4
			c0,0.9,0.9,1.5,2.4,1.5C448.7,417.4,449.7,416.5,449.7,415.6z M448.6,408.9c0-1.2-0.8-2-1.8-2s-1.8,0.7-1.8,2c0,1.2,0.8,2,1.8,2
			C447.8,410.9,448.6,410.1,448.6,408.9z"/>
		<path class="st3" d="M457.3,403.2h2.8c3.5,0,5.3,2,5.3,5.6c0,3.6-1.9,5.7-5.3,5.7h-2.9V403.2z M460,413.3c2.7,0,4-1.7,4-4.5
			c0-2.9-1.3-4.5-4-4.5h-1.3v9H460z"/>
		<path class="st3" d="M467.7,412.3c0-1.8,1.6-2.7,5.2-3.1c0-1.1-0.4-2.1-1.7-2.1c-1,0-1.9,0.4-2.5,0.9l-0.6-1
			c0.8-0.5,2-1.1,3.3-1.1c2,0,2.9,1.4,2.9,3.4v5.2h-1.2l-0.1-1h0c-0.8,0.7-1.7,1.2-2.8,1.2C468.7,414.7,467.7,413.8,467.7,412.3z
			 M472.9,412.4v-2.3c-2.8,0.3-3.8,1-3.8,2.1c0,1,0.6,1.3,1.5,1.3C471.4,413.5,472,413.2,472.9,412.4z"/>
		<path class="st3" d="M477.4,411.9v-4.6h-1.3v-1.1l1.3-0.1l0.2-2.3h1.2v2.3h2.3v1.1h-2.3v4.7c0,1,0.3,1.6,1.3,1.6
			c0.3,0,0.7-0.1,1-0.2l0.3,1.1c-0.5,0.2-1,0.3-1.5,0.3C478,414.7,477.4,413.6,477.4,411.9z"/>
		<path class="st3" d="M482.6,412.3c0-1.8,1.6-2.7,5.2-3.1c0-1.1-0.4-2.1-1.7-2.1c-1,0-1.9,0.4-2.5,0.9l-0.6-1
			c0.8-0.5,2-1.1,3.3-1.1c2,0,2.9,1.4,2.9,3.4v5.2H488l-0.1-1h0c-0.8,0.7-1.7,1.2-2.8,1.2C483.6,414.7,482.6,413.8,482.6,412.3z
			 M487.7,412.4v-2.3c-2.8,0.3-3.8,1-3.8,2.1c0,1,0.6,1.3,1.5,1.3C486.3,413.5,486.9,413.2,487.7,412.4z"/>
		<g>
			<path class="st3" d="M74.5,445.1l0.7-0.9c0.7,0.6,1.5,1,2.5,1c1.1,0,1.7-0.6,1.7-1.3c0-0.8-1-1.2-1.9-1.6c-1.2-0.4-2.5-1-2.5-2.4
				c0-1.3,1.1-2.4,2.9-2.4c1,0,1.9,0.4,2.6,0.9l-0.7,0.9c-0.6-0.4-1.2-0.7-1.9-0.7c-1.1,0-1.5,0.6-1.5,1.2c0,0.8,0.9,1.1,1.9,1.5
				c1.2,0.5,2.6,1,2.6,2.5c0,1.4-1.1,2.5-3.1,2.5C76.4,446.3,75.3,445.8,74.5,445.1z"/>
			<path class="st3" d="M82,441.9c0-2.8,1.8-4.4,3.9-4.4s3.9,1.6,3.9,4.4c0,2.8-1.8,4.4-3.9,4.4S82,444.7,82,441.9z M88.3,441.9
				c0-1.9-1-3.2-2.4-3.2s-2.4,1.3-2.4,3.2c0,1.9,1,3.2,2.4,3.2S88.3,443.8,88.3,441.9z"/>
			<path class="st3" d="M92,444.4v-10.6h1.4v10.7c0,0.4,0.2,0.6,0.4,0.6c0.1,0,0.1,0,0.3,0l0.2,1.1c-0.2,0.1-0.4,0.1-0.8,0.1
				C92.4,446.3,92,445.6,92,444.4z"/>
			<path class="st3" d="M96.3,443v-5.3h1.4v5.1c0,1.6,0.5,2.2,1.6,2.2c0.9,0,1.5-0.4,2.3-1.4v-5.9h1.4v8.4h-1.2l-0.1-1.3h0
				c-0.8,0.9-1.6,1.5-2.8,1.5C97.1,446.3,96.3,445.2,96.3,443z"/>
			<path class="st3" d="M106,443.5v-4.6h-1.3v-1.1l1.3-0.1l0.2-2.3h1.2v2.3h2.3v1.1h-2.3v4.7c0,1,0.3,1.6,1.3,1.6
				c0.3,0,0.7-0.1,1-0.2l0.3,1.1c-0.5,0.2-1,0.3-1.5,0.3C106.6,446.3,106,445.2,106,443.5z"/>
			<path class="st3" d="M111.3,435.1c0-0.6,0.4-0.9,1-0.9c0.6,0,1,0.3,1,0.9c0,0.5-0.4,0.9-1,0.9C111.7,436,111.3,435.6,111.3,435.1
				z M111.6,437.7h1.4v8.4h-1.4V437.7z"/>
			<path class="st3" d="M115.2,441.9c0-2.8,1.8-4.4,3.9-4.4s3.9,1.6,3.9,4.4c0,2.8-1.8,4.4-3.9,4.4S115.2,444.7,115.2,441.9z
				 M121.5,441.9c0-1.9-1-3.2-2.4-3.2s-2.4,1.3-2.4,3.2c0,1.9,1,3.2,2.4,3.2S121.5,443.8,121.5,441.9z"/>
			<path class="st3" d="M125.2,437.7h1.2l0.1,1.2h0c0.8-0.8,1.7-1.4,2.8-1.4c1.8,0,2.6,1.1,2.6,3.3v5.3h-1.4V441
				c0-1.6-0.5-2.2-1.6-2.2c-0.9,0-1.5,0.4-2.3,1.3v6.1h-1.4V437.7z"/>
			<path class="st3" d="M133.7,445.1l0.7-0.9c0.7,0.6,1.5,1,2.5,1c1.1,0,1.7-0.6,1.7-1.3c0-0.8-1-1.2-1.9-1.6
				c-1.2-0.4-2.5-1-2.5-2.4c0-1.3,1.1-2.4,2.9-2.4c1,0,1.9,0.4,2.6,0.9l-0.7,0.9c-0.6-0.4-1.2-0.7-1.9-0.7c-1.1,0-1.5,0.6-1.5,1.2
				c0,0.8,0.9,1.1,1.9,1.5c1.2,0.5,2.6,1,2.6,2.5c0,1.4-1.1,2.5-3.1,2.5C135.6,446.3,134.5,445.8,133.7,445.1z"/>
			<path class="st3" d="M141.6,445.2c0-0.6,0.5-1.1,1-1.1s1,0.5,1,1.1s-0.5,1.1-1,1.1S141.6,445.9,141.6,445.2z"/>
		</g>
	</g>
</g>
<g>
	<g>
		<path class="st8" d="M104.4,223.1h-7.5l1.3-9.3c0.4-3.3,1.1-7.1,2-11.5l-5.8,18.2h-7.3l-0.5-18.1c-0.1,2.5-0.2,4.6-0.4,6.3
			c-0.2,1.6-0.4,3.4-0.8,5.1l-1.6,9.3h-7.5l6-26.2h9.2l0.2,17.7l5.4-17.7h9.6L104.4,223.1z"/>
	</g>
	<g>
		<path class="st8" d="M129.4,214.2c-0.3,1.8-0.9,3.5-2,4.9c-1,1.4-2.4,2.6-4.1,3.4c-1.7,0.8-3.7,1.3-6.1,1.3
			c-3.2,0-5.5-0.7-7.1-2.1s-2.3-3.3-2.3-5.8c0-0.6,0.1-1.2,0.1-1.8l2.7-17.3h7.6l-2.7,17.1c-0.1,0.6-0.1,1.1-0.1,1.5
			c0,1,0.2,1.7,0.5,2.1c0.4,0.4,1,0.7,1.9,0.7c1.1,0,2-0.4,2.6-1.1c0.6-0.7,1-1.8,1.2-3.3l2.7-17.1h7.6L129.4,214.2z"/>
	</g>
	<g>
		<path class="st8" d="M143,196.8l-3.2,20.3h9.7l-1.7,6h-16.5l4.1-26.2H143z"/>
	</g>
	<g>
		<path class="st8" d="M170.4,196.8l-1.7,5.8h-5.8l-3.2,20.4H152l3.2-20.4H149l0.9-5.8H170.4z"/>
	</g>
	<g>
		<path class="st8" d="M179.7,196.8l-4.1,26.2H168l4.1-26.2H179.7z"/>
	</g>
	<g>
		<path class="st8" d="M180.5,212.4l0.9-5.7H194l-0.9,5.7H180.5z"/>
	</g>
	<g>
		<path class="st8" d="M218,199.5l-4.1,3.9c-0.6-0.6-1.3-1-1.9-1.3c-0.6-0.3-1.4-0.4-2.2-0.4c-1.5,0-2.7,0.6-3.6,1.8
			c-0.9,1.2-1.6,2.7-2,4.4c-0.4,1.7-0.6,3.3-0.7,4.9c-0.1,3.5,1.2,5.2,3.8,5.2c0.8,0,1.6-0.2,2.4-0.6c0.8-0.4,1.6-0.9,2.6-1.6
			l2.8,4.4c-1.2,1.1-2.6,2-4.2,2.6c-1.6,0.7-3.3,1-5.1,1c-2.1,0-3.9-0.4-5.4-1.3c-1.5-0.8-2.7-2.1-3.6-3.7c-0.8-1.6-1.2-3.6-1.2-6
			c0-2.7,0.6-5.3,1.6-7.9c1-2.6,2.6-4.7,4.7-6.4c2.1-1.7,4.8-2.5,8-2.5C213.4,196.1,216.1,197.2,218,199.5z"/>
	</g>
	<g>
		<path class="st8" d="M228.3,196.8l-3.2,20.3h9.7l-1.7,6h-16.5l4.1-26.2H228.3z"/>
	</g>
	<g>
		<path class="st8" d="M257.8,198.9c1.7,1.9,2.6,4.6,2.5,8c0,2.7-0.5,5.3-1.5,7.9c-1,2.6-2.5,4.7-4.6,6.4c-2.1,1.7-4.9,2.6-8.3,2.6
			c-3.3,0-5.9-1-7.7-2.9c-1.8-1.9-2.6-4.6-2.5-8c0-2.7,0.5-5.3,1.5-7.9s2.5-4.7,4.7-6.4c2.2-1.7,4.9-2.6,8.3-2.6
			C253.5,196.1,256.1,197,257.8,198.9z M245.9,203.7c-0.9,1.4-1.5,3-1.8,4.8c-0.3,1.8-0.5,3.5-0.6,5.1c0,1.7,0.2,2.9,0.7,3.6
			c0.5,0.7,1.3,1.1,2.4,1.1c1.5,0,2.7-0.7,3.5-2.1c0.9-1.4,1.5-3,1.8-4.8c0.3-1.8,0.5-3.6,0.6-5.2c0-1.7-0.2-2.8-0.7-3.6
			c-0.5-0.7-1.3-1.1-2.4-1.1C247.9,201.6,246.8,202.3,245.9,203.7z"/>
	</g>
	<g>
		<path class="st8" d="M283.1,214.2c-0.3,1.8-0.9,3.5-2,4.9c-1,1.4-2.4,2.6-4.1,3.4c-1.7,0.8-3.7,1.3-6.1,1.3
			c-3.2,0-5.5-0.7-7.1-2.1s-2.3-3.3-2.3-5.8c0-0.6,0.1-1.2,0.1-1.8l2.7-17.3h7.6l-2.7,17.1c-0.1,0.6-0.1,1.1-0.1,1.5
			c0,1,0.2,1.7,0.5,2.1c0.4,0.4,1,0.7,1.9,0.7c1.1,0,2-0.4,2.6-1.1c0.6-0.7,1-1.8,1.2-3.3l2.7-17.1h7.6L283.1,214.2z"/>
	</g>
	<g>
		<path class="st8" d="M306,199c2.2,1.5,3.2,4.1,3.2,7.7c-0.1,4.8-1.3,8.8-3.8,11.8c-2.4,3-6.3,4.5-11.8,4.5h-8.7l4.1-26.2h8.2
			C300.9,196.8,303.8,197.6,306,199z M295.8,202.3l-2.4,15.3h1.5c2.4,0,4-1.1,5-3.2c1-2.1,1.5-4.7,1.5-7.5c0-1.7-0.3-2.9-0.9-3.6
			c-0.6-0.7-1.7-1-3-1H295.8z"/>
	</g>
	<g>
		<path class="st3" d="M340.8,198.9c1.7,1.9,2.6,4.6,2.5,8c0,2.7-0.5,5.3-1.5,7.9c-1,2.6-2.5,4.7-4.6,6.4c-2.1,1.7-4.9,2.6-8.3,2.6
			c-3.3,0-5.9-1-7.7-2.9c-1.8-1.9-2.6-4.6-2.5-8c0-2.7,0.5-5.3,1.5-7.9c1-2.6,2.5-4.7,4.7-6.4c2.2-1.7,4.9-2.6,8.3-2.6
			C336.5,196.1,339,197,340.8,198.9z M328.9,203.7c-0.9,1.4-1.5,3-1.8,4.8c-0.3,1.8-0.5,3.5-0.6,5.1c0,1.7,0.2,2.9,0.7,3.6
			c0.5,0.7,1.3,1.1,2.4,1.1c1.5,0,2.7-0.7,3.5-2.1c0.9-1.4,1.5-3,1.8-4.8c0.3-1.8,0.5-3.6,0.6-5.2c0-1.7-0.2-2.8-0.7-3.6
			c-0.5-0.7-1.3-1.1-2.4-1.1C330.9,201.6,329.7,202.3,328.9,203.7z"/>
	</g>
	<g>
		<path class="st3" d="M364.5,223.1H355l-2.8-19.9l0,1c0.1,1.6,0.1,2.8,0.1,3.8c0,2.2-0.3,4.6-0.7,7.3l-1.2,7.7h-6.6l4.1-26.2h9.4
			l3,19.9c-0.1-2.3-0.2-4-0.1-5c0-2,0.3-4.3,0.7-6.9l1.3-8h6.6L364.5,223.1z"/>
	</g>
	<g>
		<path class="st3" d="M389.2,196.8l-1.6,5.4h-8.5l-0.8,4.9h7.4l-0.8,5.2h-7.5l-0.8,5.3h9.1l-0.9,5.4h-16.7l4.1-26.2H389.2z"/>
	</g>
	<g>
		<path class="st3" d="M388.3,212.4l0.9-5.7h12.6l-0.9,5.7H388.3z"/>
	</g>
	<g>
		<path class="st3" d="M423.7,199.7l-3.9,4c-1.5-1.4-3.2-2.1-5.2-2.1c-1,0-1.8,0.2-2.3,0.6c-0.5,0.4-0.8,0.9-0.8,1.5
			c0,0.4,0.1,0.8,0.3,1.1c0.2,0.3,0.6,0.5,1.2,0.8c0.6,0.3,1.4,0.6,2.5,0.9c2.3,0.8,3.9,1.8,5,3c1,1.2,1.6,2.8,1.5,4.6
			c0,1.7-0.4,3.2-1.3,4.7c-0.8,1.5-2.1,2.7-3.9,3.6c-1.8,0.9-4,1.4-6.8,1.4c-2.2,0-4.2-0.4-5.9-1.1c-1.7-0.7-3.1-1.7-4.2-2.9
			l4.3-4.3c1.7,1.7,3.7,2.5,6,2.5c1.1,0,2-0.2,2.6-0.6c0.6-0.4,0.9-1,0.9-1.8c0-0.7-0.2-1.3-0.8-1.8c-0.5-0.5-1.5-1-2.9-1.4
			c-2.5-0.8-4.3-1.9-5.3-3.1c-1.1-1.2-1.6-2.7-1.5-4.5c0-1.5,0.4-3,1.2-4.3c0.8-1.3,2-2.4,3.7-3.2c1.6-0.8,3.7-1.2,6.1-1.2
			C418.3,196.1,421.4,197.3,423.7,199.7z"/>
	</g>
	<g>
		<path class="st3" d="M445.6,196.8l-1.7,5.8h-5.8l-3.2,20.4h-7.6l3.2-20.4h-6.3l0.9-5.8H445.6z"/>
	</g>
	<g>
		<path class="st3" d="M464.9,198.9c1.7,1.9,2.6,4.6,2.5,8c0,2.7-0.5,5.3-1.5,7.9c-1,2.6-2.5,4.7-4.6,6.4c-2.1,1.7-4.9,2.6-8.3,2.6
			c-3.3,0-5.9-1-7.7-2.9c-1.8-1.9-2.6-4.6-2.5-8c0-2.7,0.5-5.3,1.5-7.9s2.5-4.7,4.7-6.4c2.2-1.7,4.9-2.6,8.3-2.6
			C460.6,196.1,463.2,197,464.9,198.9z M453,203.7c-0.9,1.4-1.5,3-1.8,4.8c-0.3,1.8-0.5,3.5-0.6,5.1c0,1.7,0.2,2.9,0.7,3.6
			c0.5,0.7,1.3,1.1,2.4,1.1c1.5,0,2.7-0.7,3.5-2.1c0.9-1.4,1.5-3,1.8-4.8c0.3-1.8,0.5-3.6,0.6-5.2c0-1.7-0.2-2.8-0.7-3.6
			c-0.5-0.7-1.3-1.1-2.4-1.1C455.1,201.6,453.9,202.3,453,203.7z"/>
	</g>
	<g>
		<path class="st3" d="M488.6,198.8c1.7,1.3,2.6,3.2,2.6,5.6c0,1.7-0.5,3.4-1.3,5c-0.8,1.6-2.1,2.9-3.9,4c-1.8,1-4,1.6-6.7,1.6h-2.6
			l-1.3,8.2h-7.6l4.1-26.2h9.3C484.4,196.8,486.9,197.5,488.6,198.8z M482.4,208c0.6-1,0.9-2,1-3.1c0-1.8-1-2.6-3-2.6h-1.6l-1.1,7.2
			h1.7C480.7,209.4,481.8,209,482.4,208z"/>
	</g>
	<g>
		<path class="st3" d="M99,250.6l-3.9,4c-1.5-1.4-3.2-2.1-5.2-2.1c-1,0-1.8,0.2-2.3,0.6c-0.5,0.4-0.8,0.9-0.8,1.5
			c0,0.4,0.1,0.8,0.3,1.1c0.2,0.3,0.6,0.5,1.2,0.8c0.6,0.3,1.4,0.6,2.5,0.9c2.3,0.8,3.9,1.8,5,3c1,1.2,1.6,2.8,1.5,4.6
			c0,1.7-0.4,3.2-1.3,4.7c-0.8,1.5-2.1,2.7-3.9,3.6c-1.8,0.9-4,1.4-6.8,1.4c-2.2,0-4.2-0.4-5.9-1.1c-1.7-0.7-3.1-1.7-4.2-2.9
			l4.3-4.3c1.7,1.7,3.7,2.5,6,2.5c1.1,0,2-0.2,2.6-0.6c0.6-0.4,0.9-1,0.9-1.8c0-0.7-0.2-1.3-0.8-1.8c-0.5-0.5-1.5-1-2.9-1.4
			c-2.5-0.8-4.3-1.9-5.3-3.1c-1.1-1.2-1.6-2.7-1.5-4.5c0-1.5,0.4-3,1.2-4.3c0.8-1.3,2-2.4,3.7-3.2c1.6-0.8,3.7-1.2,6.1-1.2
			C93.6,247,96.7,248.2,99,250.6z"/>
	</g>
	<g>
		<path class="st3" d="M119.6,247.7l-1.6,5.4h-8.5l-0.8,4.9h7.4l-0.8,5.2h-7.5l-0.8,5.3h9.1l-0.9,5.4H98.5l4.1-26.2H119.6z"/>
	</g>
	<g>
		<path class="st3" d="M129.9,247.7l-3.2,20.3h9.7l-1.7,6h-16.5l4.1-26.2H129.9z"/>
	</g>
	<g>
		<path class="st3" d="M158.4,247.7l-1.6,5.4h-7.9l-0.9,5.7h7l-0.9,5.4h-7l-1.5,9.7h-7.6l4.1-26.2H158.4z"/>
	</g>
	<g>
		<path class="st3" d="M157.1,263.3l0.9-5.7h12.6l-0.9,5.7H157.1z"/>
	</g>
	<g>
		<path class="st3" d="M192.4,250.6l-3.9,4c-1.5-1.4-3.2-2.1-5.2-2.1c-1,0-1.8,0.2-2.3,0.6c-0.5,0.4-0.8,0.9-0.8,1.5
			c0,0.4,0.1,0.8,0.3,1.1c0.2,0.3,0.6,0.5,1.2,0.8c0.6,0.3,1.4,0.6,2.5,0.9c2.3,0.8,3.9,1.8,5,3c1,1.2,1.6,2.8,1.5,4.6
			c0,1.7-0.4,3.2-1.3,4.7c-0.8,1.5-2.1,2.7-3.9,3.6c-1.8,0.9-4,1.4-6.8,1.4c-2.2,0-4.2-0.4-5.9-1.1c-1.7-0.7-3.1-1.7-4.2-2.9
			l4.3-4.3c1.7,1.7,3.7,2.5,6,2.5c1.1,0,2-0.2,2.6-0.6c0.6-0.4,0.9-1,0.9-1.8c0-0.7-0.2-1.3-0.8-1.8c-0.5-0.5-1.5-1-2.9-1.4
			c-2.5-0.8-4.3-1.9-5.3-3.1c-1.1-1.2-1.6-2.7-1.5-4.5c0-1.5,0.4-3,1.2-4.3c0.8-1.3,2-2.4,3.7-3.2c1.6-0.8,3.7-1.2,6.1-1.2
			C187,247,190.1,248.2,192.4,250.6z"/>
	</g>
	<g>
		<path class="st3" d="M213,247.7l-1.6,5.4h-8.5l-0.8,4.9h7.4l-0.8,5.2h-7.5l-0.8,5.3h9.1l-0.9,5.4h-16.7l4.1-26.2H213z"/>
	</g>
	<g>
		<path class="st3" d="M233.7,259.7c-0.8,1.3-2.3,2.6-4.5,3.7l4.5,10.6h-8.3l-3.3-9.3h-1.5l-1.5,9.3h-7.6l4.1-26.2h9.5
			c3.2,0,5.7,0.7,7.3,2c1.7,1.3,2.5,3.1,2.5,5.3C234.9,256.8,234.5,258.4,233.7,259.7z M221.4,259.4h2c1.2,0,2.1-0.4,2.8-1.2
			c0.6-0.8,0.9-1.7,0.9-2.8c0-1.6-1-2.4-3-2.4h-1.7L221.4,259.4z"/>
	</g>
	<g>
		<path class="st3" d="M259.4,247.7L248.8,274H239l-2.8-26.2h7.9l0.6,20.8l6.8-20.8H259.4z"/>
	</g>
	<g>
		<path class="st3" d="M268.1,247.7l-4.1,26.2h-7.6l4.1-26.2H268.1z"/>
	</g>
	<g>
		<path class="st3" d="M290.9,250.4l-4.1,3.9c-0.6-0.6-1.3-1-1.9-1.3c-0.6-0.3-1.4-0.4-2.2-0.4c-1.5,0-2.7,0.6-3.6,1.8
			c-0.9,1.2-1.6,2.7-2,4.4c-0.4,1.7-0.6,3.3-0.7,4.9c-0.1,3.5,1.2,5.2,3.8,5.2c0.8,0,1.6-0.2,2.4-0.6c0.8-0.4,1.6-0.9,2.6-1.6
			l2.8,4.4c-1.2,1.1-2.6,2-4.2,2.6c-1.6,0.7-3.3,1-5.1,1c-2.1,0-3.9-0.4-5.4-1.3c-1.5-0.8-2.7-2.1-3.6-3.7c-0.8-1.6-1.2-3.6-1.2-6
			c0-2.7,0.6-5.3,1.6-7.9c1-2.6,2.6-4.7,4.7-6.4c2.1-1.7,4.8-2.5,8-2.5C286.3,247,289,248.1,290.9,250.4z"/>
	</g>
	<g>
		<path class="st3" d="M310.5,247.7l-1.6,5.4h-8.5l-0.8,4.9h7.4l-0.8,5.2h-7.5l-0.8,5.3h9.1l-0.9,5.4h-16.7l4.1-26.2H310.5z"/>
	</g>
	<g>
		<path class="st3" d="M96.3,312.7c0.9,0.8,1.4,2.1,1.3,3.8c0,2.5-1.1,4.5-3.1,6c-2,1.5-5.4,2.3-9.9,2.3h-9l4.1-26.2h7.9
			c3.5,0,6.2,0.5,8.1,1.4c1.9,0.9,2.8,2.5,2.7,4.7c0,1.8-0.6,3.1-1.7,4.1c-1.1,1-2.5,1.7-4.1,2.1C94.2,311.3,95.4,311.9,96.3,312.7z
			 M88.9,318.5c0.6-0.6,1-1.5,1-2.6c0-1.5-1-2.2-3.2-2.2h-1.8l-0.9,5.7h1.5C87.1,319.4,88.3,319.1,88.9,318.5z M89.8,307.9
			c0.5-0.6,0.7-1.3,0.7-2.2c0-0.6-0.2-1-0.7-1.3c-0.5-0.3-1.2-0.4-2.3-0.4h-1.2l-0.8,4.8h1.3C88.4,308.8,89.3,308.5,89.8,307.9z"/>
	</g>
	<g>
		<path class="st3" d="M110.6,298.6l-4.1,26.2h-7.6l4.1-26.2H110.6z"/>
	</g>
	<g>
		<path class="st3" d="M131.4,298.9c1.5,0.7,2.7,1.5,3.6,2.6l-4.2,3.7c-0.8-0.7-1.5-1.1-2.2-1.4c-0.7-0.3-1.5-0.4-2.4-0.4
			c-2.6,0-4.5,1.2-5.6,3.7c-1.1,2.5-1.7,5.4-1.8,8.7c0,1.6,0.2,2.8,0.7,3.4c0.5,0.7,1.4,1,2.5,1c0.9,0,1.9-0.2,2.8-0.6l0.8-4.8H123
			l0.2-5.2h10.6l-2,13.2c-1.5,0.9-3.2,1.7-5,2.2c-1.8,0.5-3.5,0.8-5.2,0.8c-7.2,0-10.7-3.5-10.6-10.5c0.1-2.9,0.6-5.6,1.7-8.3
			c1.1-2.6,2.8-4.8,5.1-6.4c2.3-1.7,5.2-2.5,8.7-2.5C128.3,297.9,129.9,298.2,131.4,298.9z"/>
	</g>
	<g>
		<path class="st3" d="M163.9,300.9c2.2,1.5,3.2,4.1,3.2,7.7c-0.1,4.8-1.3,8.8-3.8,11.8c-2.4,3-6.3,4.5-11.8,4.5h-8.7l4.1-26.2h8.2
			C158.8,298.6,161.8,299.4,163.9,300.9z M153.7,304.1l-2.4,15.3h1.5c2.4,0,4-1.1,5-3.2c1-2.1,1.5-4.7,1.5-7.5
			c0-1.7-0.3-2.9-0.9-3.6c-0.6-0.7-1.7-1-3-1H153.7z"/>
	</g>
	<g>
		<path class="st3" d="M180.5,324.9l-0.2-5.1h-6.1l-1.7,5.1h-8l11.6-26.2h9.1l3.3,26.2H180.5z M176.1,314.4h4.1l-0.4-10.9
			L176.1,314.4z"/>
	</g>
	<g>
		<path class="st3" d="M211,298.6l-1.7,5.8h-5.8l-3.2,20.4h-7.6l3.2-20.4h-6.3l0.9-5.8H211z"/>
	</g>
	<g>
		<path class="st3" d="M220.1,324.9l-0.2-5.1h-6.1l-1.7,5.1h-8l11.6-26.2h9.1l3.3,26.2H220.1z M215.7,314.4h4.1l-0.4-10.9
			L215.7,314.4z"/>
	</g>
	<g>
		<path class="st3" d="M258.3,300.6c1.7,1.3,2.6,3.2,2.6,5.6c0,1.7-0.5,3.4-1.3,5c-0.8,1.6-2.1,2.9-3.9,4c-1.8,1-4,1.6-6.7,1.6h-2.6
			l-1.3,8.2h-7.6l4.1-26.2h9.3C254.1,298.6,256.6,299.3,258.3,300.6z M252.1,309.8c0.6-1,0.9-2,1-3.1c0-1.8-1-2.6-3-2.6h-1.6
			l-1.1,7.2h1.7C250.4,311.2,251.4,310.8,252.1,309.8z"/>
	</g>
	<g>
		<path class="st3" d="M272.2,298.6l-3.2,20.3h9.7l-1.7,6h-16.5l4.1-26.2H272.2z"/>
	</g>
	<g>
		<path class="st3" d="M293.6,324.9l-0.2-5.1h-6.1l-1.7,5.1h-8l11.6-26.2h9.1l3.3,26.2H293.6z M289.2,314.4h4.1l-0.4-10.9
			L289.2,314.4z"/>
	</g>
	<g>
		<path class="st3" d="M324.1,298.6l-1.7,5.8h-5.8l-3.2,20.4h-7.6l3.2-20.4h-6.3l0.9-5.8H324.1z"/>
	</g>
	<g>
		<path class="st3" d="M342.2,298.6l-1.6,5.4h-7.9l-0.9,5.7h7l-0.9,5.4h-7l-1.5,9.7h-7.6l4.1-26.2H342.2z"/>
	</g>
	<g>
		<path class="st3" d="M362.2,300.7c1.7,1.9,2.6,4.6,2.5,8c0,2.7-0.5,5.3-1.5,7.9c-1,2.6-2.5,4.7-4.6,6.4c-2.1,1.7-4.9,2.6-8.3,2.6
			c-3.3,0-5.9-1-7.7-2.9c-1.8-1.9-2.6-4.6-2.5-8c0-2.7,0.5-5.3,1.5-7.9c1-2.6,2.5-4.7,4.7-6.4c2.2-1.7,4.9-2.6,8.3-2.6
			C357.9,297.9,360.5,298.8,362.2,300.7z M350.3,305.5c-0.9,1.4-1.5,3-1.8,4.8c-0.3,1.8-0.5,3.5-0.6,5.1c0,1.7,0.2,2.9,0.7,3.6
			c0.5,0.7,1.3,1.1,2.4,1.1c1.5,0,2.7-0.7,3.5-2.1c0.9-1.4,1.5-3,1.8-4.8c0.3-1.8,0.5-3.6,0.6-5.2c0-1.7-0.2-2.8-0.7-3.6
			c-0.5-0.7-1.3-1.1-2.4-1.1C352.4,303.4,351.2,304.1,350.3,305.5z"/>
	</g>
	<g>
		<path class="st3" d="M387.3,310.6c-0.8,1.3-2.3,2.6-4.5,3.7l4.5,10.6h-8.3l-3.3-9.3h-1.5l-1.5,9.3h-7.6l4.1-26.2h9.5
			c3.2,0,5.7,0.7,7.3,2c1.7,1.3,2.5,3.1,2.5,5.3C388.5,307.7,388.1,309.3,387.3,310.6z M375.1,310.3h2c1.2,0,2.1-0.4,2.8-1.2
			c0.6-0.8,0.9-1.7,0.9-2.8c0-1.6-1-2.4-3-2.4h-1.7L375.1,310.3z"/>
	</g>
	<g>
		<path class="st3" d="M415.7,324.9h-7.5l1.3-9.3c0.4-3.3,1.1-7.1,2-11.5l-5.8,18.2h-7.3l-0.5-18.1c-0.1,2.5-0.2,4.6-0.4,6.3
			c-0.2,1.6-0.4,3.4-0.8,5.1l-1.6,9.3h-7.5l6-26.2h9.2l0.2,17.7l5.4-17.7h9.6L415.7,324.9z"/>
	</g>
</g>
</svg>
