<?xml version="1.0" encoding="utf-8"?>
<!-- Generator: Adobe Illustrator 25.4.1, SVG Export Plug-In . SVG Version: 6.00 Build 0)  -->
<svg version="1.1" id="图层_1" xmlns="http://www.w3.org/2000/svg" xmlns:xlink="http://www.w3.org/1999/xlink" x="0px" y="0px"
	 viewBox="0 0 570 800" style="enable-background:new 0 0 570 800;" xml:space="preserve">
<style type="text/css">
	.st0{fill:#5A2BCA;}
	.st1{fill:url(#SVGID_1_);}
	.st2{clip-path:url(#SVGID_00000101080422982693323370000006611702310399877307_);fill:#6527DF;}
	.st3{opacity:0.86;}
	.st4{fill:#FFFFFF;}
	.st5{enable-background:new    ;}
	.st6{fill:#F7B200;}
	.st7{fill:#EBEBFF;}
	.st8{fill:#7C6BDF;stroke:#7C6BDF;stroke-width:0.5969;stroke-miterlimit:10;}
</style>
<g>
	<rect x="0.1" y="-1.6" class="st0" width="571" height="803.5"/>
</g>
<linearGradient id="SVGID_1_" gradientUnits="userSpaceOnUse" x1="150.4461" y1="501.688" x2="586.4428" y2="536.9031">
	<stop  offset="0" style="stop-color:#6526DE"/>
	<stop  offset="0" style="stop-color:#6527DF;stop-opacity:0.98"/>
	<stop  offset="1" style="stop-color:#6527DF;stop-opacity:0"/>
</linearGradient>
<path class="st1" d="M690.5,489.3l-12.1,0l-11.1,0c0,0,0,0,0,0c-0.1-22.8-4.2-44.7-11.7-64.9c0-0.1-0.1-0.2-0.1-0.2
	c-3.3-8.7-7.2-17.2-11.7-25.2c-3.6-6.4-7.5-12.6-11.7-18.5c-3.6-5-7.5-9.9-11.6-14.6c0,0-0.1-0.1-0.1-0.1c-3.7-4.2-7.6-8.2-11.6-12
	c-3.8-3.6-7.7-7-11.7-10.2c-3.8-3-7.6-5.9-11.6-8.6c0,0-0.1,0-0.1-0.1c-3.8-2.6-7.7-5-11.6-7.3c-3.8-2.2-7.7-4.2-11.6-6.2
	c0,0-0.1,0-0.1,0c-3.8-1.8-7.7-3.6-11.6-5.2c-3.8-1.5-7.8-3-11.7-4.3c-3.8-1.2-7.7-2.4-11.6-3.4c0,0-0.1,0-0.1,0
	c-3.8-1-7.7-1.8-11.6-2.6c-3.8-0.7-7.7-1.3-11.6-1.8c0,0-0.1,0-0.1,0c-3.8-0.5-7.7-0.8-11.6-1.1c-3.3-0.2-6.6-0.3-9.9-0.3
	c0,0,0,0,0,0l-0.3,0l-1.5,0l-1.7,0c-3.3,0-6.6,0.2-9.9,0.4c0,0-0.1,0-0.1,0c-3.9,0.3-7.8,0.6-11.6,1.1c-3.9,0.5-7.8,1.1-11.7,1.9
	c-3.9,0.8-7.8,1.6-11.6,2.6c0,0-0.1,0-0.1,0c-3.9,1-7.8,2.2-11.6,3.4c-3.9,1.3-7.8,2.7-11.6,4.3c0,0-0.1,0-0.1,0
	c-3.9,1.6-7.8,3.3-11.6,5.2c-4,2-7.9,4-11.7,6.3c-4,2.3-7.8,4.7-11.6,7.3c0,0-0.1,0-0.1,0.1c-4,2.7-7.8,5.6-11.6,8.6
	c-4,3.2-7.9,6.6-11.6,10.2c0,0-0.1,0.1-0.1,0.1c-4,3.8-7.9,7.9-11.6,12.1c-4.1,4.7-8,9.6-11.7,14.7c-4.2,5.9-8.1,12-11.6,18.4
	c0,0.1-0.1,0.1-0.1,0.2c-4.5,8.1-8.3,16.6-11.6,25.3c-7.5,20.3-11.5,42.2-11.5,65l11.6,0l7.3,0l4.3,0l11.7,0l2.8,0l18.2,0l2.3,0
	l11.7,0l1.2,0l5.9,0c0,1.3,0,2.6,0.1,3.9c0.5,12,2.9,23.5,6.9,34.1c0,0.1,0.1,0.2,0.1,0.2c1.9,5.1,4.2,10,6.9,14.7
	c2.1,3.8,4.4,7.4,7,10.9c2.1,3,4.4,5.8,6.9,8.5c0,0,0.1,0.1,0.1,0.1c2.2,2.5,4.5,4.8,6.9,7.1c2.2,2.1,4.5,4.1,6.9,6
	c2.2,1.8,4.5,3.5,6.8,5c0,0,0.1,0,0.1,0.1c2.2,1.5,4.5,2.9,6.8,4.3c2.3,1.3,4.6,2.5,6.9,3.7c0,0,0,0,0,0c2.2,1.1,4.5,2.1,6.8,3
	c0,0,0.1,0,0.1,0c2.2,0.9,4.5,1.7,6.8,2.5c2.3,0.7,4.6,1.4,6.9,2c2.3,0.6,4.6,1.1,6.9,1.5c2.3,0.4,4.5,0.8,6.8,1.1c0,0,0.1,0,0.1,0
	c2.3,0.3,4.5,0.5,6.8,0.6c2.3,0.1,4.5,0.2,6.8,0.2c0,0,0.1,0,0.1,0c2.3,0,4.6-0.1,6.8-0.2c0,0,0.1,0,0.1,0c2.3-0.1,4.6-0.4,6.8-0.6
	c2.3-0.3,4.6-0.7,6.9-1.1c2.3-0.4,4.6-1,6.8-1.5c0,0,0.1,0,0.1,0c2.3-0.6,4.6-1.3,6.8-2c2.3-0.8,4.7-1.6,6.9-2.6
	c2.3-0.9,4.6-2,6.8-3.1c0,0,0.1,0,0.1,0c2.3-1.1,4.6-2.4,6.8-3.7c0,0,0,0,0,0c2.4-1.4,4.7-2.8,6.9-4.4c2.3-1.6,4.6-3.3,6.8-5.1
	c0,0,0.1-0.1,0.1-0.1c2.4-1.9,4.6-3.9,6.8-6c2.4-2.3,4.7-4.7,6.9-7.2c2.4-2.7,4.7-5.6,6.8-8.6c0,0,0.1-0.1,0.1-0.1
	c2.5-3.5,4.8-7.1,6.8-10.8c2.7-4.8,5-9.9,6.9-15.1c4.3-11.8,6.7-24.5,6.8-37.8l-6.8,0l-4.6,0l-9.2,0l-2.2,0l-15.7,0l-3,0l-11.6,0
	l-2.1,0l-6.3,0l-0.6,0l-6.9,0l-3.9,0l-2.6,0c0,1.9-0.2,3.7-0.5,5.5c-0.9,5.9-3.3,11.2-6.8,15.7c0,0-0.1,0.1-0.1,0.1
	c-2,2.5-4.3,4.8-6.8,6.7c-2.1,1.6-4.5,2.9-6.9,4c-2.2,0.9-4.5,1.7-6.8,2.2c0,0-0.1,0-0.1,0c-2.2,0.4-4.5,0.7-6.8,0.7
	c0,0-0.1,0-0.1,0c-2.3,0-4.6-0.2-6.8-0.7c-2.4-0.5-4.7-1.2-6.8-2.1c0,0-0.1,0-0.1,0c-2.4-1-4.7-2.3-6.8-3.9
	c-2.6-1.9-4.9-4.1-6.9-6.7c-3.5-4.4-5.9-9.7-7-15.4c-0.4-2-0.6-4-0.6-6.1l-24.6,0l-2.5,0l-10.5,0l-3.3,0l-6.9,0l-2.8,0l-4,0l-6.9,0
	l-6.8,0l-0.1,0l-6.7,0v0c-0.1-0.3-0.1-0.4-0.1-0.6c0-10.7,1.5-21.1,4.3-31c0-0.1,0.1-0.2,0.1-0.3c2.7-9.3,6.6-18.1,11.6-26.2
	c3.4-5.6,7.3-10.9,11.7-15.8c3.6-4.1,7.5-7.8,11.6-11.3c0,0,0.1-0.1,0.1-0.1c3.7-3.1,7.5-6,11.6-8.5c3.7-2.4,7.6-4.6,11.6-6.5
	c0,0,0.1,0,0.1,0c3.8-1.8,7.6-3.4,11.6-4.8c3.8-1.3,7.7-2.4,11.7-3.3c3.8-0.9,7.7-1.5,11.6-2c0,0,0.1,0,0.1,0
	c3.8-0.4,7.7-0.7,11.6-0.7c0.3,0,0.6,0,0.9,0c3.6,0,7.2,0.2,10.8,0.5c3.9,0.4,7.8,1,11.6,1.7c0,0,0.1,0,0.1,0
	c4,0.8,7.8,1.8,11.6,3.1c4,1.3,7.9,2.8,11.6,4.5c0,0,0.1,0,0.1,0c4,1.8,7.9,3.9,11.6,6.1c4.1,2.5,8,5.2,11.7,8.2
	c4.1,3.3,8,6.9,11.6,10.8c0,0,0.1,0.1,0.1,0.1c4.3,4.6,8.2,9.5,11.6,14.8c4.8,7.2,8.7,15.1,11.7,23.4c0,0.1,0.1,0.2,0.1,0.3
	c4.1,11.5,6.3,23.9,6.3,36.8c0,0.2,0,0.4,0,0.6l4.3,0l1.1,0l4.2,0l7.5,0l11.7,0l10.1,0l1.5,0l2.1,0l9.6,0l11.7,0l11.5,0l0.1,0
	c0,15.4-1.8,30.4-5.3,44.8c0,0,0,0,0,0c-3.7,15.2-9.3,29.6-16.4,43c0,0,0,0,0,0c-4.8,9-10.3,17.6-16.4,25.6
	c-5.1,6.6-10.6,12.9-16.5,18.8c-5.2,5.2-10.7,10.1-16.5,14.7c-5.3,4.2-10.8,8-16.5,11.6c-5.3,3.3-10.8,6.4-16.5,9.2h0
	c-5.4,2.7-10.8,5.1-16.5,7.2c-5.4,2-10.9,3.8-16.5,5.4c-5.4,1.5-10.9,2.8-16.5,3.8c-5.4,1-10.9,1.7-16.5,2.2
	c-5.4,0.5-10.9,0.8-16.5,0.8c-5.6,0-11.1-0.2-16.5-0.7c-5.6-0.5-11.1-1.2-16.5-2.1c-5.6-1-11.1-2.2-16.5-3.7
	c-5.6-1.5-11.1-3.3-16.5-5.3c-5.6-2.1-11.1-4.5-16.5-7.1c-5.7-2.8-11.2-5.8-16.5-9.2c-5.7-3.6-11.2-7.4-16.5-11.5
	c-5.8-4.5-11.3-9.4-16.5-14.6c-5.9-5.9-11.4-12.2-16.5-18.8c-6.2-8-11.7-16.6-16.5-25.6c-7.2-13.4-12.8-27.8-16.6-43
	c-3.6-14.4-5.5-29.4-5.5-44.9v0l-77,0.2c0.1,32.4,6,63.3,16.7,92c4.6,12.4,10.2,24.4,16.6,35.8c5,9,10.5,17.7,16.5,26
	c5.2,7.2,10.7,14,16.5,20.6c5.3,5.9,10.8,11.6,16.5,17.1c5.3,5,10.8,9.8,16.5,14.3c5.3,4.3,10.8,8.3,16.5,12.2
	c5.4,3.6,10.9,7.1,16.5,10.3c5.4,3.1,10.9,6,16.5,8.7c5.4,2.6,10.9,5.1,16.5,7.3c5.4,2.2,10.9,4.2,16.5,6c5.4,1.8,10.9,3.4,16.5,4.8
	c5.4,1.4,10.9,2.6,16.5,3.7c5.4,1,10.9,1.9,16.5,2.5c5.4,0.7,10.9,1.2,16.5,1.5c4.7,0.3,9.3,0.4,14.1,0.5l2.4,0l2.4,0
	c4.7-0.1,9.4-0.2,14.1-0.5c5.5-0.4,11-0.9,16.5-1.6c5.5-0.7,11-1.6,16.5-2.6c5.6-1.1,11.1-2.3,16.5-3.7c5.6-1.4,11.1-3.1,16.5-4.9
	c5.6-1.8,11.1-3.9,16.5-6.1c5.6-2.3,11.1-4.7,16.5-7.4c5.6-2.7,11.1-5.7,16.5-8.8c5.6-3.3,11.1-6.7,16.5-10.4
	c5.7-3.9,11.1-8,16.5-12.2h0c5.7-4.6,11.2-9.4,16.5-14.4c0,0,0,0,0,0c5.7-5.5,11.2-11.2,16.5-17.1c5.8-6.6,11.3-13.5,16.4-20.7
	c6-8.3,11.5-17,16.4-26.1c20.9-37.9,32.8-81.5,32.7-127.9L690.5,489.3z"/>
<g>
	<defs>
		<rect id="SVGID_00000011030398489786358180000014177611044077991333_" x="-0.2" y="116.1" width="196.8" height="220.8"/>
	</defs>
	<clipPath id="SVGID_00000031889103107772070390000000641219398876663486_">
		<use xlink:href="#SVGID_00000011030398489786358180000014177611044077991333_"  style="overflow:visible;"/>
	</clipPath>
	
		<circle style="clip-path:url(#SVGID_00000031889103107772070390000000641219398876663486_);fill:#6527DF;" cx="69.7" cy="222.8" r="92.2"/>
</g>
<g class="st3">
	<defs>
		<rect id="SVGID_00000047061911209560595630000006477818629493477030_" x="0.1" y="-1.6" class="st3" width="571" height="803.5"/>
	</defs>
	<clipPath id="SVGID_00000148622429494279171130000006304340140676139922_">
		<use xlink:href="#SVGID_00000047061911209560595630000006477818629493477030_"  style="overflow:visible;"/>
	</clipPath>
</g>
<g>
	<g>
		<g>
			<path class="st4" d="M93.9,110.1h0.4c11.8-0.1,21.5-9.7,21.5-21.7h-6.3c0,8.5-6.9,15.4-15.4,15.4s-15.3-6.9-15.3-15.4h-6.3
				C72.6,100.4,82.1,110,93.9,110.1"/>
		</g>
		<g>
			<path class="st4" d="M85.2,88.4c0-5,4.1-9.1,9.1-9.1s9.1,4.1,9.1,9.1l0,0h6.2c0-8.4-6.8-15.3-15.2-15.3H94
				c-8.4,0.1-15.2,6.9-15.2,15.3H85.2L85.2,88.4"/>
		</g>
		<g>
			<path class="st4" d="M103.3,88.4h-6.2c0,1.6-1.3,2.9-2.9,2.9c-1.6,0-2.9-1.2-2.9-2.9h-6.2c0,5,4.1,9,9.1,9S103.3,93.5,103.3,88.4
				"/>
		</g>
	</g>
	<g>
		<g>
			<path class="st4" d="M131.1,87c1,1.1,1.6,2.7,1.6,4.8c0,2.5-0.7,4.4-1.9,5.7c-1.2,1.3-3.1,2-5.4,2c-1.5,0-3.2-0.1-5.2-0.2
				l0.2-4.1l-0.2-9.8l6.3-0.1C128.4,85.3,129.9,85.9,131.1,87 M127.6,95.5c0.4-0.6,0.6-1.4,0.6-2.7c0-1-0.1-1.9-0.2-2.5
				c-0.1-0.6-0.4-1-0.7-1.3s-0.8-0.4-1.3-0.4c-0.6,0-1,0-1.6,0.1l-0.2,6v1.3c0.9,0.1,1.5,0.2,1.9,0.2
				C126.8,96.3,127.2,96.1,127.6,95.5"/>
		</g>
		<g>
			<path class="st4" d="M145.9,99.3h-4.4l-0.4-2.3v-0.1H139l-1.7,0.1l-0.4,2.3h-4.2l4.2-13.9h5.2L145.9,99.3z M140.4,93.8l-1-4.6
				h-0.3l-1.2,4.6h1.2H140.4z"/>
		</g>
		<g>
			<polygon class="st4" points="156.2,85.7 155.9,88.8 153,88.7 152.8,88.7 152.7,94.8 152.8,99.3 148.5,99.3 148.8,95.2 
				148.6,88.7 148.4,88.7 145.6,88.8 145.3,88.5 145.5,85.4 155.9,85.4 			"/>
		</g>
		<g>
			<path class="st4" d="M168.6,99.3h-4.4l-0.4-2.3v-0.1h-2.1L160,97l-0.4,2.3h-4.2l4.2-13.9h5.2L168.6,99.3z M163.1,93.8l-1-4.6
				h-0.3l-1.2,4.6h1.2H163.1z"/>
		</g>
		<g>
			<path class="st4" d="M179.4,85.8l-0.8,3.4l-0.3,0.2c-0.4-0.2-0.8-0.4-1.3-0.5c-0.5-0.1-1-0.2-1.3-0.2c-0.9,0-1.5,0.3-1.9,0.8
				c-0.4,0.5-0.6,1.3-0.6,2.6c0,1.4,0.2,2.4,0.7,3.1c0.5,0.7,1.1,1,2.1,1c0.4,0,0.9,0,1.3-0.1c0.5-0.1,1-0.2,1.3-0.3l0.4,0.2
				l-0.4,3.4c-0.9,0.3-1.8,0.4-3,0.4c-2.3,0-4-0.6-5.2-1.8c-1.1-1.2-1.7-3-1.7-5.2c0-2.3,0.7-4.1,1.9-5.3c1.2-1.2,3.1-1.9,5.3-1.9
				C177.1,85.2,178.3,85.4,179.4,85.8"/>
		</g>
		<g>
			<path class="st4" d="M192.4,99.3h-4.4l-0.4-2.3v-0.1h-2.1l-1.7,0.1l-0.4,2.3h-4.2l4.2-13.9h5.2L192.4,99.3z M187,93.8l-1-4.6
				h-0.3l-1.2,4.6h1.2H187z"/>
		</g>
		<g>
			<path class="st4" d="M206.5,98.4l-0.1,0.5c-1.5,0.3-3,0.6-4.3,0.7l-0.5-0.3c-1.4-2.5-2.7-4.7-3.6-6.4v1.9l0.2,4.5h-4.3l0.2-4.1
				l-0.2-9.8h4.4l-0.2,5.8l2.7-4.3l0.8-1.5h4.6l-4.1,6.6C203.3,94.1,204.8,96.2,206.5,98.4"/>
		</g>
		<g>
			<polygon class="st4" points="217.2,95.9 217.4,96.2 217.2,99.3 207.4,99.3 207.6,95.2 207.4,85.4 217.4,85.4 217.5,85.7 
				217.4,88.8 213.9,88.7 211.7,88.7 211.6,90.6 213.7,90.6 216,90.6 216.2,90.9 216,94.1 213.5,94 211.5,94 211.5,94.8 211.5,96 
				213.6,96 			"/>
		</g>
	</g>
</g>
<g class="st5">
	<path class="st6" d="M116.4,210.8c-7.2,15.7-23.6,20.8-44,22.5c-0.5-2.1-1.8-5.3-2.9-7.1c7.8-0.4,15-1.4,21-3.2
		c-1.1-1-2.3-1.9-3.2-2.7l6.1-3.5c1.4,0.9,3,2.1,4.3,3.2c2.8-1.5,5.2-3.2,7.2-5.4H94.6c-3.9,2.6-8.6,4.8-14,6.8
		c-0.9-1.8-3-4.4-4.4-5.7c9.4-2.8,15.9-6.7,20-11c-6.6,3.6-14.4,6-22.5,7.5c-0.7-1.9-2.2-4.9-3.4-6.5c4.9-0.7,9.6-1.8,14-3.1
		c-1.1-1-2.2-1.9-3.1-2.7l5.5-3.4c1.3,1,2.9,2.2,4.3,3.4c2.7-1.4,5.1-2.9,7.2-4.7H86.4c-3,2-6.3,3.7-10,5.3c-1.1-1.7-3.3-4.1-5-5.3
		c8.3-2.9,14.3-6.8,17.8-10.6l8,1.9c-0.8,0.8-1.6,1.6-2.4,2.4h9.3l1.2-0.3l4.9,2.9c-2.8,4.9-6.8,8.9-11.6,12l7.1,1.7
		c-1,1.1-2,2.2-3,3.2h7.3l1.3-0.4L116.4,210.8z"/>
	<path class="st6" d="M143.9,209.7c-2.7,4.4-5.9,8.8-9,12.3l17.3-0.9c-1.4-2.1-2.7-4-3.9-5.9l6.9-3.5c4.1,5.6,8.9,12.7,11.5,17.5
		l-7.3,4.4c-0.7-1.5-1.7-3.3-2.8-5.3c-24.3,1.8-28.4,2-31.5,3c-0.5-1.7-1.9-5.9-2.9-8.3c1.7-0.5,2.7-1.4,4.3-3.2
		c1.3-1.3,4.2-5.4,6.9-10.2h-12.8v-7.7h46.4v7.7L143.9,209.7L143.9,209.7z M161.8,195.5h-35.2V188h35.2V195.5z"/>
</g>
<g class="st5">
	<path class="st4" d="M218.3,204.6v8.1H171v-8.1H218.3z"/>
	<path class="st4" d="M241.6,217.8l0.7,6.8c-6.5,1.5-13.4,3-18.9,4.2l-1.5-7.3c2.9-0.5,6.5-1.1,10.2-1.9c1.2-5,2.3-12.6,2.7-18.2
		l6.8,1.1c-1,5.3-2.3,11.4-3.4,15.9L241.6,217.8z M242.9,200.3h-20.9v-6.8h8.2c-0.6-2-1.7-4.5-2.6-6.6l6.4-1.8
		c1.3,2.3,2.6,5.2,3.1,7.2l-3.5,1.1h9.2V200.3z M225.4,219.1c-0.1-4.4-0.9-11.1-1.8-16.2l5.6-1.1c1,5.2,1.8,11.6,2.1,16.1
		L225.4,219.1z M258.2,200.7v8.1h9.7V233h-7.6v-2.2h-10.2v2.4h-7.2v-24.5h7.6v-23.8h7.6v8.8h11.2v7H258.2z M260.4,215.5h-10.2v8.4
		h10.2V215.5z"/>
	<path class="st4" d="M289.6,221.9c2.9-0.5,5.8-0.9,8.8-1.4l0.5,6.6c-8.2,1.8-17,3.4-23.7,4.8l-2-7.5c2.5-0.3,5.6-0.8,9.1-1.3v-10.8
		h-6.9v-7.1H297v7.1h-7.5V221.9z M306,200.4c1,13.7,3.6,25.1,6.6,25.1c0.9,0,1.5-2.8,1.8-9c1.7,1.8,4.3,3.5,6.5,4.3
		c-1.1,10.1-3.5,12.4-8.9,12.4c-9,0-12.6-15.2-13.7-32.9h-24.9v-7.2h24.5c-0.1-2.7-0.1-5.3-0.1-8h8c-0.1,2.7-0.1,5.3-0.1,8h6.5
		c-1.4-1.5-3.3-3.1-4.9-4.3l4.9-4c2.2,1.5,5,3.7,6.4,5.3l-3.5,3h4.4v7.2H306z"/>
	<path class="st4" d="M366.3,191.3V233h-7.9v-2.4h-22.6v2.4h-7.5v-41.7h13.1c0.5-2.2,0.9-4.5,1.1-6.5l9.1,0.9
		c-0.7,2-1.5,3.8-2.3,5.5L366.3,191.3L366.3,191.3z M335.8,198.4v3.9h22.6v-3.9H335.8z M335.8,209.1v3.9h22.6v-3.9H335.8z
		 M358.4,223.9v-4h-22.6v4H358.4z"/>
	<path class="st4" d="M420.3,195.6c0,0-0.1,2.3-0.1,3.1c-0.4,20.7-0.8,28.3-2.5,30.8c-1.3,2-2.7,2.6-4.5,3c-1.7,0.4-4.2,0.3-6.9,0.3
		c-0.1-2-1-5.1-2.2-7c2.3,0.2,4.3,0.2,5.4,0.2c0.8,0,1.3-0.2,1.9-0.9c1.1-1.4,1.4-7.5,1.8-22.5h-4c-0.8,13.5-3.5,23.8-13.1,30.6
		c-1.1-1.9-3.3-4.3-5.1-5.6c2-1.4,3.6-2.9,5-4.5c-7.5,1.9-15.2,3.7-21.2,5.2l-1.2-7.6c1.1-0.2,2.3-0.4,3.5-0.6V187h18.4v29.4
		l1.9-0.4l0.5,4.5c2.9-4.8,3.9-10.7,4.3-17.9h-5.5v-7h5.7c0.1-3.3,0.1-6.9,0.1-10.6h7.2c0,3.7,0,7.3-0.1,10.6L420.3,195.6
		L420.3,195.6z M383.4,193.5v3.8h5.1v-3.8H383.4z M388.4,203.7h-5.1v3.9h5.1V203.7z M383.4,218.8l5.1-1V214h-5.1V218.8z"/>
	<path class="st4" d="M462.8,225c2,0,2.4-2,2.7-10.2c1.9,1.4,5.2,3,7.3,3.5c-0.8,10.1-2.7,14.1-9.1,14.1H457c-6.9,0-8.9-2.6-8.9-11
		v-3.2c-1.8,1-3.4,1.9-5.1,2.7c-0.8-1.1-2.3-2.7-3.6-4v16.4h-7.9v-25.4c-0.9,1-1.8,2-2.7,2.9c-0.9-1.9-3.2-5.8-4.7-7.6
		c5-4.3,9.8-11.3,12.6-18.4l7.5,2.5c-1.4,3.2-3,6.6-4.9,9.7v17.5c2.9-1.4,5.8-3.1,8.8-5.3v-23.4h8.1v16.7c3.4-3.3,6.7-7.1,9.2-11.2
		l7.1,4.9c-4.8,6.6-10.5,12.2-16.3,16.7v8.8c0,3,0.2,3.5,2.1,3.5L462.8,225L462.8,225z"/>
</g>
<g class="st5">
	<path class="st4" d="M98.5,270.2c3.3,9.1,9.1,16.6,18.5,20.3c-1.9,1.7-4.3,4.9-5.5,7c-9-4.1-14.6-10.9-18.4-19.9
		c-2.9,7.9-8.3,14.9-18.3,19.9c-1.2-2.1-3.4-4.7-5.6-6.3c11.1-5,15.8-12.7,17.8-21H70.3v-7.7h18c0.4-4.4,0.3-9,0.4-13.2h8.2
		c-0.1,4.2-0.1,8.7-0.5,13.2h19.5v7.7L98.5,270.2L98.5,270.2z"/>
	<path class="st4" d="M129.6,268.9c-2.2,2-4.5,3.7-6.8,5c-0.8-1.6-2.4-4-3.7-5.3c2.6-1,5.4-2.8,7.7-4.8h-6.4v-5.7h3.3
		c-0.4-1.8-1.4-4.1-2.5-5.9l5.2-2.2c1.3,1.9,2.6,4.4,3,6.2l-4.4,2h4.5v-8.8h6.8v6.7c1.1-1.8,2.4-4.3,3-6.2l6.2,2.4
		c-1.8,2.3-3.3,4.4-4.6,5.9l-4.6-2.1v2.1h9.2v5.7h-6.1c2,1.1,3.9,2.3,4.7,2.8l-3.8,5c-1-1-2.5-2.3-4-3.6v4.6h-6.8L129.6,268.9
		L129.6,268.9z M138,294.7c-1-0.8-2.3-1.7-3.5-2.5c-3.3,2.5-7.4,4.2-11.8,5.4c-0.7-1.7-2.1-4.2-3.2-5.5c3.4-0.7,6.5-1.9,9.1-3.3
		c-2.4-1.2-4.7-2.4-6.9-3.3c0.9-1.2,1.8-2.7,2.7-4.1h-3v-5.9h6.1c0.5-1,0.8-1.9,1.2-2.8l6.5,1.2c-0.2,0.5-0.4,1.1-0.7,1.6h5.4
		l1.1-0.2l4,1.4c-1.3,4.5-3.2,8.3-5.7,11.3c1.2,0.7,2.3,1.4,3.2,2.1L138,294.7z M131.4,281.3c-0.4,0.7-0.7,1.3-1.1,2
		c1.1,0.5,2.2,1.1,3.2,1.7c1.1-1.1,2-2.3,2.8-3.6H131.4z M164.3,265.2c-0.9,6.9-2.3,12.7-4.5,17.6c2.3,3.6,5.2,6.5,8.8,8.6
		c-1.6,1.3-3.7,3.9-4.8,5.8c-3.2-2.1-5.8-4.7-8.1-7.9c-2.8,3.5-6.4,6.4-10.9,8.6c-0.6-1.5-2.6-4.6-3.7-6c4.9-2.2,8.6-5.1,11.1-9
		c-1.3-2.8-2.3-5.9-3.2-9.1c-0.7,1.3-1.4,2.5-2.2,3.5c-1.1-1.2-3.7-3.6-5.2-4.7c4.1-5.3,6.4-14.1,7.5-23.3l6.7,1
		c-0.4,2.8-0.9,5.5-1.4,8.2h13.1v6.8L164.3,265.2L164.3,265.2z M153.4,265.2c0.6,3.2,1.4,6.4,2.5,9.2c0.8-2.8,1.4-5.9,1.8-9.2H153.4
		z"/>
	<path class="st4" d="M187.4,277.3c-1.7,0.5-3.2,0.9-4.9,1.4v10.5c0,3.2-0.5,5-2.2,6.1c-1.8,1.2-4.1,1.4-7.4,1.4
		c-0.2-1.9-1-4.9-1.9-6.8c1.7,0.1,3.3,0.1,3.9,0.1c0.6,0,0.8-0.2,0.8-0.9v-8.7l-4.1,1.1l-1.5-7.1c1.7-0.3,3.5-0.7,5.6-1.2v-7.9h-4.8
		v-6.8h4.8v-9.2h6.7v9.2h4.8v6.8h-4.8v6.3l4-1L187.4,277.3z M208.4,277v4h8.8v16.5h-6.6v-1.1h-10.4v1.1h-6.3v-13.2
		c-1,5-2.6,9.7-5,13.4c-1.3-1.3-4.3-3.5-6-4.3c5-7.4,5.3-18.6,5.3-26.6v-15.7h28.7v15.7h-8.5v3.8h9.7v6.1h-9.7V277z M201.5,277h-6.6
		c-0.1,1.3-0.3,2.7-0.5,4h7.1V277z M201.5,267h-6.1c0,1.2,0,2.5-0.1,3.8h6.2V267z M195.3,257.5v3.2h14.6v-3.2H195.3z M210.6,287
		h-10.4v3.6h10.4V287z"/>
	<path class="st4" d="M268.8,281.3h-19.6v16.2h-7.7v-16.2h-19.4v-7.5h19.4v-14.2h-16.6v-7.3h40.9v7.3h-16.6v14.2h19.6V281.3z
		 M234.4,260.8c1.6,3,3.2,7,3.7,9.7l-7.2,2.3c-0.4-2.6-1.8-6.8-3.2-10L234.4,260.8z M252.5,270.8c1.4-2.8,3-6.9,3.8-10l8,2
		c-1.8,3.7-3.7,7.5-5.2,9.9L252.5,270.8z"/>
	<path class="st4" d="M312.8,273c-0.6-1.1-1.4-2.4-2.4-3.6c-25.9,1.1-29.9,1.2-33,2.3c-0.4-1.4-1.6-5.1-2.5-7.1
		c1.5-0.4,2.7-1.3,4.3-2.9c1.8-1.6,7.1-7.6,10.2-13.6l7.5,3.2c-2.9,4.2-6.5,8.4-10,11.9l18-0.5c-1.8-2-3.4-3.8-5.1-5.5l5.7-3.8
		c4.4,4.4,10.6,10.7,13.4,15.1L312.8,273z M278.5,274.5h35.4v23h-8v-2.5H286v2.5h-7.6L278.5,274.5L278.5,274.5z M286,281.6v6.4h19.9
		v-6.4H286z"/>
</g>
<path class="st4" d="M78.3,363.2c1,1.3,2.7,2.5,4.3,3.1c-0.2,0.1-0.5,0.5-0.7,0.7c-1.5-0.7-3.1-2.1-4.3-3.5v3.9h-0.9v-3.8
	c-1.1,1.4-2.7,2.7-4.2,3.4c-0.1-0.2-0.4-0.6-0.6-0.7c1.5-0.6,3.2-1.8,4.2-3.2h-3.9v-0.8h4.6v-1h0.9v1h4.6v0.8H78.3L78.3,363.2z
	 M81.6,357.9c-2.4,0.4-5.9,0.7-8.9,0.8c0-0.2-0.1-0.6-0.2-0.8c3-0.1,6.4-0.4,8.4-0.7L81.6,357.9z M74.2,361.6
	c-0.1-0.6-0.6-1.5-1.1-2.1l0.7-0.3c0.5,0.7,1,1.5,1.1,2.1L74.2,361.6z M76.9,361.2c-0.1-0.6-0.4-1.4-0.7-2.1l0.7-0.2
	c0.4,0.7,0.7,1.5,0.7,2.1L76.9,361.2z M78.9,361.5c0.6-0.7,1.3-2,1.7-2.8l0.9,0.4c-0.5,1-1.3,2.1-1.8,2.8L78.9,361.5z"/>
<path class="st4" d="M94,366.3c0,0.5-0.1,0.8-0.5,1c-0.4,0.1-1,0.1-2.1,0.1c0-0.2-0.1-0.6-0.3-0.8c0.8,0,1.5,0,1.8,0
	s0.3-0.1,0.3-0.3V364H90v3.4h-0.9V364h-2.9c-0.1,1.3-0.6,2.6-1.4,3.5c-0.1-0.1-0.4-0.4-0.7-0.6c1.3-1.4,1.4-3.5,1.4-5v-4.1h8.3
	L94,366.3L94,366.3z M89.2,363.2v-1.9h-2.7v0.7c0,0.4,0,0.8-0.1,1.3H89.2z M86.4,358.7v1.8h2.7v-1.8H86.4z M93.1,358.7H90v1.8h3.1
	V358.7z M93.1,363.2v-1.9H90v1.9H93.1z"/>
<path class="st4" d="M98.5,362c-0.4-0.4-1.2-0.9-1.8-1.1l0.4-0.6c0.7,0.2,1.5,0.7,1.9,1L98.5,362z M96.8,366.9
	c0.4-0.9,1.1-2.4,1.5-3.6l0.7,0.4c-0.4,1.2-1,2.6-1.5,3.6L96.8,366.9z M98.9,358.9c-0.4-0.4-1.2-0.9-1.8-1.3l0.4-0.6
	c0.7,0.3,1.4,0.7,1.8,1.2L98.9,358.9z M100.2,366v0.9h-0.7v-4.6h1.3v-2.1h-1.7v-0.8h1.7v-2.1h0.8v2.1h1.5v0.8h-1.5v2.1h1.2v3.7
	L100.2,366L100.2,366z M100.2,363v2.2h1.8V363H100.2z M106.7,366.5c0,0.4-0.1,0.7-0.4,0.8c-0.3,0.1-0.7,0.1-1.5,0.1
	c0-0.2-0.1-0.5-0.2-0.7c0.5,0,1,0,1.2,0s0.2-0.1,0.2-0.2v-2.8h-1.7c-0.1,1.3-0.5,2.8-1.5,3.8c-0.1-0.1-0.4-0.4-0.7-0.4
	c1.3-1.4,1.4-3.4,1.4-5v-4.6h3.2V366.5z M106,362.9v-2h-1.6v1.2c0,0.3,0,0.6,0,0.9L106,362.9L106,362.9z M104.4,358.2v1.9h1.6v-1.9
	H104.4z"/>
<path class="st4" d="M115,357.3c-0.1,0.1-0.1,0.3-0.3,0.4c1.3,1.6,3,2.7,4.9,3.5c-0.2,0.1-0.4,0.4-0.6,0.7c-1.8-1-3.4-2-4.7-3.6
	c-0.8,1-1.8,1.9-3,2.7h5.9c0,0,0,0.2,0,0.4c-0.1,2-0.2,2.7-0.4,3c-0.2,0.2-0.4,0.3-0.8,0.3c-0.3,0-1,0-1.5,0c0-0.2-0.1-0.5-0.2-0.7
	c0.6,0.1,1.2,0.1,1.4,0.1c0.2,0,0.3,0,0.4-0.1c0.1-0.1,0.2-0.7,0.3-2.1H112v3.8c0,0.5,0.1,0.7,1.2,0.7h3.3c0.9,0,1-0.3,1.1-1.8
	c0.2,0.1,0.6,0.3,0.9,0.4c-0.1,1.8-0.5,2.2-1.9,2.2h-3.3c-1.5,0-2-0.3-2-1.5v-4.5c-0.5,0.4-1.1,0.7-1.6,1c-0.1-0.2-0.4-0.5-0.6-0.7
	c2.1-1,4.1-2.6,5.3-4.4L115,357.3z"/>
<path class="st4" d="M131.7,361.7v1h-10.4v-1H131.7z"/>
<path class="st4" d="M136.9,357.3c-0.3,0.8-0.7,1.6-1,2.4v7.7h-0.8v-6.3c-0.3,0.5-0.7,1-1,1.3c-0.1-0.2-0.4-0.7-0.5-0.8
	c1-1.1,1.9-2.8,2.5-4.6L136.9,357.3z M141.2,360.1c0.7,1.9,1.8,3.8,3.1,4.8c-0.2,0.1-0.5,0.4-0.7,0.7c-1.2-1.1-2.3-3-3-5v4h1.8v0.8
	h-1.8v2.1h-0.8v-2.1h-1.8v-0.8h1.8v-3.8c-0.7,2-1.8,3.8-3,4.9c-0.1-0.2-0.4-0.5-0.6-0.7c1.3-1,2.4-3,3.2-4.9h-2.7v-0.8h3.2V357h0.8
	v2.3h3.4v0.8H141.2z"/>
<path class="st4" d="M148.6,358.9c-0.2,1.5-0.8,2.7-2.1,3.5c-0.1-0.1-0.4-0.5-0.5-0.7c1.2-0.6,1.6-1.5,1.8-2.8h-1.6v-0.7h1.8
	c0-0.4,0.1-0.8,0.1-1.2h0.8c0,0.4-0.1,0.8-0.1,1.2h2.4c0,0,0,0.2,0,0.4c-0.1,2.1-0.2,2.9-0.5,3.2c-0.1,0.2-0.4,0.3-0.7,0.3
	c-0.2,0-0.7,0-1.1,0c0-0.2-0.1-0.5-0.2-0.7c0.4,0,0.8,0.1,1,0.1c0.1,0,0.2,0,0.4-0.1c0.1-0.1,0.3-0.7,0.4-2.2L148.6,358.9
	L148.6,358.9z M152.3,364c1,1.1,2.6,2.1,4.2,2.5c-0.1,0.1-0.4,0.5-0.6,0.7c-1.5-0.5-3.2-1.5-4.2-2.8v3.1h-0.9v-3.2
	c-1,1.3-2.7,2.4-4.2,3c-0.1-0.2-0.4-0.5-0.6-0.7c1.5-0.5,3.2-1.5,4.1-2.7h-3.9v-0.7h4.6v-1.1h0.9v1.1h4.4v0.7L152.3,364L152.3,364z
	 M156,361.8h-4v-3.9h4V361.8z M155.1,358.7h-2.4v2.4h2.4V358.7z"/>
<path class="st4" d="M161,360.6c0.3,0.4,1.2,1.8,1.4,2.1l-0.5,0.7c-0.1-0.4-0.5-1.1-0.9-1.6v5.9h-0.8V362c-0.4,1.3-0.9,2.5-1.4,3.2
	c-0.1-0.2-0.3-0.6-0.4-0.8c0.7-1,1.5-2.8,1.8-4.4h-1.6v-0.8h1.7V357h0.8v2.2h1.3v0.8h-1.3L161,360.6L161,360.6z M168.6,359.3
	c-0.1,5.4-0.4,7.1-0.7,7.7c-0.2,0.3-0.4,0.4-0.9,0.4c-0.4,0.1-0.9,0-1.5,0c0-0.2-0.1-0.6-0.3-0.9c0.6,0.1,1.2,0.1,1.4,0.1
	c0.2,0,0.3,0,0.4-0.1c0.4-0.4,0.5-2.1,0.7-6.8h-4c-0.3,0.7-0.7,1.3-1.1,1.9c-0.1-0.1-0.5-0.4-0.7-0.5c0.8-1,1.5-2.5,1.8-4.1l0.8,0.2
	c-0.1,0.6-0.4,1.2-0.5,1.7h4.5L168.6,359.3L168.6,359.3z M166.2,365.1c-0.1-0.2-0.1-0.5-0.2-0.8c-2.5,0.5-2.9,0.6-3.1,0.7
	c-0.1-0.1-0.1-0.5-0.3-0.7c0.1-0.1,0.4-0.3,0.5-0.7c0.2-0.4,0.8-1.8,1.1-3.1l0.8,0.2c-0.4,1.2-0.9,2.4-1.4,3.3l2.1-0.4
	c-0.1-0.4-0.4-1-0.6-1.3l0.7-0.2c0.4,0.9,0.9,2.1,1.1,2.7L166.2,365.1z"/>
<path class="st4" d="M171.1,367.2c0.9-0.4,1.4-0.9,1.5-1.7c-0.1,0-0.1,0-0.2,0c-0.4,0-0.9-0.3-0.9-0.8c0-0.5,0.4-0.8,0.9-0.8
	c0.7,0,1,0.5,1,1.3c0,1.3-0.8,2.2-2,2.6L171.1,367.2z"/>
<path class="st4" d="M187.2,359.8c0,0,0,0.3,0,0.4c-0.1,4.6-0.4,6.2-0.8,6.7c-0.3,0.3-0.5,0.4-1,0.4c-0.4,0-1.1,0-1.8,0
	c0-0.2-0.1-0.6-0.3-0.9c0.7,0.1,1.5,0.1,1.8,0.1c0.2,0,0.4,0,0.5-0.1c0.4-0.4,0.5-1.8,0.7-5.8h-3.9c-0.3,2.2-1.2,4.8-4.1,6.7
	c-0.1-0.2-0.4-0.5-0.7-0.6c2.7-1.8,3.6-4.1,3.9-6.1h-3.6v-0.9h3.7c0-0.5,0.1-1,0.1-1.4V357h0.9v1.3c0,0.4,0,0.9,0,1.4H187.2
	L187.2,359.8z M179.9,359.4c-0.2-0.4-0.7-1.2-1.2-1.8l0.7-0.3c0.4,0.5,1,1.2,1.3,1.7L179.9,359.4z M184.1,364.6
	c-0.3-0.6-1-1.5-1.5-2.3l0.7-0.4c0.6,0.7,1.3,1.5,1.6,2.2L184.1,364.6z"/>
<path class="st4" d="M195.7,357.3c-0.1,0.1-0.1,0.2-0.3,0.4c1.4,1.7,3.1,2.7,4.9,3.5c-0.2,0.1-0.4,0.4-0.5,0.7
	c-1.8-0.9-3.3-1.8-4.8-3.5c-1.3,1.5-3,2.7-4.7,3.5c-0.1-0.2-0.4-0.5-0.6-0.7c2.1-0.9,4.2-2.4,5.3-4.1L195.7,357.3z M195.5,366.4h4.4
	v0.8h-9.7v-0.8h1.5v-4.2h0.8v4.2h2.1v-6.3h0.9v2.7h3.3v0.7h-3.3L195.5,366.4L195.5,366.4z"/>
<path class="st4" d="M212.3,366v0.8h-10V366h3.2v-8.9h0.9v8.9h1.9v-8.9h0.9v8.9H212.3z M204.1,363.9c-0.3-1-1-2.7-1.5-4.1l0.8-0.2
	c0.6,1.3,1.3,3,1.6,4L204.1,363.9z M212.1,360.1c-0.5,1.3-1.3,2.9-2,4l-0.7-0.4c0.7-1,1.5-2.7,1.9-4L212.1,360.1z"/>
<path class="st4" d="M217.9,362.8c-0.4,0.1-0.8,0.3-1.3,0.4v3.2c0,0.4-0.1,0.7-0.4,0.8c-0.3,0.1-0.7,0.1-1.4,0.1
	c0-0.2-0.1-0.5-0.2-0.8c0.5,0,1,0,1,0c0.1,0,0.2-0.1,0.2-0.2v-3c-0.4,0.1-0.9,0.3-1.3,0.4l-0.2-0.8c0.4-0.1,1-0.3,1.5-0.4v-2.5h-1.4
	v-0.8h1.4V357h0.8v2.3h1.3v0.8h-1.3v2.3l1.2-0.4L217.9,362.8z M221.7,366.5c0.4,0.1,0.7,0.1,1.1,0.1c0.3,0,1.8,0,2.2,0
	c-0.1,0.1-0.2,0.5-0.2,0.7h-2c-1.6,0-2.9-0.3-3.6-1.9c-0.3,0.9-0.7,1.5-1.4,2.1c-0.1-0.1-0.4-0.4-0.7-0.5c1-0.8,1.5-2.1,1.7-3.8
	l0.8,0.1c-0.1,0.4-0.1,0.9-0.2,1.3c0.4,1,0.8,1.5,1.5,1.8v-3.6h-2.8v-0.7h6.6v0.7h-3v1.3h2.4v0.7h-2.4V366.5z M224,361.1h-5.4v-3.7
	h5.4V361.1z M223.2,358.1h-3.8v0.9h3.8V358.1z M223.2,359.5h-3.8v0.9h3.8V359.5z"/>
<path class="st4" d="M230.2,357.3c-0.3,0.8-0.7,1.7-1.2,2.4v7.7h-0.8v-6.4c-0.4,0.5-0.7,1-1.1,1.4c-0.1-0.2-0.4-0.7-0.5-0.8
	c1.1-1.1,2.2-2.8,2.8-4.6L230.2,357.3z M232.6,364.9c-0.6,1-1.4,2-2.2,2.7c-0.1-0.1-0.5-0.4-0.7-0.5c0.8-0.6,1.5-1.5,2.1-2.4
	L232.6,364.9z M237.3,363.1v0.8h-7.5v-0.8h1.8v-2.8h-1.5v-0.8h1.5v-2.3h0.8v2.3h2.2v-2.3h0.8v2.3h1.6v0.8h-1.6v2.8H237.3z
	 M232.4,363.1h2.2v-2.8h-2.2V363.1z M235.1,364.6c0.8,0.7,1.6,1.8,2.1,2.4l-0.7,0.4c-0.4-0.7-1.3-1.8-2-2.5L235.1,364.6z"/>
<path class="st4" d="M242.5,357.3c-0.3,0.8-0.7,1.6-1.1,2.4v7.7h-0.8V361c-0.4,0.5-0.7,1-1.2,1.5c-0.1-0.2-0.3-0.7-0.5-0.8
	c1.1-1.2,2.1-2.9,2.8-4.7L242.5,357.3z M247.2,362.2c0.3,2.4,0.8,4.1,1.4,4.2c0.2,0,0.4-0.6,0.4-1.6c0.1,0.1,0.4,0.4,0.6,0.4
	c-0.2,1.7-0.6,2.2-1,2.2c-1.3,0-1.9-2.1-2.2-5.2h-2.7v4.2l1.6-0.4c0,0.2,0,0.5,0,0.7c-2.1,0.6-2.4,0.7-2.6,0.9
	c0-0.2-0.1-0.5-0.3-0.7c0.2-0.1,0.4-0.2,0.4-0.7v-7.9l0,0l0,0c1.9-0.3,4.1-0.7,5.4-1.2l0.7,0.7c-0.6,0.2-1.3,0.4-2.1,0.6
	c0,1.1,0.1,2.1,0.2,3.1h2.4v0.8L247.2,362.2L247.2,362.2z M246.3,361.4c-0.1-0.9-0.1-1.9-0.2-3c-0.8,0.1-1.5,0.3-2.4,0.4v2.5
	L246.3,361.4L246.3,361.4z M245.8,364.9c0.4,0.7,0.9,1.6,1,2.1l-0.7,0.2c-0.1-0.6-0.6-1.5-1-2.2L245.8,364.9z"/>
<path class="st4" d="M252,359.3h0.9v8.2H252V359.3z M253.1,357c0.6,0.7,1.3,1.5,1.6,2.1l-0.7,0.5c-0.3-0.6-1-1.5-1.6-2.1L253.1,357z
	 M261.4,366.4c0,0.6-0.1,0.8-0.5,1c-0.4,0.1-1.1,0.1-2.2,0.1c-0.1-0.2-0.1-0.6-0.3-0.8c0.8,0,1.6,0,1.9,0c0.2,0,0.3-0.1,0.3-0.3
	v-8.1h-5.5v-0.8h6.3V366.4z"/>
<path class="st4" d="M266.8,363.2c-0.1-0.4-0.4-1-0.7-1.5v5.8h-0.8v-5.3c-0.3,1.1-0.7,2.1-1.1,2.8c-0.1-0.2-0.3-0.6-0.4-0.7
	c0.6-0.9,1.2-2.7,1.5-4.2h-1.3v-0.8h1.3V357h0.8v2.2h1v0.8h-1v0.5c0.3,0.4,1,1.7,1.2,2L266.8,363.2z M274.2,366.5v0.7h-7.4v-0.7h0.7
	v-3.4h6.1v3.4H274.2z M268.3,361.9h-0.7v-4.3h0.7V361.9z M268.3,366.5h1v-2.8h-1V366.5z M269.9,362.4h-0.7v-5.3h0.7V362.4z
	 M271.7,359.4c-0.3,0.8-0.7,1.6-1,2.2c-0.1-0.1-0.4-0.4-0.6-0.6c0.7-1,1.2-2.4,1.5-3.8l0.8,0.1c-0.1,0.4-0.2,0.9-0.4,1.4h2.4v0.7
	L271.7,359.4L271.7,359.4z M270,363.7v2.7h1v-2.7H270z M272,360.2c0.7,0.4,1.4,1.1,1.8,1.5l-0.6,0.5c-0.4-0.4-1.1-1.1-1.8-1.6
	L272,360.2z M271.8,363.7v2.7h1.1v-2.7H271.8z"/>
<path class="st4" d="M278.7,367.3c-0.7-0.9-1.7-1.9-2.5-2.6l0.7-0.7c0.8,0.7,1.8,1.7,2.6,2.6L278.7,367.3z"/>
<path class="st4" d="M286.1,357.3c-0.3,0.8-0.7,1.6-1.1,2.4v7.7h-0.8V361c-0.4,0.5-0.7,1-1.2,1.5c-0.1-0.2-0.3-0.7-0.5-0.8
	c1.1-1.2,2.1-2.9,2.8-4.7L286.1,357.3z M290.8,362.2c0.3,2.4,0.8,4.1,1.4,4.2c0.2,0,0.4-0.6,0.4-1.6c0.1,0.1,0.4,0.4,0.6,0.4
	c-0.2,1.7-0.6,2.2-1,2.2c-1.3,0-1.9-2.1-2.2-5.2h-2.7v4.2l1.6-0.4c0,0.2,0,0.5,0,0.7c-2.1,0.6-2.4,0.7-2.6,0.9
	c0-0.2-0.1-0.5-0.3-0.7c0.2-0.1,0.4-0.2,0.4-0.7v-7.9l0,0l0,0c1.9-0.3,4.1-0.7,5.4-1.2l0.7,0.7c-0.6,0.2-1.3,0.4-2.1,0.6
	c0,1.1,0.1,2.1,0.2,3.1h2.4v0.8L290.8,362.2L290.8,362.2z M290,361.4c-0.1-0.9-0.1-1.9-0.2-3c-0.8,0.1-1.5,0.3-2.4,0.4v2.5
	L290,361.4L290,361.4z M289.5,364.9c0.4,0.7,0.9,1.6,1,2.1l-0.7,0.2c-0.1-0.6-0.6-1.5-1-2.2L289.5,364.9z"/>
<path class="st4" d="M304.8,360.9c-0.5,1.5-1.2,2.8-2,3.9c0.4,1.1,1,1.8,1.5,1.8c0.3,0,0.4-0.6,0.5-2.1c0.2,0.2,0.5,0.4,0.7,0.4
	c-0.1,1.9-0.4,2.5-1.3,2.5c-0.9,0-1.5-0.7-2.1-1.9c-0.7,0.7-1.5,1.4-2.4,1.9c-0.1-0.1-0.4-0.5-0.6-0.7c1-0.5,1.9-1.3,2.7-2.1
	c-0.4-1.3-0.7-3-0.8-4.9h-4v1.5h3v0.4c-0.1,2.6-0.1,3.5-0.4,3.8c-0.1,0.2-0.4,0.3-0.7,0.4c-0.3,0-0.8,0-1.4,0c0-0.3-0.1-0.6-0.2-0.8
	c0.5,0.1,1,0.1,1.2,0.1s0.3,0,0.4-0.1c0.1-0.1,0.2-0.9,0.3-2.9h-2.1v0.1c0,1.6-0.1,3.9-1.2,5.4c-0.1-0.1-0.5-0.4-0.7-0.6
	c1-1.4,1-3.4,1-4.9v-3.2h4.8c-0.1-0.7-0.1-1.3-0.1-1.9h0.9c0,0.7,0,1.3,0.1,1.9h3.7v0.8h-3.6c0.1,1.5,0.3,2.9,0.7,4
	c0.6-0.9,1.1-1.9,1.5-3.1L304.8,360.9z M302.8,357.1c0.7,0.4,1.6,0.9,2.1,1.3l-0.5,0.6c-0.4-0.4-1.3-1-2.1-1.4L302.8,357.1z"/>
<path class="st4" d="M314.2,360.3c0.8,1.9,2.3,3.8,3.8,4.6c-0.2,0.1-0.5,0.5-0.7,0.7c-1.7-1-3.2-3.1-4.1-5.4h-0.1v4.2h2.7v0.9h-2.7
	v2.1h-0.9v-2.1h-2.7v-0.9h2.7v-4.2h-0.1c-0.9,2.2-2.4,4.3-4,5.4c-0.1-0.2-0.4-0.5-0.6-0.7c1.5-1,3-2.8,3.8-4.7h-3.5v-0.9h4.5V357
	h0.9v2.4h4.6v0.9L314.2,360.3L314.2,360.3z"/>
<path class="st4" d="M323,357.2c-0.2,0.6-0.4,1.2-0.6,1.7h1.9v7.5h-3.2v0.9h-0.8v-8.3h1.3c0.1-0.5,0.4-1.3,0.4-1.8L323,357.2z
	 M323.5,359.6h-2.4v2.4h2.4V359.6z M323.5,365.5v-2.7h-2.4v2.7H323.5z M329.9,359.2c-0.1,5.2-0.4,7-0.8,7.6
	c-0.2,0.3-0.5,0.4-0.9,0.4c-0.4,0.1-1,0-1.7,0c0-0.2-0.1-0.6-0.3-0.8c0.7,0.1,1.4,0.1,1.7,0.1c0.2,0,0.4,0,0.4-0.1
	c0.4-0.4,0.5-2.1,0.7-6.7h-3c-0.3,0.7-0.7,1.5-1.1,2c-0.1-0.1-0.5-0.4-0.7-0.5c0.7-1,1.4-2.6,1.8-4.1l0.8,0.2
	c-0.1,0.6-0.3,1.1-0.5,1.6h3.5V359.2z M327.4,364.4c-0.4-0.7-1.1-1.8-1.8-2.7l0.7-0.4c0.7,0.8,1.4,1.9,1.8,2.6L327.4,364.4z"/>
<path class="st4" d="M338.1,361.2c0.8,2.5,2.3,4.6,4.5,5.5c-0.2,0.2-0.5,0.5-0.7,0.8c-2.2-1-3.7-3.1-4.6-5.7
	c-0.5,2.2-1.8,4.4-4.6,5.7c-0.1-0.2-0.4-0.5-0.7-0.7c2.9-1.3,4-3.5,4.5-5.6h-4.2v-0.9h4.4c0.1-1.2,0.1-2.4,0.1-3.2h0.9
	c0,0.9,0,2.1-0.1,3.2h4.7v0.9L338.1,361.2L338.1,361.2z"/>
<path class="st4" d="M347,360.6c-0.6,0.7-1.3,1.3-2,1.7c-0.1-0.2-0.3-0.5-0.4-0.7c0.8-0.4,1.6-1,2.2-1.8h-2.1v-0.7h2.4V357h0.8v2.1
	h2.4v0.7h-2.1c0.6,0.4,1.5,1,1.8,1.2l-0.4,0.6c-0.3-0.3-1-0.8-1.5-1.2v1.5h-0.8v-1.5H347z M348.8,366.7c-0.3-0.2-0.6-0.4-1-0.7
	c-0.8,0.7-1.8,1.1-2.8,1.4c-0.1-0.1-0.2-0.5-0.4-0.7c1-0.2,1.8-0.6,2.6-1.1c-0.6-0.3-1.2-0.6-1.8-0.8c0.2-0.4,0.5-0.7,0.7-1.2h-1.2
	v-0.7h1.5c0.1-0.2,0.2-0.5,0.3-0.7l0.7,0.1c-0.1,0.2-0.1,0.4-0.2,0.6h1.8h0.1l0.5,0.2c-0.3,1-0.7,1.8-1.4,2.4c0.4,0.2,0.7,0.4,1,0.6
	L348.8,366.7z M345.7,359c-0.1-0.4-0.4-1-0.7-1.5l0.6-0.2c0.3,0.4,0.7,1,0.7,1.5L345.7,359z M346.8,363.7c-0.1,0.3-0.4,0.7-0.5,0.9
	c0.4,0.1,0.9,0.4,1.3,0.6c0.4-0.4,0.8-0.9,1-1.5L346.8,363.7L346.8,363.7z M349.8,357.5c-0.4,0.5-0.7,1.1-1,1.5l-0.5-0.3
	c0.3-0.4,0.7-1,0.9-1.5L349.8,357.5z M354.1,360.1c-0.3,1.7-0.7,3.1-1.3,4.4c0.6,1,1.3,1.9,2.3,2.4c-0.2,0.1-0.4,0.4-0.6,0.7
	c-0.9-0.5-1.6-1.3-2.1-2.3c-0.7,1-1.5,1.8-2.7,2.4c-0.1-0.1-0.3-0.5-0.4-0.7c1.3-0.6,2.1-1.5,2.8-2.5c-0.4-0.9-0.7-1.9-1-3.1
	c-0.2,0.6-0.5,1-0.8,1.5c-0.1-0.1-0.4-0.4-0.7-0.5c0.9-1.2,1.4-3.1,1.7-5.1l0.8,0.1c-0.1,0.7-0.2,1.3-0.4,2h3.2v0.8h-0.8V360.1z
	 M351.4,360.1c0.2,1.3,0.5,2.4,1,3.5c0.4-1,0.7-2.1,0.9-3.5H351.4z"/>
<path class="st4" d="M359.1,363.2v3.2c0,0.4-0.1,0.7-0.4,0.8c-0.3,0.1-0.7,0.1-1.4,0.1c0-0.2-0.1-0.5-0.2-0.8c0.5,0,1,0,1.1,0
	s0.2-0.1,0.2-0.2v-3c-0.5,0.1-1,0.3-1.3,0.4l-0.2-0.8c0.4-0.1,1-0.3,1.5-0.4v-2.5H357v-0.8h1.4V357h0.8v2.3h1.3v0.8h-1.3v2.3
	l1.2-0.4l0.1,0.8L359.1,363.2z M364.8,362.5v1.4h2.2v3.6h-0.8v-0.4h-3.5v0.4h-0.7v-3.6h2.1v-1.4h-2.3c-0.1,1.7-0.4,3.6-1.4,5
	c-0.1-0.1-0.5-0.4-0.7-0.5c1.2-1.8,1.3-4.3,1.3-6.1v-3.5h6.1v3h-2.1v1.3h2.6v0.7L364.8,362.5L364.8,362.5z M364,361.8v-1.3h-2.2v0.5
	c0,0.2,0,0.5,0,0.7H364z M361.7,358.3v1.5h4.4v-1.5H361.7z M366.2,364.6h-3.5v1.8h3.5V364.6z"/>
<path class="st4" d="M374.1,366.5c0,0.4-0.1,0.6-0.3,0.7c-0.2,0.1-0.6,0.1-1.2,0.1c0-0.2-0.1-0.5-0.2-0.7c0.4,0,0.7,0,0.8,0
	c0.1,0,0.1,0,0.1-0.1v-1.7h-1v2.1h-0.6v-2.1h-1.1c-0.1,1-0.4,2-0.9,2.7c-0.1-0.1-0.4-0.4-0.6-0.4c0.7-1.2,0.9-2.9,0.9-4.2v-2.1
	c-0.1,0.1-0.1,0.2-0.2,0.3c-0.1-0.1-0.4-0.4-0.6-0.5c0.8-0.9,1.4-2.2,1.8-3.6l0.7,0.1c-0.1,0.3-0.1,0.6-0.3,0.9h1.5h0.1l0.5,0.4
	c-0.2,0.5-0.4,1.1-0.7,1.5h1.2L374.1,366.5L374.1,366.5z M371.2,358.7c-0.1,0.4-0.4,0.8-0.6,1.2h1.5c0.1-0.4,0.4-0.8,0.5-1.2H371.2z
	 M371.8,364.1v-1.5h-1v0.4c0,0.4,0,0.7,0,1.2H371.8z M370.7,362h1v-1.4h-1V362z M372.4,362h1v-1.4h-1V362z M373.4,364.1v-1.5h-1v1.5
	H373.4z M376.9,358.3c-0.2,1.3-0.7,2.4-2.1,3.1c-0.1-0.1-0.3-0.4-0.4-0.6c1.2-0.5,1.6-1.4,1.8-2.5h-1.5v-0.7h4.8c0,0,0,0.2,0,0.4
	c-0.1,1.9-0.2,2.6-0.4,2.9c-0.1,0.1-0.4,0.3-0.6,0.3s-0.7,0-1.2,0c0-0.2-0.1-0.5-0.2-0.7c0.4,0.1,0.9,0.1,1,0.1s0.2,0,0.4-0.1
	c0.1-0.1,0.2-0.7,0.3-2L376.9,358.3L376.9,358.3z M379.7,365.3h-2v2.2h-0.8v-2.2h-2.3v-0.7h2.3v-1.4h-1.3c-0.1,0.4-0.4,0.8-0.6,1.1
	c-0.1-0.1-0.4-0.3-0.7-0.4c0.5-0.7,0.9-1.6,1-2.6l0.7,0.1c-0.1,0.3-0.1,0.6-0.2,1h1v-1.1h0.8v1.1h1.7v0.7h-1.7v1.4h2V365.3z"/>
<path class="st4" d="M384.2,363.2c-0.5,1.3-1.3,2.7-1.9,3.8l-0.7-0.5c0.6-0.9,1.4-2.4,2-3.8L384.2,363.2z M383.4,360.2
	c-0.3-0.7-1.1-1.6-1.8-2.4l0.7-0.4c0.7,0.7,1.5,1.6,1.8,2.3L383.4,360.2z M388.8,363.1c0.5,1.8,1.6,3.1,3.3,3.6
	c-0.2,0.1-0.4,0.5-0.6,0.7c-1.8-0.7-2.9-2.1-3.5-4.1c-0.4,1.5-1.3,3-3.5,4.1c-0.1-0.1-0.4-0.5-0.6-0.7c2.2-1,3-2.4,3.3-3.8h-2.7
	v-0.8h2.8c0.1-0.5,0.1-1,0.1-1.4v-1.2h-2.3v-0.8h2.3V357h0.9v1.8h2.6v3.5h1.1v0.8H388.8z M388.4,360.9c0,0.4,0,1-0.1,1.4h1.8v-2.7
	h-1.8V360.9z"/>
<path class="st4" d="M398.1,359.9c0,0.6-0.1,1.2-0.1,1.8h4.9c0,0,0,0.3,0,0.4c-0.2,3.2-0.4,4.5-0.9,4.9c-0.3,0.3-0.5,0.4-1,0.4
	c-0.4,0-1.2,0-1.9-0.1c0-0.2-0.1-0.6-0.3-0.8c0.8,0.1,1.6,0.1,1.9,0.1c0.3,0,0.4,0,0.5-0.1c0.4-0.3,0.6-1.4,0.7-4h-4.1
	c-0.4,2-1.3,3.9-3.4,5.1c-0.1-0.2-0.4-0.5-0.6-0.7c3-1.5,3.2-4.4,3.3-7h-3.1v-0.8h5c-0.1-0.4-0.5-1.2-0.8-1.7l0.8-0.3
	c0.3,0.5,0.7,1.3,0.8,1.7l-0.8,0.4h4.8v0.8h-5.8V359.9z"/>
<path class="st4" d="M412,364.7c1,0.9,2.7,1.6,4.3,2c-0.2,0.1-0.4,0.5-0.5,0.7c-1.6-0.4-3.3-1.3-4.4-2.4v2.6h-0.8V365
	c-1,1-2.7,1.9-4.4,2.4c-0.1-0.2-0.4-0.5-0.5-0.7c1.5-0.4,3.2-1.1,4.2-2h-4V364h4.6v-1h0.8v1h4.7v0.7L412,364.7L412,364.7z
	 M414.9,363.6c-1-0.4-2.2-0.7-3.6-1c-1.3,0.5-3,0.8-5.1,1c-0.1-0.2-0.1-0.5-0.3-0.7c1.6-0.1,3-0.2,4.1-0.6c-0.8-0.1-1.7-0.3-2.6-0.4
	c0.4-0.4,0.8-0.7,1.3-1.3h-2.7v-0.7h3.3c0.3-0.4,0.6-0.7,0.8-1l0.7,0.2c-0.1,0.2-0.4,0.5-0.6,0.8h5.8v0.7h-2.2
	c-0.4,0.6-0.8,1.1-1.5,1.5c1.3,0.3,2.5,0.6,3.4,0.9L414.9,363.6z M407,359.6h-0.8V358h4.4c-0.1-0.2-0.3-0.4-0.4-0.7l0.7-0.2
	c0.2,0.3,0.4,0.7,0.6,1h4.4v1.6H415v-0.9h-8V359.6z M409.5,360.5c-0.3,0.3-0.5,0.6-0.8,0.8c0.8,0.1,1.7,0.3,2.4,0.4
	c0.7-0.4,1.2-0.7,1.6-1.3H409.5z"/>
<path class="st4" d="M421.3,365.6c0,1-0.8,1.8-1.8,1.8c-1,0-1.8-0.8-1.8-1.8s0.8-1.8,1.8-1.8C420.5,363.9,421.3,364.7,421.3,365.6z
	 M420.7,365.6c0-0.7-0.5-1.2-1.2-1.2c-0.7,0-1.2,0.5-1.2,1.2s0.5,1.2,1.2,1.2C420.2,366.8,420.7,366.3,420.7,365.6z"/>
<path class="st4" d="M429,365.3c-1.8,0.4-3.7,0.9-5.1,1.2l-0.1-0.9l0.8-0.1v-7.8h3.8v7l0.7-0.1V365.3z M425.4,358.4v1.7h2.1v-1.7
	H425.4z M427.5,360.9h-2.1v1.6h2.1V360.9z M425.4,365.3c0.7-0.1,1.4-0.3,2.1-0.4v-1.5h-2.1V365.3z M434,359.7c0,0,0,0.3,0,0.4
	c-0.1,4.8-0.2,6.4-0.6,6.9c-0.2,0.3-0.4,0.4-0.8,0.4c-0.4,0-1,0-1.5,0c0-0.2-0.1-0.6-0.2-0.8c0.7,0.1,1.3,0.1,1.5,0.1
	c0.2,0,0.3,0,0.4-0.1c0.3-0.4,0.4-1.8,0.5-6.1h-1.8c-0.1,3-0.8,5.5-3.1,7.1c-0.1-0.2-0.4-0.5-0.6-0.7c2.2-1.4,2.7-3.8,3-6.5h-1.8
	v-0.8h1.8c0-0.8,0-1.7,0-2.6h0.8c0,0.9,0,1.8,0,2.6H434z"/>
<path class="st4" d="M445.7,359.6c0,0,0,0.3,0,0.4c-0.2,4.7-0.5,6.4-1,7c-0.3,0.3-0.5,0.4-1,0.4c-0.4,0-1.1,0-1.8,0
	c0-0.2-0.1-0.6-0.3-0.9c0.8,0.1,1.5,0.1,1.8,0.1c0.2,0,0.4,0,0.5-0.1c0.4-0.4,0.7-2,0.9-6.1h-3.8c-0.1,2.4-0.9,5.2-4.3,7.2
	c-0.1-0.2-0.4-0.5-0.7-0.7c3.1-1.8,3.8-4.4,4-6.5h-3.7v-0.9h3.7c0-0.1,0-0.4,0-0.5v-1.9h0.9v2c0,0.1,0,0.3,0,0.5L445.7,359.6
	L445.7,359.6z"/>
<path class="st4" d="M453.8,357.4c-0.1,0.1-0.1,0.2-0.3,0.4c1.4,1.7,3.1,2.7,4.9,3.5c-0.2,0.1-0.4,0.4-0.5,0.7
	c-1.8-0.9-3.3-1.8-4.8-3.5c-1.3,1.5-3,2.7-4.7,3.5c-0.1-0.2-0.4-0.5-0.6-0.7c2.1-0.9,4.2-2.4,5.3-4.1L453.8,357.4z M453.6,366.4h4.4
	v0.8h-9.7v-0.8h1.5v-4.2h0.8v4.2h2.1v-6.3h0.9v2.7h3.3v0.7h-3.3V366.4z"/>
<path class="st4" d="M470,366.1v0.8h-10v-0.8h3.2v-8.9h0.9v8.9h1.9v-8.9h0.9v8.9H470z M461.9,364c-0.3-1-1-2.7-1.5-4.1l0.8-0.2
	c0.6,1.3,1.3,3,1.6,4L461.9,364z M469.8,360.1c-0.5,1.3-1.3,2.9-2,4l-0.7-0.4c0.7-1,1.5-2.7,1.9-4L469.8,360.1z"/>
<g>
	<path class="st4" d="M74.6,385.5c0.3,0.4,1.2,1.8,1.4,2.1l-0.5,0.7c-0.1-0.4-0.5-1.1-0.9-1.6v5.9h-0.8v-5.6
		c-0.4,1.3-0.9,2.5-1.4,3.2c-0.1-0.2-0.3-0.6-0.4-0.8c0.7-1,1.5-2.8,1.8-4.4h-1.7v-0.8h1.7V382h0.8v2.2h1.3v0.8h-1.3L74.6,385.5
		L74.6,385.5z M82.2,384.3c-0.1,5.4-0.4,7.1-0.7,7.7c-0.2,0.3-0.4,0.4-0.9,0.4c-0.4,0.1-0.9,0-1.5,0c0-0.2-0.1-0.6-0.3-0.9
		c0.6,0.1,1.2,0.1,1.4,0.1c0.2,0,0.3,0,0.4-0.1c0.4-0.4,0.5-2.1,0.7-6.8h-4c-0.3,0.7-0.7,1.3-1.1,1.9c-0.1-0.1-0.5-0.4-0.7-0.5
		c0.8-1,1.5-2.5,1.8-4.1l0.8,0.2c-0.1,0.6-0.4,1.2-0.5,1.7h4.5L82.2,384.3L82.2,384.3z M79.7,390.1c-0.1-0.2-0.1-0.5-0.2-0.8
		c-2.5,0.5-2.9,0.6-3.1,0.7c-0.1-0.1-0.1-0.5-0.3-0.7c0.1-0.1,0.4-0.3,0.5-0.7c0.2-0.4,0.8-1.8,1.1-3.1l0.8,0.2
		c-0.4,1.2-0.9,2.4-1.4,3.3l2.1-0.4c-0.1-0.4-0.4-1-0.6-1.3l0.7-0.2c0.4,0.9,0.9,2.1,1.1,2.7L79.7,390.1z"/>
	<path class="st4" d="M87.3,386c-0.1,1.6-0.5,3-1,4.1c1.1,1.1,2.7,1.4,4.6,1.4c0.4,0,3,0,3.5,0c-0.1,0.2-0.3,0.6-0.3,0.8h-3.2
		c-2.1,0-3.8-0.3-4.9-1.5c-0.4,0.7-0.9,1.3-1.4,1.7c-0.1-0.1-0.4-0.4-0.7-0.6c0.6-0.4,1.1-1,1.5-1.7c-0.4-0.6-0.7-1.3-1-2.2l0.7-0.2
		c0.2,0.7,0.4,1.3,0.7,1.7c0.3-0.7,0.5-1.7,0.7-2.7h-1.8c0.5-0.8,1.1-2.1,1.6-3.2h-2v-0.7h3.2c-0.5,1-1.1,2.2-1.6,3.2h0.8h0.1H87.3z
		 M90.1,383.6h-2.2V383h2.2v-1h0.8v1h2.5v1.5h0.8v0.7h-0.8v1.5h-2.5v0.9h2.7v0.7h-2.7v1H94v0.7h-3.1v1.1h-0.8v-1.1h-2.9v-0.7h2.9v-1
		h-2.4v-0.7h2.4v-0.9h-2.3v-0.7h2.3v-0.9h-3v-0.7h3V383.6z M90.9,383.6v0.8h1.7v-0.8H90.9z M92.6,385.2h-1.7v0.9h1.7V385.2z"/>
	<path class="st4" d="M99.1,383.5h2.1c2.6,0,4,1.5,4,4.2c0,2.7-1.4,4.2-3.9,4.2h-2.1L99.1,383.5L99.1,383.5z M101.1,391.1
		c2,0,3-1.3,3-3.4c0-2.1-1-3.3-3-3.3h-1v6.7H101.1z"/>
	<path class="st4" d="M107,390c0-1.3,1.2-2.1,3.8-2.4c0-0.8-0.3-1.5-1.3-1.5c-0.7,0-1.4,0.4-1.8,0.7l-0.4-0.7
		c0.6-0.4,1.5-0.8,2.4-0.8c1.5,0,2.1,1,2.1,2.6v3.8h-0.9l-0.1-0.7l0,0c-0.6,0.5-1.3,0.9-2.1,0.9C107.7,391.8,107,391.1,107,390z
		 M110.8,390.1v-1.8c-2.1,0.2-2.8,0.7-2.8,1.5c0,0.7,0.5,1,1.1,1C109.7,390.9,110.2,390.6,110.8,390.1z"/>
	<path class="st4" d="M114.3,389.6v-3.5h-1v-0.8l1-0.1l0.1-1.8h0.9v1.8h1.7v0.9h-1.7v3.5c0,0.7,0.2,1.2,1,1.2c0.2,0,0.5-0.1,0.7-0.1
		l0.2,0.8c-0.4,0.1-0.7,0.2-1.2,0.2C114.8,391.8,114.3,390.9,114.3,389.6z"/>
	<path class="st4" d="M118.2,390c0-1.3,1.2-2.1,3.8-2.4c0-0.8-0.3-1.5-1.3-1.5c-0.7,0-1.4,0.4-1.8,0.7l-0.4-0.7
		c0.6-0.4,1.5-0.8,2.4-0.8c1.5,0,2.1,1,2.1,2.6v3.8h-0.9l-0.1-0.7l0,0c-0.6,0.5-1.3,0.9-2.1,0.9C119.1,391.8,118.2,391.1,118.2,390z
		 M122.1,390.1v-1.8c-2.1,0.2-2.8,0.7-2.8,1.5c0,0.7,0.5,1,1.1,1C121,390.9,121.5,390.6,122.1,390.1z"/>
	<path class="st4" d="M128.8,383.1h1.3l1.6,4.5c0.2,0.6,0.4,1.2,0.6,1.8h0.1c0.2-0.6,0.4-1.2,0.6-1.8l1.6-4.5h1.3v8.4h-1v-4.6
		c0-0.7,0.1-1.8,0.1-2.5h-0.1l-0.7,1.9l-1.6,4.4h-0.7l-1.6-4.4l-0.7-1.9h-0.1c0.1,0.7,0.1,1.8,0.1,2.5v4.6h-1v-8.4H128.8z"/>
	<path class="st4" d="M138,388.4c0-2,1.4-3.3,2.8-3.3c1.5,0,2.5,1.2,2.5,3c0,0.2,0,0.4-0.1,0.6h-4.2c0.1,1.3,0.9,2.2,2.1,2.2
		c0.6,0,1.1-0.1,1.5-0.5l0.4,0.7c-0.5,0.4-1.2,0.7-2.1,0.7C139.4,391.8,138,390.5,138,388.4z M142.4,387.9c0-1.3-0.6-1.9-1.5-1.9
		c-0.9,0-1.7,0.7-1.8,1.9H142.4z"/>
	<path class="st4" d="M144.7,390.9l0.5-0.7c0.5,0.4,1.1,0.7,1.8,0.7c0.8,0,1.3-0.4,1.3-1c0-0.7-0.7-0.9-1.4-1.2
		c-0.9-0.3-1.8-0.7-1.8-1.8c0-1,0.8-1.8,2.1-1.8c0.7,0,1.5,0.3,1.9,0.7l-0.5,0.7c-0.4-0.3-0.9-0.5-1.4-0.5c-0.8,0-1.1,0.4-1.1,0.9
		c0,0.6,0.7,0.8,1.4,1.1c0.9,0.4,1.9,0.7,1.9,1.9c0,1-0.8,1.8-2.3,1.8C146.1,391.8,145.3,391.4,144.7,390.9z"/>
	<path class="st4" d="M151.2,382.5h1v2.5v1.3c0.6-0.6,1.2-1,2.1-1c1.3,0,1.9,0.9,1.9,2.4v4h-1v-3.8c0-1.2-0.4-1.7-1.2-1.7
		c-0.7,0-1.1,0.3-1.7,1v4.5h-1.1V382.5z"/>
	<path class="st4" d="M163.8,383.9c-0.2,1.5-0.8,2.7-2.1,3.5c-0.1-0.1-0.4-0.5-0.5-0.7c1.2-0.6,1.6-1.5,1.8-2.8h-1.6v-0.7h1.8
		c0-0.4,0.1-0.8,0.1-1.2h0.8c0,0.4-0.1,0.8-0.1,1.2h2.4c0,0,0,0.2,0,0.4c-0.1,2.1-0.2,2.9-0.5,3.2c-0.1,0.2-0.4,0.3-0.7,0.3
		c-0.2,0-0.7,0-1.1,0c0-0.2-0.1-0.5-0.2-0.7c0.4,0,0.8,0.1,1,0.1c0.1,0,0.2,0,0.4-0.1s0.3-0.7,0.4-2.2L163.8,383.9L163.8,383.9z
		 M167.4,389c1,1.1,2.6,2.1,4.2,2.5c-0.1,0.1-0.4,0.5-0.6,0.7c-1.5-0.5-3.2-1.5-4.2-2.8v3.1h-0.9v-3.2c-1,1.3-2.7,2.4-4.2,3
		c-0.1-0.2-0.4-0.5-0.6-0.7c1.5-0.5,3.2-1.5,4.1-2.7h-3.9v-0.7h4.6v-1.1h0.9v1.1h4.4v0.7L167.4,389L167.4,389z M171.1,386.7h-4v-3.9
		h4V386.7z M170.3,383.6h-2.4v2.4h2.4V383.6z"/>
	<path class="st4" d="M175.8,385.5c0.3,0.4,1.2,1.8,1.4,2.1l-0.5,0.7c-0.1-0.4-0.5-1.1-0.9-1.6v5.9H175v-5.6
		c-0.4,1.3-0.9,2.5-1.4,3.2c-0.1-0.2-0.3-0.6-0.4-0.8c0.7-1,1.5-2.8,1.8-4.4h-1.6v-0.8h1.7V382h0.8v2.2h1.3v0.8h-1.3L175.8,385.5
		L175.8,385.5z M183.3,384.3c-0.1,5.4-0.4,7.1-0.7,7.7c-0.2,0.3-0.4,0.4-0.9,0.4c-0.4,0.1-0.9,0-1.5,0c0-0.2-0.1-0.6-0.3-0.9
		c0.6,0.1,1.2,0.1,1.4,0.1c0.2,0,0.3,0,0.4-0.1c0.4-0.4,0.5-2.1,0.7-6.8h-3.9c-0.3,0.7-0.7,1.3-1.1,1.9c-0.1-0.1-0.5-0.4-0.7-0.5
		c0.8-1,1.5-2.5,1.8-4.1l0.8,0.2c-0.1,0.6-0.4,1.2-0.5,1.7h4.5L183.3,384.3L183.3,384.3z M181,390.1c-0.1-0.2-0.1-0.5-0.2-0.8
		c-2.5,0.5-2.9,0.6-3.1,0.7c-0.1-0.1-0.1-0.5-0.3-0.7c0.1-0.1,0.4-0.3,0.5-0.7c0.2-0.4,0.8-1.8,1.1-3.1l0.8,0.2
		c-0.4,1.2-0.9,2.4-1.4,3.3l2.1-0.4c-0.1-0.4-0.4-1-0.6-1.3l0.7-0.2c0.4,0.9,0.9,2.1,1.1,2.7L181,390.1z"/>
	<path class="st4" d="M185.4,392.2c0.9-0.4,1.4-0.9,1.5-1.7c-0.1,0-0.1,0-0.2,0c-0.4,0-0.9-0.3-0.9-0.8c0-0.5,0.4-0.8,0.9-0.8
		c0.7,0,1,0.5,1,1.3c0,1.3-0.8,2.2-2,2.6L185.4,392.2z"/>
	<path class="st4" d="M195.4,389.4c0.1,0.2,0.1,0.5,0.3,0.7c-2.1,1.6-2.4,1.9-2.6,2.1c-0.1-0.1-0.4-0.4-0.5-0.5
		c0.2-0.2,0.7-0.7,0.7-1.3v-4h-1.8v-0.8h2.6v4.8L195.4,389.4z M194.2,384.5c-0.4-0.4-1.2-1.3-1.8-1.8l0.5-0.5
		c0.6,0.5,1.4,1.3,1.8,1.7L194.2,384.5z M201.8,391.2v0.8h-6.9v-0.8h2.7V382h0.9v3.7h2.5v0.8h-2.5v4.7H201.8z"/>
	<path class="st4" d="M208.2,387c-0.7,1.4-1.7,2.8-2.6,3.9l5.8-0.4c-0.4-0.7-1-1.5-1.4-2.1l0.7-0.4c1,1.3,2.1,3,2.7,4l-0.8,0.5
		c-0.1-0.4-0.4-0.7-0.7-1.3c-6.3,0.5-6.9,0.6-7.4,0.8c-0.1-0.2-0.2-0.7-0.3-1c0.2-0.1,0.5-0.4,0.9-0.9c0.4-0.4,1.3-1.8,2-3.2h-3.5
		v-0.9h10.1v0.9H208.2z M212.5,383.7h-7.7v-0.9h7.7V383.7z"/>
	<path class="st4" d="M225.6,391v0.9h-10.2V391h4.3v-8.9h0.9v3.5h4.3v0.9h-4.3v4.5H225.6z"/>
	<path class="st4" d="M233.7,386.5c0.7,2.1,2.1,3.8,4.2,4.6c-0.4,0.4-1,1.1-1.3,1.5c-2-1-3.3-2.4-4.1-4.5c-0.7,1.8-1.8,3.4-4.1,4.5
		c-0.3-0.4-0.7-1-1.3-1.4c2.5-1.1,3.5-2.9,4.1-4.7h-3.8v-1.8h4.1c0.1-1,0.1-2,0.1-3h1.8c0,1,0,2-0.1,3h4.4v1.8L233.7,386.5
		L233.7,386.5z"/>
	<path class="st4" d="M241.3,386.2c-0.5,0.4-1,0.9-1.5,1.1c-0.1-0.4-0.5-0.9-0.8-1.2c0.6-0.2,1.3-0.7,1.8-1.1h-1.4v-1.3h0.7
		c-0.1-0.4-0.3-1-0.6-1.3l1.2-0.5c0.3,0.4,0.6,1,0.7,1.4l-1,0.4h1v-2h1.5v1.5c0.2-0.4,0.5-1,0.7-1.4l1.4,0.5c-0.4,0.5-0.7,1-1,1.3
		l-1-0.4v0.4h2.1v1.3h-1.4c0.4,0.2,0.9,0.5,1,0.6l-0.9,1.1c-0.2-0.2-0.6-0.5-0.9-0.8v1h-1.5V386.2z M243.2,392
		c-0.2-0.1-0.5-0.4-0.8-0.6c-0.7,0.5-1.7,1-2.7,1.3c-0.1-0.4-0.4-1-0.7-1.3c0.7-0.1,1.5-0.4,2.1-0.7c-0.5-0.3-1-0.5-1.5-0.7
		c0.2-0.3,0.4-0.6,0.6-1h-0.7v-1.3h1.4c0.1-0.2,0.1-0.4,0.3-0.7l1.5,0.3c-0.1,0.1-0.1,0.2-0.1,0.4h1.3l0.2-0.1l0.9,0.3
		c-0.3,1-0.7,1.8-1.3,2.6c0.3,0.1,0.5,0.3,0.7,0.4L243.2,392z M241.7,389c-0.1,0.1-0.1,0.3-0.2,0.4c0.2,0.1,0.5,0.2,0.7,0.4
		c0.2-0.2,0.4-0.5,0.6-0.8H241.7z M249.1,385.3c-0.2,1.5-0.5,2.9-1,4c0.5,0.8,1.2,1.5,2,1.9c-0.4,0.3-0.8,0.9-1.1,1.3
		c-0.7-0.4-1.3-1-1.8-1.8c-0.7,0.8-1.4,1.4-2.4,1.9c-0.1-0.4-0.6-1-0.9-1.3c1.1-0.5,1.9-1.2,2.5-2.1c-0.3-0.7-0.5-1.3-0.7-2.1
		c-0.1,0.3-0.3,0.5-0.5,0.8c-0.2-0.3-0.9-0.8-1.2-1c1-1.2,1.5-3.2,1.7-5.2l1.5,0.2c-0.1,0.7-0.2,1.3-0.3,1.8h3v1.5L249.1,385.3
		L249.1,385.3z M246.6,385.3c0.1,0.7,0.3,1.4,0.5,2.1c0.1-0.7,0.3-1.3,0.4-2.1H246.6z"/>
	<path class="st4" d="M254.8,388.1c-0.4,0.1-0.7,0.2-1.1,0.3v2.4c0,0.7-0.1,1.1-0.5,1.4c-0.4,0.3-1,0.3-1.7,0.3
		c0-0.4-0.2-1.1-0.4-1.5c0.4,0,0.7,0,0.9,0s0.1-0.1,0.1-0.2v-2l-1,0.2l-0.4-1.6c0.4-0.1,0.8-0.1,1.3-0.3v-1.8h-1.1v-1.5h1.1v-2.1
		h1.5v2.1h1.1v1.5h-1.1v1.4l0.9-0.2L254.8,388.1z M259.6,388v0.9h2v3.8h-1.5v-0.2h-2.4v0.2h-1.4v-3c-0.2,1.1-0.6,2.2-1.1,3
		c-0.3-0.3-1-0.8-1.3-1c1.1-1.7,1.2-4.2,1.2-6v-3.5h6.5v3.5h-1.9v0.9h2.2v1.4L259.6,388L259.6,388z M258,388h-1.5
		c0,0.3-0.1,0.6-0.1,0.9h1.6L258,388L258,388z M258,385.7h-1.4c0,0.3,0,0.6,0,0.9h1.4V385.7z M256.6,383.6v0.7h3.3v-0.7H256.6z
		 M260.1,390.3h-2.4v0.8h2.4V390.3z"/>
	<path class="st4" d="M273.3,387.6c0,0,0,0.4-0.1,0.7c-0.2,2.4-0.5,3.5-1,4c-0.3,0.4-0.7,0.4-1,0.5c-0.4,0.1-0.9,0.1-1.5,0
		c0-0.4-0.1-1-0.4-1.3c-0.4,0.5-0.9,1-1.3,1.4c-0.3-0.3-1-0.8-1.3-1c1-0.6,1.7-1.6,2.2-2.7h-0.7c-0.9,1.4-2.1,2.6-3.5,3.4
		c-0.3-0.3-0.9-0.9-1.3-1.2c1-0.5,2.1-1.3,2.7-2.2h-0.7c-0.5,0.5-1.2,1-1.8,1.3c-0.3-0.3-0.9-1-1.3-1.2c1-0.5,2-1.3,2.7-2.1h-0.9
		v-4.8h7.7v4.8h-4.9c-0.1,0.1-0.2,0.4-0.4,0.5H273.3z M266.3,384h4.4v-0.4h-4.4V384z M266.3,385.7h4.4v-0.5h-4.4V385.7z M270.8,389
		c-0.4,0.8-0.7,1.6-1.3,2.3c0.4,0,0.8,0,1,0c0.2,0,0.3,0,0.4-0.1c0.2-0.2,0.4-0.8,0.6-2.1H270.8z"/>
	<path class="st4" d="M280.4,384.1c-0.1,2.3-0.4,4-1,5.3c0.4,0.4,0.7,0.7,1,1l-1.1,1.4c-0.2-0.3-0.5-0.6-0.9-1
		c-0.7,0.8-1.5,1.3-2.5,1.8c-0.2-0.4-0.6-1-1-1.4c1-0.3,1.7-0.8,2.3-1.5c-0.7-0.6-1.3-1.2-1.8-1.8l0,0l0,0l0,0
		c0.2-0.7,0.4-1.5,0.7-2.5h-1v-1.5h1.3c0.1-0.7,0.2-1.5,0.3-2.1l1.6,0.1c-0.1,0.7-0.1,1.4-0.3,2.1h1.3h0.3L280.4,384.1z
		 M277.6,385.5c-0.1,0.7-0.3,1.3-0.4,2c0.3,0.3,0.7,0.5,1,0.8c0.3-0.8,0.5-1.7,0.7-2.8L277.6,385.5L277.6,385.5z M285.5,382.9v9.2
		h-1.6v-0.7h-1.5v0.9h-1.5v-9.4L285.5,382.9L285.5,382.9z M283.8,389.9v-5.5h-1.5v5.5H283.8z"/>
	<path class="st4" d="M297,385.3c-0.4,1.9-1.2,3.5-2.3,4.6c0.8,0.5,1.8,0.9,2.9,1.1c-0.4,0.4-0.8,1-1,1.5c-1.3-0.4-2.3-0.8-3.2-1.5
		c-1,0.7-2,1.1-3.2,1.5c-0.2-0.4-0.6-1.2-1-1.5c1-0.3,2-0.7,2.9-1.2c-0.8-0.9-1.4-2-1.9-3.3h-0.4c-0.1,1.9-0.4,4.5-1.5,6.1
		c-0.3-0.3-1-0.8-1.5-1c1.1-1.6,1.2-4.1,1.2-5.9v-3.2c2.8-0.1,5.9-0.3,7.7-0.9l1.4,1.3c-2.1,0.7-4.8,1-7.4,1v0.8h5.8l0.3-0.1
		L297,385.3z M291.9,386.6c0.4,0.9,0.9,1.6,1.5,2.3c0.6-0.7,1.1-1.4,1.5-2.3H291.9z"/>
	<path class="st4" d="M305.2,390.1h4.3v1.1h-4.3v0.1c0,0.7-0.2,1-0.7,1.2c-0.5,0.1-1.3,0.1-2.1,0.1c-0.1-0.4-0.4-0.9-0.5-1.3
		c0.5,0,1.3,0,1.5,0c0.2,0,0.3-0.1,0.3-0.2v-0.1h-4.3V390h4.3v-0.3H300v-1h3.6v-0.3c-1,0-2.1,0-3,0c0-0.3-0.1-0.7-0.3-1
		c2.4,0,5.2-0.1,6.9-0.4H301v-2.4h6.5v2.4h-0.1l1,0.9c-1,0.1-2.1,0.3-3.2,0.4v0.4h3.7v1.1h-3.7L305.2,390.1L305.2,390.1z
		 M309.4,383.1v2.7h-1.6v-1.3h-7v1.3h-1.5v-2.7h1.5c-0.1-0.3-0.4-0.6-0.5-0.9l1.5-0.6c0.3,0.4,0.6,0.9,0.7,1.2L302,383h1.5v-1.3h1.7
		v1.3h1.5l-0.7-0.2c0.3-0.4,0.7-0.8,0.8-1.2l1.8,0.5c-0.3,0.4-0.7,0.7-0.9,0.9L309.4,383.1L309.4,383.1z M305.9,385.7h-3.3v0.4h3.3
		V385.7z"/>
	<path class="st4" d="M314.8,390.7c0,1-0.9,1.9-1.9,1.9c-1,0-1.9-0.9-1.9-1.9s0.9-1.9,1.9-1.9C313.9,388.7,314.8,389.6,314.8,390.7z
		 M313.9,390.7c0-0.5-0.4-1-1-1c-0.5,0-1,0.4-1,1s0.4,1,1,1C313.4,391.5,313.9,391.2,313.9,390.7z"/>
</g>
<g>
	<g>
		<path class="st7" d="M180.2,458.5H80.8c-5.4,0-9.7-4.4-9.7-9.7l0,0c0-5.4,4.4-9.7,9.7-9.7h99.4c5.4,0,9.7,4.4,9.7,9.7l0,0
			C189.9,454.2,185.5,458.5,180.2,458.5z"/>
	</g>
	<g>
		<path class="st7" d="M217.4,488.9H80.8c-5.4,0-9.7-4.4-9.7-9.7l0,0c0-5.4,4.4-9.7,9.7-9.7h136.6c5.4,0,9.7,4.4,9.7,9.7l0,0
			C227.1,484.6,222.8,488.9,217.4,488.9z"/>
	</g>
	<g>
		<path class="st7" d="M167.2,519.6H80.8c-5.4,0-9.7-4.4-9.7-9.7l0,0c0-5.4,4.4-9.7,9.7-9.7h86.3c5.4,0,9.7,4.4,9.7,9.7l0,0
			C176.9,515.2,172.6,519.6,167.2,519.6z"/>
	</g>
	<g>
		<g class="st5">
			<path class="st8" d="M83.1,443.6h1.3l1.6,4.5c0.2,0.6,0.4,1.2,0.6,1.8h0.1c0.2-0.6,0.4-1.2,0.6-1.8l1.6-4.5h1.3v8.5h-1v-4.7
				c0-0.7,0.1-1.8,0.1-2.5h-0.1l-0.7,1.9l-1.6,4.4h-0.7l-1.6-4.4l-0.7-1.9h-0.1c0.1,0.7,0.1,1.8,0.1,2.5v4.7h-1V443.6z"/>
			<path class="st8" d="M93.1,450.5c0-1.3,1.2-2.1,3.8-2.4c0-0.8-0.3-1.5-1.3-1.5c-0.7,0-1.4,0.4-1.9,0.7l-0.4-0.7
				c0.6-0.4,1.5-0.8,2.5-0.8c1.5,0,2.1,1,2.1,2.6v3.8H97l-0.1-0.7l0,0c-0.6,0.5-1.3,0.9-2.1,0.9C93.9,452.3,93.1,451.6,93.1,450.5z
				 M96.9,450.6v-1.7c-2.1,0.2-2.8,0.7-2.8,1.5c0,0.7,0.5,1,1.1,1S96.3,451.2,96.9,450.6z"/>
			<path class="st8" d="M100.4,451.4l0.5-0.7c0.5,0.4,1.1,0.7,1.8,0.7c0.8,0,1.3-0.4,1.3-1c0-0.7-0.7-1-1.4-1.2
				c-0.9-0.3-1.8-0.7-1.8-1.8c0-1,0.8-1.8,2.1-1.8c0.7,0,1.5,0.3,1.9,0.7l-0.5,0.7c-0.4-0.3-0.9-0.6-1.5-0.6c-0.8,0-1.1,0.4-1.1,0.9
				c0,0.6,0.7,0.8,1.4,1.1c0.9,0.4,1.9,0.7,1.9,1.9c0,1-0.8,1.8-2.3,1.8C101.9,452.3,101,451.9,100.4,451.4z"/>
			<path class="st8" d="M107.6,450.2v-3.5h-1v-0.8l1-0.1l0.1-1.8h0.9v1.8h1.7v0.9h-1.7v3.5c0,0.7,0.2,1.2,1,1.2
				c0.2,0,0.5-0.1,0.7-0.1l0.2,0.8c-0.4,0.1-0.7,0.2-1.2,0.2C108,452.3,107.6,451.5,107.6,450.2z"/>
			<path class="st8" d="M112.2,449c0-2.1,1.4-3.3,2.8-3.3c1.6,0,2.5,1.2,2.5,3c0,0.2,0,0.4-0.1,0.6h-4.2c0.1,1.3,0.9,2.2,2.1,2.2
				c0.6,0,1.1-0.2,1.5-0.5l0.4,0.7c-0.6,0.4-1.3,0.7-2.1,0.7C113.5,452.3,112.2,451.1,112.2,449z M116.6,448.5
				c0-1.3-0.6-1.9-1.5-1.9c-0.9,0-1.7,0.7-1.8,1.9H116.6z"/>
			<path class="st8" d="M120.2,445.9h0.9l0.1,1.1l0,0c0.4-0.8,1.1-1.3,1.8-1.3c0.3,0,0.4,0,0.7,0.1l-0.2,1c-0.2-0.1-0.4-0.1-0.6-0.1
				c-0.5,0-1.2,0.4-1.5,1.5v4.1h-1L120.2,445.9L120.2,445.9z"/>
			<path class="st8" d="M129.6,443.6h2.1c2.6,0,4,1.5,4,4.2s-1.4,4.3-4,4.3h-2.1V443.6z M131.6,451.2c2,0,3-1.3,3-3.4
				c0-2.1-1-3.3-3-3.3h-1v6.7H131.6z"/>
			<path class="st8" d="M138.2,450.5c0-1.3,1.2-2.1,3.8-2.4c0-0.8-0.3-1.5-1.3-1.5c-0.7,0-1.4,0.4-1.9,0.7l-0.4-0.7
				c0.6-0.4,1.5-0.8,2.5-0.8c1.5,0,2.1,1,2.1,2.6v3.8h-0.9l-0.1-0.7l0,0c-0.6,0.5-1.3,0.9-2.1,0.9
				C139,452.3,138.2,451.6,138.2,450.5z M142,450.6v-1.7c-2.1,0.2-2.8,0.7-2.8,1.5c0,0.7,0.5,1,1.1,1
				C140.9,451.5,141.4,451.2,142,450.6z"/>
			<path class="st8" d="M146.2,450.2v-3.5h-1v-0.8l1-0.1l0.1-1.8h0.9v1.8h1.7v0.9h-1.7v3.5c0,0.7,0.2,1.2,1,1.2
				c0.2,0,0.5-0.1,0.7-0.1l0.2,0.8c-0.4,0.1-0.7,0.2-1.2,0.2C146.7,452.3,146.2,451.5,146.2,450.2z"/>
			<path class="st8" d="M150.9,450.5c0-1.3,1.2-2.1,3.8-2.4c0-0.8-0.3-1.5-1.3-1.5c-0.7,0-1.4,0.4-1.9,0.7l-0.4-0.7
				c0.6-0.4,1.5-0.8,2.5-0.8c1.5,0,2.1,1,2.1,2.6v3.8h-0.9l-0.1-0.7l0,0c-0.6,0.5-1.3,0.9-2.1,0.9
				C151.6,452.3,150.9,451.6,150.9,450.5z M154.7,450.6v-1.7c-2.1,0.2-2.8,0.7-2.8,1.5c0,0.7,0.5,1,1.1,1
				C153.6,451.5,154.1,451.2,154.7,450.6z"/>
			<path class="st8" d="M158.5,447.8c0-2.7,1.5-4.4,3.6-4.4s3.6,1.6,3.6,4.4s-1.5,4.4-3.6,4.4S158.5,450.6,158.5,447.8z
				 M164.6,447.8c0-2.1-1-3.4-2.5-3.4c-1.5,0-2.5,1.3-2.5,3.4c0,2.1,1,3.5,2.5,3.5C163.6,451.3,164.6,450,164.6,447.8z"/>
			<path class="st8" d="M168.6,445.9h0.9l0.1,0.7l0,0c0.6-0.4,1.3-0.9,2-0.9c1.6,0,2.5,1.3,2.5,3.2c0,2.1-1.3,3.4-2.7,3.4
				c-0.6,0-1.2-0.3-1.7-0.7v1.1v2.1h-1V445.9z M172.9,448.9c0-1.4-0.4-2.3-1.6-2.3c-0.5,0-1.1,0.3-1.7,0.9v3.3
				c0.6,0.5,1.1,0.7,1.5,0.7C172.2,451.4,172.9,450.5,172.9,448.9z"/>
			<path class="st8" d="M176.1,451.4l0.5-0.7c0.5,0.4,1.1,0.7,1.8,0.7c0.8,0,1.3-0.4,1.3-1c0-0.7-0.7-1-1.4-1.2
				c-0.9-0.3-1.8-0.7-1.8-1.8c0-1,0.8-1.8,2.1-1.8c0.7,0,1.5,0.3,1.9,0.7l-0.5,0.7c-0.4-0.3-0.9-0.6-1.5-0.6c-0.8,0-1.1,0.4-1.1,0.9
				c0,0.6,0.7,0.8,1.4,1.1c0.9,0.4,1.9,0.7,1.9,1.9c0,1-0.8,1.8-2.3,1.8C177.6,452.3,176.8,451.9,176.1,451.4z"/>
		</g>
	</g>
	<g>
		<g class="st5">
			<path class="st8" d="M83.1,474.8h1.1v7.5h3.7v0.9h-4.8V474.8z"/>
			<path class="st8" d="M89.8,480.2c0-2.1,1.4-3.3,2.8-3.3c1.6,0,2.5,1.2,2.5,3c0,0.2,0,0.4-0.1,0.6h-4.2c0.1,1.3,0.9,2.2,2.1,2.2
				c0.6,0,1.1-0.2,1.5-0.5l0.4,0.7c-0.6,0.4-1.3,0.7-2.1,0.7C91.1,483.4,89.8,482.2,89.8,480.2z M94.1,479.6c0-1.3-0.6-1.9-1.5-1.9
				c-0.9,0-1.7,0.7-1.8,1.9H94.1z"/>
			<path class="st8" d="M96.9,477H98l1.2,3.5c0.2,0.6,0.4,1.3,0.6,1.8h0.1c0.2-0.6,0.4-1.3,0.6-1.8l1.2-3.5h1l-2.2,6.3h-1.3
				L96.9,477z"/>
			<path class="st8" d="M104.4,480.2c0-2.1,1.4-3.3,2.8-3.3c1.6,0,2.5,1.2,2.5,3c0,0.2,0,0.4-0.1,0.6h-4.2c0.1,1.3,0.9,2.2,2.1,2.2
				c0.6,0,1.1-0.2,1.5-0.5l0.4,0.7c-0.6,0.4-1.3,0.7-2.1,0.7C105.8,483.4,104.4,482.2,104.4,480.2z M108.8,479.6
				c0-1.3-0.6-1.9-1.5-1.9c-0.9,0-1.7,0.7-1.8,1.9H108.8z"/>
			<path class="st8" d="M112.4,477h0.9l0.1,1.1l0,0c0.4-0.8,1.1-1.3,1.8-1.3c0.3,0,0.4,0,0.7,0.1l-0.2,1c-0.2-0.1-0.4-0.1-0.6-0.1
				c-0.5,0-1.2,0.4-1.5,1.5v4.1h-1L112.4,477L112.4,477z"/>
			<path class="st8" d="M117.3,481.6c0-1.3,1.2-2.1,3.8-2.4c0-0.8-0.3-1.5-1.3-1.5c-0.7,0-1.4,0.4-1.9,0.7l-0.4-0.7
				c0.6-0.4,1.5-0.8,2.5-0.8c1.5,0,2.1,1,2.1,2.6v3.8h-0.9l-0.1-0.7l0,0c-0.6,0.5-1.3,0.9-2.1,0.9
				C118.1,483.4,117.3,482.7,117.3,481.6z M121.1,481.7v-1.8c-2.1,0.2-2.8,0.7-2.8,1.5c0,0.7,0.5,1,1.1,1
				C120,482.6,120.5,482.3,121.1,481.7z"/>
			<path class="st8" d="M124.8,484.4c0-0.5,0.4-1,1-1.4V483c-0.4-0.2-0.6-0.5-0.6-1c0-0.5,0.4-1,0.7-1.2v-0.1
				c-0.4-0.4-0.8-1-0.8-1.7c0-1.4,1.1-2.2,2.4-2.2c0.4,0,0.7,0.1,0.9,0.1h2.2v0.8h-1.3c0.3,0.3,0.5,0.7,0.5,1.3c0,1.3-1,2.2-2.3,2.2
				c-0.3,0-0.7-0.1-1-0.2c-0.2,0.2-0.4,0.4-0.4,0.7c0,0.4,0.2,0.7,1.1,0.7h1.3c1.5,0,2.2,0.4,2.2,1.5c0,1.2-1.3,2.1-3.2,2.1
				C125.9,486.1,124.8,485.6,124.8,484.4z M129.6,484.1c0-0.6-0.4-0.7-1.3-0.7h-1.1c-0.2,0-0.5,0-0.8-0.1c-0.4,0.3-0.7,0.7-0.7,1
				c0,0.7,0.7,1.1,1.8,1.1C128.8,485.5,129.6,484.8,129.6,484.1z M128.8,479.1c0-0.9-0.6-1.5-1.3-1.5c-0.7,0-1.3,0.5-1.3,1.5
				c0,0.9,0.6,1.5,1.3,1.5C128.1,480.5,128.8,480,128.8,479.1z"/>
			<path class="st8" d="M132.3,480.2c0-2.1,1.4-3.3,2.8-3.3c1.6,0,2.5,1.2,2.5,3c0,0.2,0,0.4-0.1,0.6h-4.2c0.1,1.3,0.9,2.2,2.1,2.2
				c0.6,0,1.1-0.2,1.5-0.5l0.4,0.7c-0.6,0.4-1.3,0.7-2.1,0.7C133.7,483.4,132.3,482.2,132.3,480.2z M136.7,479.6
				c0-1.3-0.6-1.9-1.5-1.9c-0.9,0-1.7,0.7-1.8,1.9H136.7z"/>
			<path class="st8" d="M144.1,474.8h1.3l1.6,4.5c0.2,0.6,0.4,1.2,0.6,1.8h0.1c0.2-0.6,0.4-1.2,0.6-1.8l1.6-4.5h1.3v8.5h-1v-4.7
				c0-0.7,0.1-1.8,0.1-2.5h-0.1l-0.7,1.9l-1.6,4.4h-0.7l-1.6-4.4L145,476h-0.1c0.1,0.7,0.1,1.8,0.1,2.5v4.7h-1L144.1,474.8
				L144.1,474.8z"/>
			<path class="st8" d="M154.4,481v-4h1v3.8c0,1.2,0.4,1.7,1.2,1.7c0.7,0,1.1-0.3,1.7-1v-4.4h1v6.3h-0.9l-0.1-1l0,0
				c-0.6,0.7-1.2,1.1-2.1,1.1C155,483.4,154.4,482.6,154.4,481z"/>
			<path class="st8" d="M162.6,482v-8h1v8c0,0.3,0.1,0.4,0.3,0.4c0.1,0,0.1,0,0.2,0l0.1,0.8c-0.1,0.1-0.4,0.1-0.6,0.1
				C163,483.4,162.6,482.9,162.6,482z"/>
			<path class="st8" d="M167.2,481.3v-3.5h-1v-0.8l1-0.1l0.1-1.8h0.9v1.8h1.7v0.9h-1.7v3.5c0,0.7,0.2,1.2,1,1.2
				c0.2,0,0.5-0.1,0.7-0.1l0.2,0.8c-0.4,0.1-0.7,0.2-1.2,0.2C167.7,483.4,167.2,482.6,167.2,481.3z"/>
			<path class="st8" d="M172.3,475c0-0.4,0.3-0.7,0.7-0.7c0.4,0,0.7,0.2,0.7,0.7c0,0.4-0.3,0.7-0.7,0.7
				C172.6,475.7,172.3,475.4,172.3,475z M172.5,477h1v6.3h-1V477z"/>
			<path class="st8" d="M176.2,479.6h3v0.8h-3V479.6z"/>
			<path class="st8" d="M181.6,479.1c0-2.7,1.6-4.4,3.8-4.4c1,0,1.8,0.5,2.3,1l-0.6,0.7c-0.4-0.4-1-0.8-1.7-0.8
				c-1.6,0-2.7,1.3-2.7,3.4c0,2.1,1,3.5,2.7,3.5c0.8,0,1.4-0.4,2-1l0.6,0.7c-0.7,0.7-1.5,1.2-2.6,1.2
				C183.1,483.4,181.6,481.8,181.6,479.1z"/>
			<path class="st8" d="M190.4,482v-8h1v8c0,0.3,0.1,0.4,0.3,0.4c0.1,0,0.1,0,0.2,0l0.1,0.8c-0.1,0.1-0.4,0.1-0.6,0.1
				C190.8,483.4,190.4,482.9,190.4,482z"/>
			<path class="st8" d="M194.3,480.2c0-2.1,1.4-3.3,2.9-3.3c1.5,0,2.9,1.2,2.9,3.3c0,2.1-1.4,3.2-2.9,3.2
				C195.7,483.4,194.3,482.2,194.3,480.2z M199.1,480.2c0-1.5-0.7-2.4-1.8-2.4c-1.1,0-1.8,1-1.8,2.4c0,1.5,0.7,2.4,1.8,2.4
				C198.4,482.6,199.1,481.6,199.1,480.2z"/>
			<path class="st8" d="M202.9,481v-4h1v3.8c0,1.2,0.4,1.7,1.2,1.7c0.7,0,1.1-0.3,1.7-1v-4.4h1v6.3h-0.9l-0.1-1l0,0
				c-0.6,0.7-1.2,1.1-2.1,1.1C203.5,483.4,202.9,482.6,202.9,481z"/>
			<path class="st8" d="M210.6,480.2c0-2.1,1.3-3.3,2.7-3.3c0.7,0,1.2,0.3,1.8,0.7l-0.1-1.1V474h1v9.2h-0.9l-0.1-0.7l0,0
				c-0.5,0.5-1.2,0.9-1.9,0.9C211.7,483.4,210.6,482.2,210.6,480.2z M215.1,481.7v-3.3c-0.5-0.4-1-0.7-1.5-0.7c-1,0-1.8,1-1.8,2.4
				c0,1.5,0.6,2.4,1.7,2.4C214,482.5,214.5,482.2,215.1,481.7z"/>
		</g>
	</g>
	<g>
		<g class="st5">
			<path class="st8" d="M82.1,509.5c0-2.7,1.6-4.4,3.8-4.4c1,0,1.8,0.5,2.3,1l-0.6,0.7c-0.4-0.4-1-0.8-1.7-0.8
				c-1.6,0-2.7,1.3-2.7,3.4c0,2.1,1,3.5,2.7,3.5c0.8,0,1.4-0.4,2-1l0.6,0.7c-0.7,0.7-1.5,1.2-2.6,1.2
				C83.7,513.9,82.1,512.3,82.1,509.5z"/>
			<path class="st8" d="M90.5,510.6c0-2.1,1.4-3.3,2.9-3.3c1.5,0,2.9,1.2,2.9,3.3c0,2.1-1.4,3.2-2.9,3.2
				C91.9,513.9,90.5,512.7,90.5,510.6z M95.2,510.6c0-1.5-0.7-2.4-1.8-2.4c-1.1,0-1.8,1-1.8,2.4c0,1.5,0.7,2.4,1.8,2.4
				C94.5,513.1,95.2,512,95.2,510.6z"/>
			<path class="st8" d="M98.2,507.5h1.1l1.2,3.5c0.2,0.6,0.4,1.3,0.6,1.8h0.1c0.2-0.6,0.4-1.3,0.6-1.8l1.2-3.5h1l-2.2,6.3h-1.3
				L98.2,507.5z"/>
			<path class="st8" d="M105.7,510.6c0-2.1,1.4-3.3,2.8-3.3c1.6,0,2.5,1.2,2.5,3c0,0.2,0,0.4-0.1,0.6h-4.2c0.1,1.3,0.9,2.2,2.1,2.2
				c0.6,0,1.1-0.2,1.5-0.5l0.4,0.7c-0.6,0.4-1.3,0.7-2.1,0.7C107,513.9,105.7,512.7,105.7,510.6z M110.1,510.1
				c0-1.3-0.6-1.9-1.5-1.9c-0.9,0-1.7,0.7-1.8,1.9H110.1z"/>
			<path class="st8" d="M113.7,507.5h0.9l0.1,1.1l0,0c0.4-0.8,1.1-1.3,1.8-1.3c0.3,0,0.4,0,0.7,0.1l-0.2,1c-0.2-0.1-0.4-0.1-0.6-0.1
				c-0.5,0-1.2,0.4-1.5,1.5v4.1h-1V507.5z"/>
			<path class="st8" d="M123,505.3h4.9v0.9h-3.8v2.9h3.2v0.9h-3.2v3.8H123L123,505.3L123,505.3z"/>
			<path class="st8" d="M130.3,505.5c0-0.4,0.3-0.7,0.7-0.7s0.7,0.2,0.7,0.7c0,0.4-0.3,0.7-0.7,0.7
				C130.6,506.2,130.3,505.9,130.3,505.5z M130.5,507.5h1v6.3h-1V507.5z"/>
			<path class="st8" d="M134.8,507.5h0.9l0.1,0.9l0,0c0.6-0.6,1.3-1,2.1-1c1.3,0,1.9,0.9,1.9,2.4v4h-1v-3.8c0-1.2-0.4-1.7-1.2-1.7
				c-0.7,0-1.1,0.3-1.7,1v4.6h-1L134.8,507.5L134.8,507.5z"/>
			<path class="st8" d="M142.5,509.5c0-2.7,1.5-4.4,3.6-4.4s3.6,1.6,3.6,4.4s-1.5,4.4-3.6,4.4C144.1,513.9,142.5,512.2,142.5,509.5z
				 M148.7,509.5c0-2.1-1-3.4-2.5-3.4c-1.5,0-2.5,1.3-2.5,3.4c0,2.1,1,3.5,2.5,3.5C147.7,512.9,148.7,511.6,148.7,509.5z"/>
			<path class="st8" d="M152.6,507.5h0.9l0.1,0.7l0,0c0.6-0.4,1.3-0.9,2-0.9c1.6,0,2.5,1.3,2.5,3.2c0,2.1-1.3,3.4-2.7,3.4
				c-0.6,0-1.2-0.3-1.7-0.7v1.1v2.1h-1V507.5z M157,510.5c0-1.4-0.4-2.3-1.6-2.3c-0.5,0-1.1,0.3-1.7,0.9v3.3
				c0.6,0.5,1.1,0.7,1.5,0.7C156.3,513,157,512.1,157,510.5z"/>
			<path class="st8" d="M160.2,513l0.5-0.7c0.5,0.4,1.1,0.7,1.8,0.7c0.8,0,1.3-0.4,1.3-1c0-0.7-0.7-1-1.4-1.2
				c-0.9-0.3-1.8-0.7-1.8-1.8c0-1,0.8-1.8,2.1-1.8c0.7,0,1.5,0.3,1.9,0.7l-0.5,0.7c-0.4-0.3-0.9-0.6-1.5-0.6c-0.8,0-1.1,0.4-1.1,0.9
				c0,0.6,0.7,0.8,1.4,1.1c0.9,0.4,1.9,0.7,1.9,1.9c0,1-0.8,1.8-2.3,1.8C161.6,513.9,160.8,513.5,160.2,513z"/>
		</g>
	</g>
</g>
<rect x="71.2" y="698" class="st7" width="47" height="7.8"/>
</svg>
