<?xml version="1.0" encoding="utf-8"?>
<!-- Generator: Adobe Illustrator 25.4.1, SVG Export Plug-In . SVG Version: 6.00 Build 0)  -->
<svg version="1.1" id="图层_1" xmlns="http://www.w3.org/2000/svg" xmlns:xlink="http://www.w3.org/1999/xlink" x="0px" y="0px"
	 viewBox="0 0 4535.4 1303.9" style="enable-background:new 0 0 4535.4 1303.9;" xml:space="preserve">
<style type="text/css">
	.st0{fill:#FFFFFF;}
</style>
<g>
	<path class="st0" d="M684.7,1236.7h12.4c366.7-3.4,662.9-301.6,662.9-669.1h-195.3c0,261.6-212.1,473.8-473.8,473.8
		S217.1,829.3,217.1,567.6H21.8C21.8,935.1,318,1233.4,684.7,1236.7"/>
	<path class="st0" d="M413,566.3c0-154.7,125.4-280.2,280.2-280.2c154.7,0,280.1,125.4,280.1,280.2c0,0.5,0,0.9,0,1.4h191.4
		c0-260.2-209.8-471.4-469.4-473.7h-8.8c-259.6,2.4-469.4,213.5-469.4,473.7h196C413.1,567.2,413,566.7,413,566.3"/>
	<path class="st0" d="M973.3,567.7H782c-0.3,48.9-39.9,88.4-88.8,88.4c-48.9,0-88.6-39.5-88.8-88.4H413
		c0.8,154.1,125.9,278.8,280.1,278.8S972.6,721.8,973.3,567.7"/>
</g>
<g>
	<path class="st0" d="M1830.5,521.9c33.9,34.3,50.8,83.8,50.8,148.4c0,76.6-19.7,135.5-59.1,176.6c-39.4,41.1-95.8,61.8-169.3,61.8
		c-46,0-100.1-2-162-6l6.6-126.2l-6.6-303.5l193.9-2.6C1748.1,470.4,1796.7,487.6,1830.5,521.9 M1725.6,784.9
		c10.8-16.6,16.3-43.9,16.3-82c0-32.3-2.2-57.8-6.6-76.4s-11.5-32-21.3-40.2c-9.7-8.2-23.2-12.3-40.5-12.3
		c-16.8,0-33.4,0.9-49.8,2.6l-4.6,186.6l1.3,41.1c26.6,3.5,45.8,5.3,57.8,5.3C1698.9,809.8,1714.8,801.4,1725.6,784.9"/>
	<path class="st0" d="M2289.1,902.7h-134.8l-11.9-71.1l-0.6-2l-65.1-1.3l-54.4,2.6l-11.3,71.7h-130.1l130.1-429.6h160.7
		L2289.1,902.7z M2121.7,732.7L2092.5,592h-8l-37.2,140.8l37.2,0.7L2121.7,732.7z"/>
	<polygon class="st0" points="2606.5,482.4 2599.2,579.3 2511.5,575.4 2503.5,575.4 2500.2,763.3 2505.5,902.7 2372.7,902.7 
		2379.4,776.6 2376,575.4 2367.4,575.4 2279.1,579.3 2271.1,570 2278.4,473.1 2599.2,473.1 	"/>
	<path class="st0" d="M2990.2,902.7h-134.8l-11.9-71.1l-0.6-2l-65.1-1.3l-54.4,2.6l-11.3,71.7h-130.1L2712,473.1h160.7L2990.2,902.7
		z M2822.9,732.7L2793.7,592h-8l-37.2,140.8l37.2,0.7L2822.9,732.7z"/>
	<path class="st0" d="M3325,483.7l-22.6,105.6l-8.7,5.3c-11.5-6.2-24.8-11.2-39.8-14.9c-15.1-3.8-29-5.6-41.8-5.6
		c-27,0-46.5,7.9-58.4,23.6c-11.9,15.7-17.9,42-17.9,78.7c0,42.9,6.9,74.3,20.6,93.9s35.2,29.5,64.4,29.5c12.4,0,26.2-1.2,41.5-3.6
		c15.3-2.4,28.7-5.9,40.2-10.3l10.6,6.6l-10.6,104.9c-26.6,8.4-57.3,12.6-92.3,12.6c-71.3,0-124.9-18.6-161-55.8
		C3013,817,2995,762.8,2995,691.5c0-71.7,19.3-127.3,58.1-166.7c38.7-39.4,93.5-59.1,164.3-59.1
		C3255.4,465.8,3291.3,471.8,3325,483.7"/>
	<path class="st0" d="M3728,902.7h-134.8l-11.9-71.1l-0.6-2l-65.1-1.3l-54.4,2.6l-11.3,71.7h-130.1l130.1-429.6h160.7L3728,902.7z
		 M3560.7,732.7L3531.5,592h-8l-37.2,140.8l37.2,0.7L3560.7,732.7z"/>
	<path class="st0" d="M4164.3,874.8l-2,14.6c-46.5,10.2-90.8,17.3-132.8,21.3l-14.6-8c-45.2-77.5-82.1-143.2-110.9-197.2l-1.3,57.8
		l5.3,139.5h-133.5l6.6-126.2l-6.6-303.5h135.5l-4.6,179.3l82.3-132.8l22.6-46.5H4151l-126.2,203.2
		C4065.6,740,4112.1,806.2,4164.3,874.8"/>
	<polygon class="st0" points="4495,796.5 4502.3,805.8 4494.3,902.7 4191.5,902.7 4198.1,776.6 4191.5,473.1 4499.6,473.1 
		4506.9,482.4 4498.3,579.3 4392.7,575.4 4324.3,575.4 4323,635.8 4388.7,635.8 4457.8,633.8 4465.1,643.1 4457.1,740 4380.1,738.1 
		4320.3,738.1 4319.7,763.3 4321,800.5 4384.7,800.5 	"/>
</g>
</svg>
