<?xml version="1.0" standalone="no"?>
<!DOCTYPE svg PUBLIC "-//W3C//DTD SVG 1.1//EN" "http://www.w3.org/Graphics/SVG/1.1/DTD/svg11.dtd"><svg t="1566894462924"
    class="icon" viewBox="0 0 4300 1024" version="1.1" xmlns="http://www.w3.org/2000/svg" p-id="1734"
    xmlns:xlink="http://www.w3.org/1999/xlink" width="839.84375" height="200">
    <defs>
        <style type="text/css"></style>
    </defs>
    <path
        d="M651.6224 159.4368c0 88.064-68.2752 159.4368-152.4992 159.4368S346.624 247.5008 346.624 159.4368 414.8992 0 499.1232 0s152.4992 71.3728 152.4992 159.4368z m-349.696 595.712c0 87.1424-67.584 157.7984-150.9632 157.7984S0 842.2912 0 755.1488c0-87.168 67.584-157.824 150.9632-157.824 83.3536 0 150.9632 70.656 150.9632 157.824z m682.4448 0.4608c0 88.064-68.2752 159.4368-152.4992 159.4368s-152.4992-71.3728-152.4992-159.4368 68.2752-159.4368 152.4992-159.4368 152.4992 71.3728 152.4992 159.4368zM158.0288 494.1568c0 23.3728 1.536 46.3616 4.4544 68.9152a180.0192 180.0192 0 0 0-117.0688 33.1008 462.4128 462.4128 0 0 1-3.84-59.2128c0-183.808 108.2368-341.9136 263.424-412.16L304.5888 128a527.4624 527.4624 0 0 0-146.5344 366.1568z m510.464 323.84a185.0368 185.0368 0 0 0 80.1792 89.8304 444.3648 444.3648 0 0 1-250.0352 76.544c-92.2112 0-177.92-27.9808-249.088-75.9296l1.3568-0.768c35.3024 7.5776 71.9104 11.5968 109.4656 11.5968a517.12 517.12 0 0 0 308.1216-101.2736z m-16.8704-568.1152a185.728 185.728 0 0 0 23.168-125.1072c157.9008 70.4768 268.0064 229.0176 268.0064 413.3632 0 19.6608-1.28 39.04-3.712 58.0352-0.6144-0.4352-1.2544-0.8192-1.8688-1.2288A527.2832 527.2832 0 0 0 651.6224 249.856z m1039.8464 4.096a396.6208 396.6208 0 0 1 118.0928 0v208.384h193.6128v-208.384a395.904 395.904 0 0 1 118.0928 0V785.92a402.0736 402.0736 0 0 1-118.0928 0v-230.144h-193.6128v230.144a402.0224 402.0224 0 0 1-118.0928 0V254.0032z m1123.072-9.472c23.7568-2.432 45.9776-4.4544 66.688-6.2464 20.736-1.8176 64.1024-2.56 89.3952-2.56 29.44 0.0768 58.7776 2.6112 87.7568 7.6032a252.5696 252.5696 0 0 1 77.9776 26.0608 155.52 155.52 0 0 1 56.1408 50.688c14.3872 21.2224 21.5808 48.2816 21.5808 81.2032a151.3984 151.3984 0 0 1-8.1408 51.8144 151.1168 151.1168 0 0 1-20.5568 39.3216 169.1904 169.1904 0 0 1-26.9824 28.9792 193.28 193.28 0 0 1-27.9296 19.1488l-13.7728 8.0896 141.4656 223.4112c-10.8032 0.9472-22.0672 1.9456-33.9456 2.9184-11.8528 0.9472-23.9872 1.4848-36.352 1.4848a421.888 421.888 0 0 1-60.672-4.4032l-151.7056-245.2992 19.4048-8.8064c7.552-3.456 16.6656-7.808 27.4688-13.2096 11.0848-5.632 21.504-12.3904 31.1296-20.224 10.0864-8.32 18.688-18.2528 25.3952-29.4144a76.9024 76.9024 0 0 0 10.5216-40.7552c0-30.8992-9.6768-53.5552-29.0816-67.9936-19.3792-14.4384-44.416-21.6576-75.136-21.6576-11.8784 0-43.1616 0.6912-52.6592 2.176v445.8752a1129.984 1129.984 0 0 1-29.0816 2.5856c-9.728 0.768-19.2 1.1264-28.3136 1.1264-9.1136 0-18.8928 0-29.0816-0.768-10.1888-0.7168-20.7616-1.408-31.5648-2.8928l0.0512-528.256z m540.672 5.0432h336.0512a211.712 211.712 0 0 1 0 90.88h-216.0128v114.304h171.4176c3.2 14.9504 4.864 30.1568 4.9408 45.4144 0 15.5136-1.664 30.976-4.9408 46.1568h-171.4176v139.2384h221.6192a211.328 211.328 0 0 1 0 90.88h-341.6576V249.5744zM2454.016 382.0544l-121.9072 403.8144a362.24 362.24 0 0 1-55.3472 4.4032 382.1568 382.1568 0 0 1-58.4448-4.4032l181.8112-534.5792c6.4512-0.8704 10.3168-1.0752 16.4608-1.7408l37.4272 132.5056z m77.952-128.1024l185.472 531.9424c-21.888 2.8928-43.9296 4.352-66.0224 4.3776a412.3392 412.3392 0 0 1-60.9536-4.3776l-16.2304-41.4208h-217.2672l27.2384-89.4976h162.0736l-119.1168-403.968c1.152-0.0512 2.432-0.384 3.4816-0.384a522.24 522.24 0 0 1 66.7392 0c10.368 0.768 21.9136 1.8688 34.5856 3.328z m1282.4576 233.5488h-52.3776a174.336 174.336 0 0 1-3.5584-21.76 214.1696 214.1696 0 0 1-1.2032-21.76c-0.0256-14.08 1.5616-28.16 4.7616-41.9072h161.6128v369.5872c-18.176 3.0976-36.5312 4.6848-54.9632 4.7616a327.7568 327.7568 0 0 1-54.1184-4.7616l-0.1536-284.16z m251.0592-34.432h-53.12l-4.0192-16.3072 152.704-212.992h18.7648v141.2864h98.944c1.5872 8.1408 2.6112 15.4112 3.2768 21.7344 0.6656 6.2976 0.768 13.312 0.768 20.3008 0 7.0144-0.3328 14.9504-0.768 21.76a203.008 203.008 0 0 1-3.2768 23.6032h-98.8928v165.248a163.584 163.584 0 0 0 4.1472 40.6272c2.048 8.9344 6.0928 17.28 11.8528 24.448 5.0176 5.8624 11.6736 10.0864 19.1232 12.16a99.84 99.84 0 0 0 26.9568 3.2768c8.064 0 16.128-0.6656 24.1152-2.0224l20.8384-3.6352c3.84 10.4192 6.5792 21.1968 8.192 32.1536 1.536 9.856 2.3296 19.7888 2.432 29.7216 0 5.9904 0 10.88-0.4352 15.0528-0.4352 4.1984-0.6656 7.9872-1.2032 11.776a333.312 333.312 0 0 1-77.6704 8.9856c-49.5872 0-87.4496-11.52-113.5616-34.56-26.112-23.04-39.168-60.5184-39.168-112.4608v-190.1568z m-2529.8688 58.5472c38.9376 26.368 58.5472 68.5056 58.8032 126.336 0.0256 45.312-20.7616 84.3264-62.3872 117.0944a228.2752 228.2752 0 0 1-145.3056 49.0496c-52.5056 0-96.384-7.5776-131.584-22.6816a285.184 285.184 0 0 1-90.5216-60.544c10.9312-15.5392 22.8096-30.3616 35.6096-44.3648 12.0064-11.904 25.344-22.3488 39.7824-31.104 25.1392 30.1568 67.8656 47.7696 128.1792 52.8384 50.2784 0 81.6384-10.7008 94.1056-32.1024a59.6992 59.6992 0 0 0 0-64.1792c-12.4672-21.376-43.8272-34.56-94.1056-39.6288a303.1808 303.1808 0 0 1-124.3648-41.5232c-37.6832-22.6048-56.5248-61.6192-56.5248-117.0432a168.192 168.192 0 0 1 1.4336-20.9152c0.8448-5.248 1.9968-10.4704 3.4816-15.5904 0.8192-2.4576 1.92-5.6576 2.816-7.9616 0.8448-2.304 1.536-4.6848 2.4576-6.9888 1.4848-3.5328 3.2256-6.9376 4.992-10.368 0.6144-1.28 1.152-2.6368 1.8688-3.8912 2.1504-3.968 4.608-7.7824 7.1936-11.6224a17.0752 17.0752 0 0 0 1.2032-1.92c2.8672-4.1984 6.1184-8.2688 9.4208-12.2368l0.512-0.6656a191.36 191.36 0 0 1 37.8368-33.7408v-0.4352l3.2512-1.9712c4.1728-2.6624 8.2944-5.376 12.544-7.7312a223.744 223.744 0 0 1 78.3104-27.52 279.5008 279.5008 0 0 1 49.1776-4.5056c76.672 0 144.2304 30.6176 182.7072 77.056h-0.3328l0.384 0.4096a207.1808 207.1808 0 0 1-30.0032 38.528 457.472 457.472 0 0 1-45.4144 37.1456c-25.1392-30.208-60.3136-45.312-105.5744-45.312-45.2608 0.0512-74.1632 10.752-86.7328 32.1024-12.5952 21.4528-12.5952 39.68 0 54.784 12.6208 15.104 41.5232 26.4192 86.7328 33.9712a280.832 280.832 0 0 1 130.048 47.232z"
        fill="#FFFFFF" p-id="1735"></path>
    <path d="M3854.336 221.824a69.3248 69.3248 0 1 1 0 138.6496 69.3248 69.3248 0 0 1 0-138.6496" fill="#FF0000"
        p-id="1736"></path>
</svg>